<svg width="96" height="96" viewBox="0 0 96 96" fill="none" xmlns="http://www.w3.org/2000/svg">
<path d="M48 88C37.6919 88 27.9678 86.625 20.6191 84.1283C10.1894 80.5848 8 76.0461 8 72.8626C8 68.7097 11.7108 65.7994 14.8236 64.0894C15.9584 63.4661 17.383 63.8806 18.0063 65.015C18.6295 66.1495 18.2152 67.5745 17.0806 68.1976C14.2887 69.7314 12.6875 71.4317 12.6875 72.8626C12.6875 74.6128 15.1672 77.3253 22.127 79.6898C29.0028 82.0261 38.1914 83.3125 48 83.3125C57.8086 83.3125 66.9972 82.0261 73.873 79.6898C80.8328 77.3255 83.3125 74.6128 83.3125 72.8626C83.3125 71.4317 81.7113 69.7314 78.9194 68.1975C77.7848 67.5744 77.3705 66.1494 77.9938 65.0148C78.6167 63.8805 80.0416 63.4659 81.1764 64.0892C84.2892 65.7994 88 68.7097 88 72.8626C88 76.0461 85.8106 80.5848 75.3809 84.1283C68.0322 86.625 58.3081 88 48 88Z" fill="#C9DFF7"/>
<path d="M81.1764 64.0893C80.0416 63.466 78.6167 63.8806 77.9938 65.015C77.3705 66.1495 77.7849 67.5745 78.9194 68.1976C81.7113 69.7314 83.3125 71.4317 83.3125 72.8626C83.3125 74.6128 80.8328 77.3253 73.873 79.6898C66.9972 82.026 57.8086 83.3125 48 83.3125C47.9999 83.3125 47.9995 83.3125 47.9994 83.3125V88C47.9995 88 47.9999 88 48 88C58.3081 88 68.0322 86.625 75.381 84.1282C85.8106 80.5848 88 76.046 88 72.8626C88 68.7096 84.2892 65.7993 81.1764 64.0893Z" fill="#AECEF2"/>
<path fill-rule="evenodd" clip-rule="evenodd" d="M30.305 76.3015C35.0628 77.6457 41.347 78.3859 48 78.3859C54.653 78.3859 60.9372 77.6456 65.695 76.3015C71.5158 74.6573 74.4672 72.277 74.4672 69.2273C74.4672 66.1776 71.5158 63.7974 65.695 62.1532C60.9372 60.809 54.653 60.0688 48 60.0688C41.347 60.0688 35.0628 60.809 30.305 62.1532C24.4842 63.7974 21.5328 66.1774 21.5328 69.2273C21.5328 72.277 24.4842 74.6573 30.305 76.3015ZM32.4303 72.0187C28.1466 70.9278 26.5817 69.6995 26.26 69.2271C26.5819 68.7549 28.1467 67.5268 32.4303 66.4356C36.6823 65.3526 42.2117 64.7562 47.9998 64.7562C53.788 64.7562 59.3173 65.3526 63.5694 66.4356C67.8531 67.5267 69.418 68.7549 69.7398 69.2271C69.4181 69.6993 67.8533 70.9278 63.5695 72.0187C59.3175 73.1018 53.7878 73.6982 47.9998 73.6982C42.2119 73.6982 36.6823 73.1018 32.4303 72.0187Z" fill="#C9DFF7"/>
<path d="M65.695 62.1531C60.9372 60.8089 54.653 60.0687 48 60.0687C47.9998 60.0687 47.9995 60.0687 47.9994 60.0687V64.7562C47.9995 64.7562 47.9998 64.7562 48 64.7562C53.7881 64.7562 59.3175 65.3526 63.5695 66.4356C67.8533 67.5267 69.4183 68.755 69.74 69.2272C69.4181 69.6995 67.8534 70.9278 63.5697 72.0187C59.3176 73.1019 53.7881 73.6983 48 73.6983C47.9998 73.6983 47.9995 73.6983 47.9994 73.6983V78.3858C47.9995 78.3858 47.9998 78.3858 48 78.3858C54.653 78.3858 60.9372 77.6456 65.695 76.3014C71.5158 74.6572 74.4672 72.2769 74.4672 69.2272C74.4672 66.1775 71.5158 63.7973 65.695 62.1531Z" fill="#AECEF2"/>
<path fill-rule="evenodd" clip-rule="evenodd" d="M26.2125 29.7873C26.2125 17.7738 35.9862 8 48 8C60.0137 8 69.7875 17.7738 69.7875 29.7873C69.7875 37.2703 60.6966 53.715 53.07 66.1927C51.9816 67.9734 50.0864 69.0366 48 69.0366C45.9137 69.0366 44.0184 67.9736 42.93 66.1927C35.3036 53.715 26.2125 37.2703 26.2125 29.7873ZM39.2427 28.2914C39.2427 33.1202 43.1712 37.0486 48 37.0486C52.8287 37.0486 56.7573 33.1203 56.7573 28.2914C56.7573 23.4628 52.8287 19.5344 48 19.5344C43.1712 19.5344 39.2427 23.4628 39.2427 28.2914Z" fill="#FE5857"/>
<path d="M48 8C47.9998 8 47.9995 8 47.9994 8V19.5344C47.9995 19.5344 47.9998 19.5344 48 19.5344C52.8287 19.5344 56.7573 23.4628 56.7573 28.2914C56.7573 33.1202 52.8287 37.0486 48 37.0486C47.9998 37.0486 47.9995 37.0486 47.9994 37.0486V69.0366C47.9995 69.0366 47.9998 69.0366 48 69.0366C50.0864 69.0366 51.9815 67.9734 53.07 66.1927C60.6965 53.715 69.7875 37.2703 69.7875 29.7873C69.7875 17.7738 60.0137 8 48 8Z" fill="#DB0253"/>
</svg>
