<svg width="20" height="20" viewBox="0 0 20 20" fill="none" xmlns="http://www.w3.org/2000/svg">
<ellipse cx="10" cy="10.0559" rx="8" ry="8.04469" fill="#1DAEF1"/>
<path d="M3.61023 14.8959C6.2426 18.4112 11.1956 19.1464 14.7258 16.5459C11.7405 17.0767 10.0369 14.7051 9.77445 12.135C9.51201 9.56494 7.4909 9.40382 6.73001 9.5455C5.36045 9.80069 4.58734 11.0387 4.85045 12.891C5.11245 14.7375 3.61934 14.8948 3.61023 14.8959Z" fill="#4CE797"/>
<path d="M10 2.01123C9.37646 2.01157 8.75508 2.08507 8.14846 2.23022C8.14046 2.25101 7.61513 3.67603 10.4136 4.83939C13.2329 6.01123 14.1351 7.97771 13.9847 10.3205C13.8342 12.6633 16.6987 13.2374 17.8222 11.7424C18.3287 9.3668 17.7405 6.88826 16.2216 4.99876C14.7028 3.10926 12.4161 2.01123 10 2.01123Z" fill="#4CE797"/>
<path fill-rule="evenodd" clip-rule="evenodd" d="M8.22107 0.54795C8.23564 0.751924 8.40403 0.910168 8.60739 0.910995C8.62628 0.910982 8.64514 0.909638 8.66383 0.906973C9.53143 0.780723 10.4124 0.778015 11.2807 0.898928C11.4911 0.924214 11.6829 0.775514 11.7121 0.564495C11.7412 0.353477 11.5971 0.157796 11.3878 0.124403C10.4468 -0.00656325 9.49207 -0.00362942 8.55183 0.133118C8.35068 0.163159 8.20651 0.343976 8.22107 0.54795ZM16.2503 3.14183C16.1572 3.14186 16.0672 3.10823 15.9967 3.04708C15.3328 2.47167 14.5905 1.99466 13.7923 1.63055C13.6657 1.57283 13.5794 1.4516 13.5658 1.31253C13.5523 1.17346 13.6135 1.03768 13.7265 0.956328C13.8395 0.874979 13.9871 0.860425 14.1136 0.918146C14.9791 1.31314 15.7842 1.83039 16.5043 2.45424C16.6274 2.56102 16.6715 2.73353 16.6149 2.8868C16.5583 3.04007 16.4129 3.14178 16.2503 3.14183ZM3.34151 2.92608C3.39846 3.07878 3.54366 3.17991 3.70583 3.17982C3.79972 3.18001 3.89047 3.14586 3.96117 3.08373C4.62146 2.50407 5.36089 2.02246 6.15695 1.65356C6.34446 1.559 6.42359 1.33192 6.3358 1.14034C6.24801 0.948752 6.02493 0.861715 5.83161 0.943621C4.96834 1.34365 4.16638 1.86573 3.45006 2.49401C3.32782 2.60119 3.28456 2.77339 3.34151 2.92608ZM19.1865 7.69558C19.0144 7.69536 18.8629 7.58162 18.8138 7.4158C18.5643 6.57104 18.1951 5.76681 17.7176 5.02787C17.642 4.91067 17.6342 4.76178 17.6973 4.63729C17.7604 4.5128 17.8848 4.43162 18.0235 4.42433C18.1623 4.41704 18.2944 4.48475 18.3701 4.60194C18.888 5.4036 19.2886 6.27599 19.5596 7.19234C19.5944 7.31072 19.5717 7.43868 19.4983 7.53761C19.4248 7.63654 19.3093 7.69483 19.1865 7.69491V7.69558ZM0.484759 7.59591C0.558429 7.69437 0.673975 7.75209 0.796501 7.75167C0.96913 7.75126 1.12086 7.63654 1.16917 7.46988C1.41383 6.62364 1.77823 5.81718 2.25117 5.07524C2.32927 4.95756 2.33808 4.80663 2.27419 4.68058C2.21031 4.55452 2.08369 4.47299 1.9431 4.46739C1.80252 4.46179 1.66988 4.53299 1.59628 4.65356C1.08324 5.45855 0.687864 6.33349 0.422279 7.25155C0.387931 7.36982 0.411089 7.49746 0.484759 7.59591ZM19.1985 13.1608C19.0759 13.1609 18.9605 13.1028 18.887 13.0042C18.8135 12.9056 18.7905 12.7779 18.8249 12.6596C19.0707 11.8138 19.1951 10.937 19.1945 10.0558V10.0167C19.1945 9.80072 19.3686 9.62563 19.5834 9.62563C19.7982 9.62563 19.9723 9.80072 19.9723 10.0167V10.0558C19.9733 11.0115 19.8386 11.9624 19.5723 12.8797C19.524 13.0469 19.3716 13.1619 19.1985 13.1619V13.1608ZM0.434501 12.8992C0.483348 13.0652 0.634857 13.1792 0.807041 13.1796C0.929524 13.1795 1.04481 13.1213 1.11818 13.0227C1.19167 12.9239 1.21452 12.796 1.17983 12.6777C0.932286 11.8324 0.806049 10.9558 0.804945 10.0746C0.804455 9.85894 0.630487 9.6844 0.416056 9.6844C0.312878 9.68458 0.213999 9.72598 0.141187 9.79949C0.0683745 9.87301 0.0275981 9.9726 0.0278341 10.0764C0.029137 11.032 0.166073 11.9825 0.434501 12.8992ZM16.2801 17.7264C16.1177 17.7265 15.9724 17.6253 15.9156 17.4724C15.8587 17.3195 15.9022 17.1472 16.0247 17.0402C16.687 16.4625 17.264 15.7928 17.7383 15.0513C17.8567 14.875 18.0935 14.8261 18.2714 14.9412C18.4493 15.0564 18.5031 15.2934 18.3925 15.4748C17.8783 16.2785 17.2527 17.0044 16.5347 17.6305C16.4642 17.6925 16.3737 17.7266 16.2801 17.7264ZM3.48072 17.6442C3.5512 17.7057 3.64141 17.7395 3.73472 17.7394C3.89724 17.7395 4.04271 17.638 4.09948 17.4849C4.15625 17.3318 4.11234 17.1593 3.98939 17.0524C3.32615 16.476 2.74791 15.8075 2.27206 15.0672C2.19755 14.9478 2.06489 14.8779 1.92484 14.8844C1.78478 14.8908 1.65902 14.9726 1.59568 15.0983C1.53234 15.2241 1.54123 15.3744 1.61895 15.4918C2.13478 16.2945 2.76166 17.0192 3.48072 17.6442ZM11.3727 19.9854C11.1683 19.9857 10.9986 19.8269 10.9842 19.6219C10.9698 19.4169 11.1157 19.2357 11.3181 19.2071C12.1852 19.0822 13.03 18.8325 13.8265 18.4656C14.0217 18.3757 14.2524 18.462 14.3418 18.6583C14.4312 18.8546 14.3455 19.0866 14.1503 19.1765C13.2861 19.5747 12.3693 19.8456 11.4283 19.9809C11.4099 19.9837 11.3913 19.9852 11.3727 19.9854ZM8.64739 19.9883C8.62903 19.9883 8.61069 19.987 8.5925 19.9845C7.65109 19.8508 6.73369 19.5816 5.8685 19.1852C5.74128 19.1278 5.65438 19.0062 5.64074 18.8667C5.6271 18.7271 5.68882 18.5909 5.80248 18.5097C5.91615 18.4284 6.06437 18.4146 6.19095 18.4735C6.98846 18.8391 7.83417 19.0875 8.70206 19.2109C8.90361 19.2402 9.04857 19.4209 9.03439 19.6252C9.02021 19.8294 8.85171 19.9881 8.64806 19.989L8.64739 19.9883Z" fill="#BAE9F9"/>
</svg>
