<svg width="263" height="240" viewBox="0 0 263 240" fill="none" xmlns="http://www.w3.org/2000/svg">
<ellipse cx="134.771" cy="119.733" rx="119.351" ry="119.2" fill="#E9EFFF"/>
<path d="M197.45 222.467C197.45 222.467 208.531 159.333 238.502 157.933C238.569 158 250.518 199.933 197.45 222.467Z" fill="#3DC1C6"/>
<path d="M193.378 228.733C193.378 228.733 233.362 178.6 260.33 191.667C260.33 191.733 250.785 234.267 193.378 228.733Z" fill="#3DC1C6"/>
<path d="M250.985 195.333C250.985 195.333 235.298 209.133 211.735 218.867" stroke="white" stroke-width="2"/>
<path d="M232.561 166.267C232.561 166.267 217.809 197.6 202.59 216.467" stroke="white" stroke-width="2"/>
<path d="M16.4875 236.667C17.2218 231.933 20.0921 227.6 24.0972 225C28.1023 222.4 33.2421 221.6 37.848 222.867C38.7825 215.667 43.1213 209 49.3959 205.333C55.6705 201.667 63.6139 201.067 70.3558 203.733L127.895 237.467L16.4875 236.667Z" fill="#B3C6FE"/>
<path d="M141.846 236.133C144.116 228.533 150.257 219.4 156.598 214.533C161.738 210.6 168.347 208 174.688 209.2C176.157 209.467 177.625 210 179.16 210C181.497 210.067 183.766 209.133 185.969 208.4C198.452 204.467 213.204 209.067 221.147 219.533C226.554 217.8 232.628 220.133 236.767 224.067C240.905 228 243.575 233.133 246.112 238.267L141.846 236.133Z" fill="#B3C6FE"/>
<ellipse cx="131.5" cy="237.467" rx="131.5" ry="2.53333" fill="#EDD5E6"/>
<circle cx="134.867" cy="147" r="90.6667" fill="#133A65"/>
<path d="M214.733 146.933C214.733 169.467 205.4 189.867 190.333 204.4C175.933 218.333 156.333 226.867 134.8 226.867C102.933 226.867 75.4667 208.267 62.6 181.267C57.6 170.867 54.8667 159.2 54.8667 146.933C54.8667 140.867 55.5333 134.933 56.8 129.267C59.8667 115.8 66.2667 103.6 75.1333 93.6667C89.3333 77.8 109.733 67.6 132.467 67C133.2 67 134 67 134.733 67C155.867 67 175.133 75.2 189.4 88.6667C205 103.2 214.733 123.933 214.733 146.933Z" fill="white"/>
<path fill-rule="evenodd" clip-rule="evenodd" d="M135.667 144.6L75.1333 93.6667C89.3333 77.8 109.733 67.6 132.467 67C133.667 83.3333 135.667 144.6 135.667 144.6Z" fill="#497DF9"/>
<path fill-rule="evenodd" clip-rule="evenodd" d="M94.6465 191.678L135.437 144.372L136.396 145.199L95.6057 192.505L94.6465 191.678Z" fill="#EF716B"/>
<path fill-rule="evenodd" clip-rule="evenodd" d="M135.467 144.4L62.6 181.267C57.6 170.867 54.8667 159.2 54.8667 146.933C54.8667 140.867 55.5333 134.933 56.8 129.267L135.467 144.4Z" fill="#497DF9"/>
<path fill-rule="evenodd" clip-rule="evenodd" d="M214.733 146.933C214.733 169.467 205.4 189.867 190.333 204.4L135.467 144.4L189.467 88.5999C205 103.2 214.733 123.933 214.733 146.933Z" fill="#497DF9"/>
<circle cx="135.667" cy="144.6" r="2.33333" fill="#070707"/>
<path d="M179 171.333L172.533 162.6L135.667 144.6L167.933 169.067L179 171.333Z" fill="#070707"/>
<path d="M117.733 75L124.133 109.133L135.667 143.667L128.333 107.733L117.733 75Z" fill="#070707"/>
<path fill-rule="evenodd" clip-rule="evenodd" d="M97.2667 121.733C97.8667 121.8 98.6667 121.933 99.1334 122.467C99.4 122.8 99.6667 123.333 99.5334 124.133C99.2 126 97 126.533 95.6 126.733C95.2667 127.067 94.9334 127.333 94.5334 127.533H96.5334C96.8 127.533 97 127.733 97 128C97 128.267 96.8 128.467 96.5334 128.467H87.3334C87.0667 128.467 86.8667 128.267 86.8667 128C86.8667 127.733 87.0667 127.533 87.3334 127.533H89.3334C87.7334 126.6 86.6667 124.933 86.6667 122.933V120.867H97.2667V121.733ZM96.4667 125.667C97.4667 125.4 98.4 124.867 98.6 124C98.6667 123.6 98.6 123.333 98.4 123.067C98.1334 122.8 97.6667 122.667 97.2 122.667V122.933C97.2 123.933 96.9334 124.867 96.4667 125.667Z" fill="#070707"/>
<path d="M91.9334 119.733C91.9334 119.733 91 118.333 93.3334 117C95.6667 115.6 94.2667 114.267 94.2667 114.267C94.2667 114.267 96.8 115.533 93.8 117.467C93.1334 117.8 91.9334 118.333 91.9334 119.733Z" fill="#070707"/>
<path d="M90.8 118.2C90.8 118.2 89.6 117.067 91.4667 115.2C93.4 113.333 91.7334 112.267 91.7334 112.267C91.7334 112.267 94.5334 112.867 92.0667 115.533C91.5334 116.067 90.4667 116.867 90.8 118.2Z" fill="#070707"/>
<path fill-rule="evenodd" clip-rule="evenodd" d="M139.6 187.533C140.6 187.6 141.8 187.866 142.6 188.666C143.067 189.133 143.533 189.933 143.267 191.333C142.667 194.2 139.2 195.133 137.067 195.4C136.533 195.866 136 196.266 135.4 196.6H138.533C138.933 196.6 139.267 196.933 139.267 197.333C139.267 197.733 138.933 198.066 138.533 198.066H124.067C123.667 198.066 123.333 197.733 123.333 197.333C123.333 196.933 123.667 196.6 124.067 196.6H127.2C124.733 195.2 123 192.466 123 189.4V186.133H139.6V187.533ZM138.4 193.666C140 193.266 141.533 192.466 141.8 191.066C141.933 190.4 141.867 189.933 141.533 189.666C141.133 189.2 140.333 189.066 139.6 189V189.4C139.6 190.933 139.133 192.4 138.4 193.666Z" fill="#070707"/>
<path d="M131.333 184.333C131.333 184.333 129.867 182.133 133.533 180C137.133 177.8 135 175.667 135 175.667C135 175.667 139 177.667 134.267 180.733C133.267 181.333 131.333 182.2 131.333 184.333Z" fill="#070707"/>
<path d="M129.533 181.933C129.533 181.933 127.6 180.2 130.6 177.2C133.6 174.267 131 172.667 131 172.667C131 172.667 135.333 173.6 131.533 177.733C130.667 178.533 129 179.8 129.533 181.933Z" fill="#070707"/>
<path fill-rule="evenodd" clip-rule="evenodd" d="M154.867 104.666C155.467 104.733 156.267 104.866 156.733 105.4C157 105.733 157.267 106.266 157.133 107.066C156.8 108.933 154.6 109.466 153.2 109.666C152.867 110 152.533 110.266 152.133 110.466H154.133C154.4 110.466 154.6 110.666 154.6 110.933C154.6 111.2 154.4 111.4 154.133 111.4H144.933C144.667 111.4 144.467 111.2 144.467 110.933C144.467 110.666 144.667 110.466 144.933 110.466H146.933C145.333 109.533 144.267 107.866 144.267 105.866V103.8H154.867V104.666ZM154.067 108.6C155.067 108.333 156 107.8 156.2 106.933C156.267 106.533 156.2 106.266 156 106C155.733 105.733 155.267 105.6 154.8 105.6V105.866C154.8 106.866 154.533 107.8 154.067 108.6Z" fill="#070707"/>
<path d="M149.533 102.667C149.533 102.667 148.6 101.267 150.933 99.9333C153.267 98.5333 151.867 97.2 151.867 97.2C151.867 97.2 154.4 98.4666 151.4 100.4C150.733 100.8 149.533 101.267 149.533 102.667Z" fill="#070707"/>
<path d="M148.4 101.133C148.4 101.133 147.2 100 149.067 98.1333C151 96.2666 149.333 95.2 149.333 95.2C149.333 95.2 152.133 95.8 149.667 98.4666C149.133 99 148.067 99.8 148.4 101.133Z" fill="#070707"/>
<path d="M103.733 92.7332C103.2 93.0665 102.467 92.8665 102.2 92.3332L98.2667 85.5332C97.9333 84.9999 98.1333 84.2665 98.6667 83.9999C99.2 83.6665 99.9333 83.8665 100.2 84.3999L104.133 91.1999C104.467 91.7332 104.333 92.3999 103.733 92.7332Z" fill="#070707"/>
<path d="M135.333 84.2C134.733 84.2 134.2 83.6667 134.2 83.0667V75.2C134.2 74.6 134.733 74.0667 135.333 74.0667C135.933 74.0667 136.467 74.6 136.467 75.2V83.0667C136.467 83.6667 135.933 84.2 135.333 84.2Z" fill="#070707"/>
<path d="M166.4 92.2667C165.867 91.9333 165.667 91.2667 166 90.7333L169.933 83.9333C170.267 83.4 170.933 83.2 171.467 83.5333C172 83.8667 172.2 84.5333 171.867 85.0667L167.933 91.8667C167.667 92.4 167 92.6 166.4 92.2667Z" fill="#070707"/>
<path d="M189.467 115.267C189.133 114.733 189.333 114 189.867 113.733L196.667 109.8C197.2 109.467 197.933 109.667 198.2 110.2C198.533 110.733 198.333 111.467 197.8 111.733L191 115.667C190.467 116 189.8 115.867 189.467 115.267Z" fill="#070707"/>
<path d="M198 146.866C198 146.266 198.533 145.733 199.133 145.733H207C207.6 145.733 208.133 146.266 208.133 146.866C208.133 147.466 207.6 148 207 148H199.133C198.533 148 198 147.466 198 146.866Z" fill="#070707"/>
<path d="M189.467 178.4C189.8 177.867 190.467 177.667 191 178L197.8 181.933C198.333 182.267 198.533 182.933 198.2 183.467C197.867 184 197.2 184.2 196.667 183.867L189.867 179.933C189.333 179.667 189.133 179 189.467 178.4Z" fill="#070707"/>
<path d="M166.267 201.066C166.8 200.733 167.533 200.866 167.867 201.4L172.067 208.066C172.4 208.6 172.267 209.333 171.733 209.666C171.2 210 170.467 209.866 170.133 209.333L165.933 202.666C165.533 202.133 165.733 201.4 166.267 201.066Z" fill="#070707"/>
<path d="M134.867 209.533C135.467 209.533 136 210.067 136 210.667V218.533C136 219.133 135.467 219.667 134.867 219.667C134.267 219.667 133.733 219.133 133.733 218.533V210.667C133.733 210.067 134.2 209.533 134.867 209.533Z" fill="#070707"/>
<path d="M104 201.6C104.533 201.933 104.667 202.667 104.333 203.2L100 209.733C99.6667 210.267 98.9333 210.4 98.4 210.067C97.8667 209.733 97.7333 209 98.0667 208.467L102.4 201.933C102.8 201.4 103.467 201.267 104 201.6Z" fill="#070707"/>
<path d="M80.7333 178.4C81.0667 178.933 80.8667 179.667 80.3333 179.933L73.5333 183.867C73 184.2 72.2667 184 72 183.467C71.6667 182.933 71.8667 182.2 72.4 181.933L79.2 178C79.7333 177.667 80.4 177.867 80.7333 178.4Z" fill="#070707"/>
<path d="M72.2 146.866C72.2 147.466 71.6667 148 71.0667 148H63.2C62.6 148 62.0667 147.466 62.0667 146.866C62.0667 146.266 62.6 145.733 63.2 145.733H71.0667C71.6667 145.733 72.2 146.2 72.2 146.866Z" fill="#070707"/>
<path d="M80.6 115.533C80.2667 116.067 79.5333 116.2 79 115.867L72.4 111.6C71.8667 111.267 71.7333 110.533 72.0667 110C72.4 109.467 73.1333 109.333 73.6667 109.667L80.2667 113.933C80.8 114.267 80.9333 115 80.6 115.533Z" fill="#070707"/>
<rect x="62.6667" y="220.023" width="8.66667" height="6.65689" fill="#EF716B"/>
<path d="M61.8667 222.686H72.6169L76.6667 160.121L75.6358 112.847L52 115.706L56.7861 164.775L61.8667 222.686Z" fill="#0C0C0E"/>
<path d="M51.6928 52.2698C51.1797 51.322 50.6667 44.2815 50.6667 44.2815L62.3211 44.7554L64.6667 49.765L51.6928 52.2698Z" fill="#4B4A5A"/>
<path fill-rule="evenodd" clip-rule="evenodd" d="M103.951 48.2475C103.951 48.3142 103.879 48.381 103.807 48.4477C103.807 48.4477 103.156 51.5834 101.133 53.4515L99.7605 60.9238H93.6915L93.0413 52.1838C93.0413 52.1838 90.8015 50.249 91.4518 45.2452L94.414 41.5758C94.414 41.5758 95.7868 43.4439 94.414 45.312L95.9313 43.3772C95.9313 43.3772 96.437 40.9086 97.0873 38.4401C97.0873 38.4401 96.437 32.1687 99.1103 30.9678L99.7605 42.71V42.7767C99.7605 42.7767 101.784 43.3772 101.784 44.6448C101.784 44.6448 103.807 45.2452 103.156 46.5129C103.156 46.5796 104.24 47.5804 103.951 48.2475Z" fill="#EF716B"/>
<rect x="36" y="220.023" width="8.66667" height="6.65689" fill="#EF716B"/>
<path fill-rule="evenodd" clip-rule="evenodd" d="M62.3111 47.2105C62.3822 51.2712 62.5956 54.9325 62.5956 54.9325L52 50.539C52.64 44.9472 54.7022 34.9618 54.7022 34.2961L62.6667 38.2237C62.4533 39.4885 62.3822 41.3524 62.3822 43.4161C62.3111 44.6809 62.3111 45.9457 62.3111 47.2105Z" fill="#EF716B"/>
<path fill-rule="evenodd" clip-rule="evenodd" d="M70.6667 29.0174C70.6667 29.0174 69.2913 55.4177 53.7277 37.2129C53.7277 37.2129 46.9232 28.4128 51.7009 21.4937C51.7009 21.4937 59.1569 15.8508 67.2644 19.6127C67.2644 19.6127 70.6667 22.7028 70.6667 29.0174Z" fill="#EF716B"/>
<path d="M66.6667 49.6069C66.6667 49.6069 77.2796 58.1805 88.1106 81.1763L91.527 59.3768H100.395C100.395 59.3768 103.085 93.6046 91.527 95.4656C91.527 95.4656 86.7294 97.3265 75.8984 82.3726L66.6667 49.6069Z" fill="#949FBF"/>
<path d="M62 115.51L55.4421 161.005L45.2 222.686H34L36.5789 168.865L37.6105 115.51H62Z" fill="#4B4A5A"/>
<path d="M52.4321 118.839H71.3333L64.6884 48.6171L63.1379 46.2786C63.1379 46.2786 59.0771 54.5635 51.3985 46.2786L48.6667 48.6171L52.4321 118.839Z" fill="#316398"/>
<path d="M60 146.132L32 143.394L34.5789 123.088C36.6421 109.262 36.1263 91.6957 36.1263 91.6957C35.7579 88.0889 35.5368 84.9496 35.3895 82.2111C34.8 70.6559 35.7579 66.8487 36.0526 66.0471C36.1263 65.9136 36.1263 65.8468 36.1263 65.8468C37.1579 54.2916 48.3579 46.9443 48.3579 46.9443L57.4947 73.2608L60 146.132Z" fill="#B3C6FE"/>
<path d="M67.943 145.4L65.8553 62.2369L65.3333 48.9414C65.3333 48.9414 71.5219 52.1323 73.6097 61.3726C73.6097 61.3726 75.6974 72.4079 76.6667 99.9959V145.466H67.943V145.4Z" fill="#B3C6FE"/>
<path d="M66.616 71.5748L62.6667 44.9473L66.616 49.3629V57.1906L68.6667 58.5956L66.616 71.5748Z" fill="#E1E9FE"/>
<path d="M35.5188 82.2259C34.9375 70.7094 35.8822 66.915 36.1728 66.1162L45.5467 50.9385C45.692 51.6042 55.2838 64.9179 35.5188 82.2259Z" fill="#96A9E3"/>
<path fill-rule="evenodd" clip-rule="evenodd" d="M33.6191 116.486C33.6191 116.486 31.3841 111.704 29.2889 112.221C29.2889 112.221 31.1048 116.939 33.2699 118.748C33.2699 118.748 29.4286 113.514 27.3333 114.289C27.3333 114.289 29.4984 119.071 32.4318 120.17L34.6667 119.782L33.6191 116.486Z" fill="#EF716B"/>
<path fill-rule="evenodd" clip-rule="evenodd" d="M40 116.182C40 116.182 39.325 120.836 32.35 120.836C32.35 120.836 32.95 116.586 30.7 112.202C30.1 111.056 29.35 109.909 28.3 108.83C28.225 108.695 28.075 108.628 28 108.493L34.15 105.525C34.15 105.525 34.3 105.66 34.6 105.997C35.875 107.481 39.85 112.27 40 116.182Z" fill="#EF716B"/>
<path d="M34 106.191L30.3133 112.182C29.7349 111.075 29.012 109.968 28 108.926L34 106.191Z" fill="#ED6969"/>
<path d="M45.0907 48.9772C45.0907 48.9772 51.9588 60.7815 41.6566 69.469L24.6323 79.4165L34.7884 105.28L27.9202 110.85L13.7455 85.2523C11.4804 82.0028 11.4074 77.8912 13.5993 74.5754C19.6638 65.4237 39.5377 48.0487 45.0907 48.9772Z" fill="#BEC0F0"/>
<path d="M51.0366 44.2815C51.5491 44.7453 57.3333 72.9061 57.3333 72.9061L48.6936 60.9792L49.7187 58.2625L44.6667 48.6547L51.0366 44.2815Z" fill="#E1E9FE"/>
<path d="M74.3556 14.7249C70.261 7.73519 53.8097 8.66716 51.1775 13.2604C51.6162 11.929 52.5667 10.0651 54.9065 9C54.9065 9 49.1303 10.1982 48.8378 15.324C45.4744 16.3226 40.1369 20.117 51.9087 34.2962L53.1517 30.3686C53.1517 30.3686 51.6162 30.2355 50.8851 29.2369C49.7152 27.6393 49.8614 24.3109 53.4441 25.5757C53.4441 25.5757 53.4441 25.5757 53.4441 25.5091C53.8097 26.2413 54.1753 27.1067 54.3947 27.9056C54.3947 27.9056 55.4183 29.3035 55.4183 28.8375C55.4183 28.5047 55.1258 25.9085 57.5387 23.9114C59.8053 24.3774 68.0675 25.8419 73.0395 22.3138C73.0395 22.3138 67.5557 23.7117 62.6569 23.1126C63.6074 23.046 64.631 23.046 65.7278 23.046C65.8009 23.046 78.9619 22.5801 74.3556 14.7249Z" fill="#0B1643"/>
<path d="M103.95 48.2016L101.524 49.9308C100.201 51.4038 99.3192 50.8274 99.3192 50.8274C99.2457 50.251 100.275 49.0342 100.495 48.778C98.5106 50.8914 97.702 50.315 97.702 50.315C96.9669 49.8027 98.5106 47.9455 98.8046 47.6253C96.1583 50.4431 96.0112 49.1623 96.0112 49.1623C95.7907 47.4331 98.8781 43.8468 99.6132 42.9502V43.0142C99.6132 43.0142 101.671 43.5906 101.671 44.8074C101.671 44.8074 103.73 45.3838 103.068 46.6006C103.142 46.6006 104.244 47.5612 103.95 48.2016Z" fill="#FC7474"/>
<path d="M47.3333 131.487C43.3 131.487 40 128.491 40 124.83V118.173H54.6667V124.83C54.6667 128.491 51.3667 131.487 47.3333 131.487Z" fill="#E1E9FE"/>
<path d="M35.896 226.68H44.5357C44.5357 226.68 49.0752 230.844 53.6147 231.836C58.1542 232.827 58.6667 235.999 58.6667 235.999H33.3333C33.3333 236.066 33.8459 230.844 35.896 226.68Z" fill="#4B4A5A"/>
<path d="M62.5626 226.68H71.2023C71.2023 226.68 75.7418 230.844 80.2813 231.836C84.8208 232.893 85.3333 235.999 85.3333 235.999H60C60 236.066 60.5125 230.844 62.5626 226.68Z" fill="#0C0C0E"/>
<path d="M62 46.9443C57.1294 44.5016 56 38.9561 56 38.9561C57.3412 41.7288 60.0235 42.389 62 43.2473C62 44.4356 62 45.69 62 46.9443Z" fill="#ED6969"/>
</svg>
