<svg width="243" height="240" viewBox="0 0 243 240" fill="none" xmlns="http://www.w3.org/2000/svg">
<ellipse cx="117.507" cy="108.75" rx="109.797" ry="108.75" fill="#E9EFFF"/>
<ellipse cx="121.431" cy="237.682" rx="120.949" ry="2.31818" fill="#EDD5E6"/>
<path d="M74.3456 35.659H160.944" stroke="#3DC1C6" stroke-width="2"/>
<path d="M168.379 49.6362H145.456V92.2499" stroke="#3DC1C6" stroke-width="2"/>
<ellipse cx="56.4476" cy="130.363" rx="19.4125" ry="19.2273" fill="#497DF9"/>
<path d="M183.455 56.7273V110.932V56.7273Z" fill="white"/>
<path d="M183.455 56.7273V110.932" stroke="#3DC1C6" stroke-width="2"/>
<path d="M58.3062 143.114H48.1181C46.3283 143.114 44.8827 141.682 44.8827 139.909V121.091H61.4728V139.909C61.5416 141.75 60.096 143.114 58.3062 143.114Z" fill="white"/>
<path d="M203.762 16.3635C191.027 8.65897 184.418 21.8181 183.179 24.6817C181.94 21.8181 175.332 8.65897 162.597 16.3635C151.858 22.909 152.202 46.4317 183.179 61.9771C214.157 46.3635 214.57 22.8408 203.762 16.3635Z" fill="#FF5F5F"/>
<path d="M47.7051 118.159H58.7193C60.9221 118.159 62.7807 119.932 62.7807 122.182V122.386H43.7125V122.182C43.7125 119.932 45.5023 118.159 47.7051 118.159Z" fill="#FF5F5F"/>
<path d="M69.4581 140.864C69.4581 141.477 69.2516 141.955 68.8385 142.364C68.4255 142.773 67.9436 142.977 67.3241 142.977H58.857C57.6867 142.977 56.723 142.023 56.723 140.864C56.723 140.25 56.9295 139.773 57.3425 139.364C57.7555 138.955 58.2374 138.75 58.857 138.75H67.3241C68.4943 138.75 69.4581 139.705 69.4581 140.864Z" fill="#FF5F5F"/>
<path d="M69.4581 140.864C69.4581 141.477 69.2516 141.955 68.8385 142.364C68.4255 142.773 67.9436 142.977 67.3241 142.977H63.0561V138.75H67.3241C68.4943 138.75 69.4581 139.705 69.4581 140.864Z" fill="white"/>
<rect x="47.2232" y="126.886" width="9.15552" height="11.5227" fill="#3DC1C6" stroke="white"/>
<ellipse cx="57.3425" cy="35.6589" rx="23.9558" ry="23.7273" fill="#497DF9"/>
<path fill-rule="evenodd" clip-rule="evenodd" d="M72.2804 24.6135L64.2263 20.318C64.5705 19.1589 65.1212 18.8862 65.1212 18.8862L63.1249 17.1816C61.1286 20.5907 61.6104 24.1362 62.23 26.318C62.9872 28.9771 63.1937 31.1589 63.0561 32.9998L60.1648 29.1816C61.0597 28.9771 61.6104 28.9089 61.6104 28.9089L61.3351 26.5907C54.7266 26.8635 51.56 31.1589 51.56 31.1589C47.2232 36.6135 49.8391 43.4316 49.8391 43.4316C50.5963 45.068 50.8028 46.6362 50.734 47.9998L47.8427 44.0453H49.013L48.4623 41.7271C48.4623 41.7271 44.1255 41.1816 40.6835 44.0453L42.4045 46.0226C42.4045 46.0226 42.5422 45.818 42.8175 45.5453L50.3898 52.4998L51.6289 53.7271C55.0708 50.8635 52.7991 44.318 52.7991 44.318C56.5164 44.0453 59.4076 42.6135 59.4076 42.6135C68.0813 37.1589 65.19 29.1816 65.19 29.1816C65.19 29.1135 65.19 29.0453 65.1212 28.9771C70.8348 30.068 74.4144 26.318 74.4144 26.318L72.2804 24.6135ZM50.3209 50.5907L43.9878 44.7953C44.5385 44.5907 45.2269 44.3862 46.0529 44.2498L50.4586 49.7044C50.4586 50.0453 50.3898 50.318 50.3209 50.5907ZM52.1107 42.068L52.1107 42.068C52.1107 42.068 54.107 42.068 56.4476 41.318L51.7665 40.2953C51.8354 40.8407 51.973 41.4543 52.1107 42.068L52.1107 42.068ZM58.4439 40.3635L51.6289 38.8635C51.6289 38.1135 51.6977 37.3635 51.7665 36.7498L59.1323 39.9544C58.9257 40.0907 58.7192 40.2271 58.4439 40.3635ZM52.1107 35.4544L60.3714 38.9316C60.4069 38.8964 60.4425 38.8657 60.4768 38.8361L60.4769 38.8361C60.5756 38.7509 60.6645 38.6743 60.7155 38.5225L53.1433 33.4089C52.7303 34.0225 52.3861 34.7044 52.1107 35.4544ZM61.6104 37.4316L54.1759 32.2498C54.5889 31.8407 55.0708 31.4316 55.5527 31.1589L61.9546 36.818C61.8858 36.9203 61.8342 37.0225 61.7825 37.1248C61.7309 37.2271 61.6793 37.3294 61.6104 37.4316ZM56.9294 30.2726L62.4365 35.7271L62.643 34.9089L58.2374 29.7271C57.8243 29.8635 57.3425 30.068 56.9294 30.2726ZM64.364 26.4544C64.2951 26.0453 64.2263 25.7044 64.1575 25.3635L69.7334 26.318C67.8748 26.8635 65.5342 26.5907 64.364 26.4544ZM63.951 24.2044L71.3167 25.6362C71.4544 25.568 71.592 25.4316 71.6609 25.2953L63.8821 21.818C63.8203 22.4302 63.8695 23.0974 63.93 23.9183C63.9369 24.0116 63.9439 24.1069 63.951 24.2044Z" fill="white"/>
<path d="M205.896 42.6137H202.523L201.284 46.4318L199.976 37.9773L197.016 51.8864L192.748 27.4773L188.962 42.6137H183.455L182.147 46.4318L180.013 37.5682L177.053 51.8864L172.372 27.4773L168.586 43.0227H160.944" stroke="white" stroke-width="2"/>
<ellipse cx="183.455" cy="127.364" rx="20.1697" ry="19.9773" fill="#497DF9"/>
<path d="M177.879 141.204H177.603C175.951 141.204 174.574 139.841 174.574 138.204V117.682H180.908V138.204C180.908 139.841 179.531 141.204 177.879 141.204Z" fill="white"/>
<path d="M177.81 139.704H177.603C176.502 139.704 175.607 138.818 175.607 137.727V124.159H179.875V137.727C179.806 138.818 178.911 139.704 177.81 139.704Z" fill="#FF5F5F"/>
<rect x="173.06" y="115.636" width="9.36204" height="3.20455" fill="white"/>
<path d="M189.306 141.204H189.031C187.378 141.204 186.002 139.841 186.002 138.204V117.682H192.335V138.204C192.335 139.841 190.958 141.204 189.306 141.204Z" fill="white"/>
<path d="M189.237 139.705H189.031C187.929 139.705 187.034 138.818 187.034 137.727V128.795H191.302V137.727C191.302 138.818 190.407 139.705 189.237 139.705Z" fill="#3DC1C6" stroke="white"/>
<rect x="184.487" y="115.636" width="9.36204" height="3.20455" fill="white"/>
<path d="M56.5164 110.932V56.7273" stroke="#3DC1C6" stroke-width="2"/>
<rect x="118.402" y="220.227" width="8.94901" height="6.81818" fill="#EF716B"/>
<path d="M118.022 222.955H128.797L132.858 157.289L131.864 107.727L108.077 110.776L112.884 162.214L118.022 222.955Z" fill="#0C0C0E"/>
<path d="M107.672 44.3183C107.186 43.3832 106.7 36.1365 106.7 36.1365L118.2 36.604L120.467 41.7469L107.672 44.3183Z" fill="#4B4A5A"/>
<rect x="90.8669" y="220.227" width="8.94901" height="6.81818" fill="#EF716B"/>
<path fill-rule="evenodd" clip-rule="evenodd" d="M118.074 40.4546C118.156 44.3282 118.32 47.7274 118.32 47.7274L107.388 43.1424C108.046 37.2135 110.183 26.6206 110.183 25.9092L118.402 30.0199C118.156 31.6799 118.074 34.4467 118.074 37.2926C118.074 38.3993 118.074 39.427 118.074 40.4546Z" fill="#EF716B"/>
<path fill-rule="evenodd" clip-rule="evenodd" d="M128.884 24.2731C128.884 24.2731 120.602 50.7726 109.615 28.7552C109.615 28.7552 105.052 18.297 111.643 12.3208C111.643 12.3208 120.686 8.2319 127.954 13.9721C127.954 13.8935 130.489 17.8252 128.884 24.2731Z" fill="#EF716B"/>
<path d="M128.04 64.0911L150.068 85.5841L148.572 87.9547L129.619 81.1591L128.04 64.0911Z" fill="#949FBF"/>
<path d="M118.402 111.136L111.579 158.591L101.089 222.955H89.4901L92.134 166.773L93.1574 111.136H118.402Z" fill="#4B4A5A"/>
<path d="M108.379 114.546H127.351L120.694 41.2875L119.197 38.8638C119.197 38.8638 115.119 47.5422 107.381 38.8638L104.635 41.2875L108.379 114.546Z" fill="#316398"/>
<path d="M115.649 142.5L86.7366 139.606L89.3805 118.41C90.2333 112.778 90.5745 106.599 90.8303 101.202C90.9156 97.9952 91.0009 94.9447 91.0009 92.52C91.0009 88.3746 90.9156 85.637 90.9156 85.637C90.5745 81.8826 90.3186 78.5976 90.148 75.7818C89.551 63.6583 90.4892 59.7475 90.8303 58.8871C90.9156 58.7307 90.9156 58.6524 90.9156 58.6524C91.9391 46.6072 103.538 38.8638 103.538 38.8638L113.005 66.3176L113.602 84.6202L113.772 89.7825L113.858 91.5032L114.114 99.4813L115.649 142.5Z" fill="#B3C6FE"/>
<path d="M124.512 142.5L122.361 55.5391L121.844 41.5911C121.844 41.5911 128.212 44.9417 130.363 54.5261C130.363 54.5261 132.514 66.0586 133.547 94.8898V142.422H124.512V142.5Z" fill="#B3C6FE"/>
<path d="M122.504 64.7727L118.402 37.5L122.504 41.5752V49.8041L124.598 51.2931L122.504 64.7727Z" fill="#E1E9FE"/>
<path d="M106.398 36.1365C106.904 36.604 112.895 66.1365 112.895 66.1365L104.035 53.6689L105.048 50.7858L99.8159 40.7339L106.398 36.1365Z" fill="#E1E9FE"/>
<path d="M136.668 10.8986C134.483 2.80394 117.757 0.0533051 113.975 4.21854C114.731 2.88252 116.244 1.23215 118.85 0.681953C118.85 0.681953 112.714 0.603431 111.117 5.79033C107.503 6.10469 101.2 8.77673 109.184 25.9092L111.454 22.2155C111.454 22.2155 109.941 21.744 109.52 20.5651C108.848 18.679 109.857 15.2997 113.051 17.343C113.051 17.343 113.051 17.343 113.135 17.2644C113.303 18.1289 113.471 19.0719 113.471 19.9364C113.471 19.9364 114.143 21.5868 114.227 21.1153C114.311 20.7223 114.731 18.0503 117.673 16.5571C119.774 17.5787 127.675 20.8795 133.559 18.4432C133.559 18.4432 127.759 18.679 122.968 16.95C123.893 17.1072 124.901 17.343 126.078 17.5787C125.994 17.4216 139.19 19.9364 136.668 10.8986Z" fill="#0B1643"/>
<path d="M103.277 126.818H102.55C98.7545 126.818 95.6856 123.923 95.6856 120.343V113.182H110.142V120.343C110.142 123.923 107.073 126.818 103.277 126.818Z" fill="#E1E9FE"/>
<path d="M90.6686 227.045H99.3236C99.3236 227.045 103.857 231.288 108.473 232.348C113.089 233.409 113.584 236.591 113.584 236.591H88.1133C88.1133 236.591 88.6903 231.288 90.6686 227.045Z" fill="#4B4A5A"/>
<path d="M118.826 227.045H127.506C127.506 227.045 132.053 231.288 136.682 232.348C141.229 233.409 141.807 236.591 141.807 236.591H116.346C116.263 236.591 116.759 231.288 118.826 227.045Z" fill="#0C0C0E"/>
<path d="M145.88 67.5L174.162 69.6241L147.538 87.9545H125.975L145.88 67.5Z" fill="#4B4A5A"/>
<path d="M113.584 99.3043L95.5097 102.213C93.7687 102.449 92.1105 101.977 90.8669 100.955C90.9498 97.7319 91.0327 94.6658 91.0327 92.2286L113.335 91.3638L113.584 99.3043Z" fill="#96A9E3"/>
<path fill-rule="evenodd" clip-rule="evenodd" d="M139.523 83.7122L131.666 86.0607C132.257 85.9091 136.735 85 139.185 85.2273C139.523 85.2273 139.523 85.6819 139.185 85.7576L131.666 87.1213C131.666 87.1213 134.369 86.7425 135.975 87.197C136.312 87.2728 136.312 87.7273 135.975 87.8031L127.273 89.394L125.33 89.7728L122.288 90.8334L120.683 91.3637L118.402 86.2122L123.556 85.0758L125.33 84.697L128.794 81.591L131.666 80.8334C132.004 80.7576 132.173 81.1364 132.004 81.2879L129.976 83.1061C130.23 82.9546 134.961 80.6819 136.904 80.4546C137.157 80.4546 137.242 80.6819 137.073 80.8334L131.159 85.1516C131.497 85 136.988 82.5758 139.692 83.2576C139.776 83.1819 139.776 83.5607 139.523 83.7122Z" fill="#EF716B"/>
<path d="M113.584 89.82L99.1275 90.6818L100.632 47.2015C100.632 47.2015 105.227 42.8926 104.726 79.5571C104.726 81.829 106.147 85.6678 113.333 84.6494L113.584 89.82Z" fill="#96A9E3"/>
<path d="M114.095 99.5454L123.221 97.5074L123.05 92.0454L113.584 93.5943L114.095 99.5454Z" fill="#2D587F"/>
<path d="M126.663 89.9292L124.958 90.3276L122.289 91.3637L121.844 85.8648L123.475 85.2273L126.663 89.9292Z" fill="#ED6969"/>
<path fill-rule="evenodd" clip-rule="evenodd" d="M144.352 88.1683C144.352 88.1683 146.62 90.469 148.364 89.9137C148.364 89.9137 153.51 88.4857 153.51 85.233L150.37 81.9009C150.196 81.7422 149.847 81.8216 149.847 82.0596C149.847 82.6943 150.021 83.8843 151.155 85.233L147.405 82.2976C147.23 82.1389 146.968 82.2976 146.968 82.4562C146.968 83.2496 147.317 84.9156 149.411 86.8196L145.05 83.8843C144.875 83.7256 144.614 83.8843 144.614 84.1223C144.614 84.9156 145.137 86.5816 147.666 88.4857L144.352 86.5023C144.177 86.423 144.003 86.5023 143.916 86.661C143.829 87.0576 143.829 87.6923 144.352 88.1683Z" fill="#EF716B"/>
<path d="M94.8016 47.9382C94.8016 47.9382 102.307 40.4832 103.403 52.6753C103.403 52.6753 103.656 62.46 102.56 78.9232C102.56 78.9232 102.56 88.475 114.619 85.291L123.221 83.7379V93.2897L98.4278 98.5703C98.4278 98.5703 91.5127 101.211 89.8261 90.6494C89.9104 90.6494 85.3566 58.8101 94.8016 47.9382Z" fill="#BEC0F0"/>
<path d="M118.402 40.2273C112.566 36.2799 112.207 32.7273 112.207 32.7273C113.913 35.0957 116.517 36.4378 118.402 37.0694C118.402 38.1747 118.402 39.201 118.402 40.2273Z" fill="#ED6969"/>
</svg>
