<svg width="242" height="240" viewBox="0 0 242 240" fill="none" xmlns="http://www.w3.org/2000/svg">
<ellipse cx="123.862" cy="114.162" rx="109.616" ry="109.734" fill="#E9EFFF"/>
<ellipse cx="121.195" cy="236.66" rx="120.74" ry="2.34445" fill="#EDD5E6"/>
<path fill-rule="evenodd" clip-rule="evenodd" d="M184.883 184.235H114.82C107.469 184.235 101.484 178.244 101.484 170.885V70.399C101.484 63.04 107.469 57.0486 114.82 57.0486H184.883C192.234 57.0486 198.219 63.04 198.219 70.399V170.885C198.219 178.244 192.234 184.235 184.883 184.235Z" fill="#497DF9"/>
<path d="M110.201 59.1975L195.682 63.4957L192.624 178.634L106.688 179.807L110.201 59.1975Z" fill="#D8D8D8"/>
<path d="M106.688 61.9329L192.624 66.1659L187.94 179.807L104.411 175.509L106.688 61.9329Z" fill="white"/>
<path fill-rule="evenodd" clip-rule="evenodd" d="M156.454 47.0846C156.454 47.4103 156.454 47.6707 156.519 47.9312C158.841 62.7326 167.876 64.2647 168.859 64.3424H128.546C139.02 62.6492 141.687 53.7924 142.338 49.0383C142.468 48.5174 142.468 47.9964 142.403 47.4103V47.0846C142.403 43.1772 145.59 40.0513 149.429 40.0513C153.332 40.0513 156.454 43.2423 156.454 47.0846ZM168.945 64.3424C168.953 64.3464 168.923 64.3475 168.859 64.3424H168.945ZM146.176 46.3683C146.176 48.1917 147.672 49.6896 149.494 49.6896C151.315 49.6896 152.746 48.1917 152.811 46.3683C152.811 44.5448 151.315 43.047 149.494 43.047C147.672 43.047 146.176 44.5448 146.176 46.3683Z" fill="#133A65"/>
<path fill-rule="evenodd" clip-rule="evenodd" d="M125.163 96.7089L113.584 96.0577L114.169 85.3123L125.749 85.9635L125.163 96.7089ZM114.755 95.0808L124.123 95.6018L124.578 87.0706L115.21 86.5496L114.755 95.0808Z" fill="#497DF9"/>
<path d="M129.034 88.4471L129.069 87.7967L185.521 90.8199L185.486 91.4702L129.034 88.4471Z" fill="black"/>
<path d="M128.828 91.8096L128.863 91.1593L185.315 94.1824L185.28 94.8327L128.828 91.8096Z" fill="black"/>
<path d="M128.69 95.1104L128.725 94.4601L185.178 97.4832L185.143 98.1335L128.69 95.1104Z" fill="black"/>
<path fill-rule="evenodd" clip-rule="evenodd" d="M123.862 121L112.283 120.349L112.868 109.603L124.448 110.255L123.862 121ZM113.454 119.307L122.822 119.828L123.277 111.296L113.909 110.775L113.454 119.307Z" fill="#497DF9"/>
<path d="M127.758 112.723L127.792 112.073L184.245 115.096L184.21 115.746L127.758 112.723Z" fill="black"/>
<path d="M127.552 116.085L127.587 115.435L184.039 118.458L184.004 119.109L127.552 116.085Z" fill="black"/>
<path d="M127.349 119.383L127.384 118.733L183.837 121.756L183.802 122.406L127.349 119.383Z" fill="black"/>
<path fill-rule="evenodd" clip-rule="evenodd" d="M122.561 145.291L110.982 144.64L111.567 133.895L123.147 134.546L122.561 145.291ZM112.153 143.598L121.52 144.119L121.976 135.588L112.608 135.067L112.153 143.598Z" fill="#497DF9"/>
<path d="M126.417 136.996L126.451 136.345L182.904 139.368L182.869 140.019L126.417 136.996Z" fill="black"/>
<path d="M126.276 140.361L126.31 139.711L182.763 142.734L182.728 143.384L126.276 140.361Z" fill="black"/>
<path d="M126.073 143.659L126.108 143.009L182.561 146.032L182.526 146.682L126.073 143.659Z" fill="black"/>
<path fill-rule="evenodd" clip-rule="evenodd" d="M121.455 166.196L109.876 165.545L110.461 154.799L122.041 155.451L121.455 166.196ZM111.047 164.503L120.415 165.024L120.87 156.493L111.502 155.972L111.047 164.503Z" fill="#497DF9"/>
<path d="M125.346 157.909L125.381 157.259L181.834 160.282L181.799 160.932L125.346 157.909Z" fill="black"/>
<path d="M125.14 161.272L125.175 160.621L181.628 163.644L181.593 164.295L125.14 161.272Z" fill="black"/>
<path d="M125.206 164.575L125.241 163.924L160.386 165.806L160.351 166.457L125.206 164.575Z" fill="black"/>
<path d="M126.725 84.8564C126.074 84.2702 125.098 84.3354 124.513 84.9866L118.788 91.3036L115.34 88.8289C114.625 88.3079 113.649 88.5033 113.129 89.2197C112.608 89.936 112.803 90.9129 113.519 91.4339L117.552 94.2993C117.617 94.4296 117.747 94.6249 117.877 94.7552C118.528 95.3413 119.504 95.2762 120.089 94.6249L126.855 87.1357C127.44 86.4193 127.375 85.4425 126.725 84.8564Z" fill="#133A65"/>
<path d="M125.424 109.213C124.773 108.626 123.797 108.692 123.212 109.343L117.487 115.66L114.039 113.185C113.324 112.664 112.348 112.859 111.827 113.576C111.307 114.292 111.502 115.269 112.218 115.79L116.251 118.656C116.316 118.786 116.446 118.981 116.576 119.111C117.227 119.697 118.203 119.632 118.788 118.981L125.554 111.492C126.139 110.776 126.074 109.799 125.424 109.213Z" fill="#133A65"/>
<path d="M125.424 133.309C124.773 132.722 123.797 132.788 123.212 133.439L117.487 139.756L114.039 137.281C113.324 136.76 112.348 136.955 111.827 137.672C111.307 138.388 111.502 139.365 112.218 139.886L116.251 142.751C116.316 142.882 116.446 143.077 116.576 143.207C117.227 143.793 118.203 143.728 118.788 143.077L125.554 135.588C126.139 134.937 126.074 133.895 125.424 133.309Z" fill="#133A65"/>
<path d="M123.017 154.669C122.366 154.083 121.39 154.148 120.805 154.799L115.08 161.116L111.632 158.642C110.917 158.121 109.941 158.316 109.42 159.032C108.9 159.749 109.095 160.726 109.811 161.247L113.844 164.112C113.909 164.242 114.039 164.438 114.169 164.568C114.82 165.154 115.796 165.089 116.381 164.438L123.147 156.948C123.732 156.232 123.667 155.255 123.017 154.669Z" fill="#133A65"/>
<path d="M208.367 100.551C193.99 91.7592 186.509 106.738 185.078 110.059C183.647 106.803 176.166 91.7592 161.789 100.551C149.624 108.04 150.014 134.936 185.078 152.715C220.142 134.936 220.532 108.04 208.367 100.551Z" fill="#FF5F5F"/>
<path d="M200.626 143.728L195.812 115.595L191.909 131.094H185.663L183.777 136.695L181.5 127.056L178.052 143.663L172.783 115.529L168.88 131.55H159.837V130.638H168.099L172.848 111.101L178.117 138.779L181.435 122.693L183.972 133.243L184.948 130.117H191.193L195.942 111.036L200.756 138.713L204.139 122.693L205.635 132.917L206.611 130.117H210.774V131.094H207.261L205.31 136.955L203.944 127.968L200.626 143.728Z" fill="white"/>
<rect x="78.4548" y="219.662" width="7.22097" height="6.25188" fill="#EF716B"/>
<rect x="51.5876" y="219.662" width="7.22097" height="6.25188" fill="#EF716B"/>
<path d="M75.2672 123.605L69.4669 165.48L60.4211 222.333H50.5468L52.8255 172.708L53.7231 123.605H75.2672Z" fill="#0C0C0E"/>
<path d="M76.8935 222.332H86.7962L90.5548 164.568L89.6152 120.935L67.786 123.605L72.1952 168.866L76.8935 222.332Z" fill="#4B4A5A"/>
<path d="M51.5876 225.979H58.8086C58.8086 225.979 62.6468 229.822 66.4199 230.799C70.2581 231.776 70.6484 234.641 70.6484 234.641H49.4409C49.5059 234.641 49.8962 229.822 51.5876 225.979Z" fill="#0C0C0E"/>
<path d="M78.4548 225.979H85.6758C85.6758 225.979 89.514 229.822 93.2871 230.799C97.1253 231.776 97.5156 234.641 97.5156 234.641H76.3081C76.3731 234.641 76.7634 229.822 78.4548 225.979Z" fill="#4B4A5A"/>
<path d="M153.462 1.43268L148.127 7.42406C147.282 8.40092 147.347 9.89877 148.323 10.7454C149.298 11.592 150.795 11.5269 151.64 10.55L156.975 4.55862C157.82 3.58176 157.755 2.08392 156.78 1.23731C155.804 0.390699 154.308 0.455823 153.462 1.43268Z" fill="#3DC1C6"/>
<path d="M153.137 19.6023C153.137 29.6965 145.005 37.837 134.922 37.837C124.838 37.837 116.706 29.6965 116.706 19.6023C116.706 9.50814 124.838 1.36768 134.922 1.36768C139.605 1.36768 143.964 3.19114 147.152 6.12171C149.233 8.0103 150.925 10.4199 151.901 13.1551C152.746 15.1088 153.137 17.323 153.137 19.6023Z" fill="#2C4480"/>
<path d="M150.274 19.7326C150.274 28.2638 143.313 35.2321 134.791 35.2321C126.269 35.2321 119.309 28.2638 119.309 19.7326C119.309 11.1363 126.269 4.23315 134.791 4.23315C138.89 4.23315 142.533 5.79612 145.33 8.40107C147.477 10.3548 149.038 12.9597 149.754 15.8252C150.144 16.9974 150.274 18.365 150.274 19.7326Z" fill="#F2F2F2"/>
<path fill-rule="evenodd" clip-rule="evenodd" d="M149.819 15.76L138.955 29.1104C137.524 30.8688 134.987 31.0641 133.425 29.436C133.1 29.1104 122.756 20.449 122.756 20.449C121 19.0814 120.61 16.3462 121.846 14.3924C123.082 12.4387 125.554 11.9177 127.31 13.3505L135.832 20.0582L145.395 8.33594C147.477 10.2896 149.038 12.8946 149.819 15.76Z" fill="#497DF9"/>
<path d="M123.099 36.8784L125.916 38.5065L114.824 57.7379L112.007 56.1099L123.099 36.8784Z" fill="#2C4480"/>
<path d="M125.815 33.6372L127.448 34.5815L122.797 42.6463L121.163 41.702L125.815 33.6372Z" fill="#2C4480"/>
<path fill-rule="evenodd" clip-rule="evenodd" d="M75.3973 34.4504C75.1371 34.5156 74.9419 34.5156 74.9419 34.5156V42.9817L64.7935 43.5678V30.543L63.1021 19.7976L81.1871 20.3837C82.0978 31.8455 77.0236 34.0597 75.3973 34.4504Z" fill="#EF716B"/>
<path fill-rule="evenodd" clip-rule="evenodd" d="M124.838 45.7169C124.643 46.5635 124.578 49.2987 124.578 49.2987C124.448 50.0151 123.992 50.6663 123.342 51.0571L122.496 51.8386L121.716 57.9602L121.195 62.3235L121.065 63.1701L115.666 59.1324L116.316 57.3089L116.381 57.1787L118.528 51.1222L117.617 46.8891L119.178 43.3073C119.309 42.9817 119.829 42.9817 119.959 43.3725C120.089 43.8283 120.219 44.6749 119.959 45.9774L120.219 48.5824L123.992 41.4839C124.188 41.1583 124.643 41.2234 124.708 41.6141C124.838 42.7864 125.033 44.7401 124.838 45.7169Z" fill="#EF716B"/>
<path d="M121.716 57.9602L121.13 62.3235L116.251 57.309L116.121 57.1787H116.316L121.716 57.9602Z" fill="#ED6969"/>
<path d="M76.9586 43.1119L75.5274 39.3347H63.2973L62.5817 43.1119H76.9586Z" fill="#E1E9FE"/>
<path fill-rule="evenodd" clip-rule="evenodd" d="M109.681 69.7476L115.601 56.788L124.058 62.9096L117.942 74.697C115.861 79.8418 112.413 86.2891 109.225 85.6378C109.193 85.6378 109.144 85.6215 109.095 85.6053C109.046 85.589 108.998 85.5727 108.965 85.5727C104.737 84.14 92.9618 70.0081 92.9618 70.0081C92.9618 70.0081 92.8968 92.1502 92.8317 123.54C92.7854 129.195 92.7391 131.518 92.6693 135.018C92.6411 136.434 92.609 138.044 92.5715 140.146C92.5048 143.283 92.4211 142.897 92.3202 142.433C92.2243 141.991 92.1129 141.477 91.986 143.858C91.986 143.858 62.7769 147.636 49.571 142.947C49.571 142.947 48.7903 139.43 49.5059 113.446C45.5376 111.557 41.0489 108.366 38.2516 102.961C37.6011 101.723 37.2758 100.356 37.2758 98.9882C37.1457 89.6104 38.4468 48.5173 60.6952 43.1771C61.1505 42.6562 61.6059 42.2654 62.0613 41.9398C62.0613 41.9398 66.8102 41.4188 78.7801 42.1352C89.6752 42.7975 98.5963 55.5259 104.164 63.4704C106.808 67.2427 108.696 69.9363 109.681 69.7476ZM50.0914 85.5727C48.7253 89.415 46.9688 95.6669 49.9613 101.072C50.2865 94.8203 50.6769 88.5684 51.1973 82.5119C50.7419 83.6841 50.3516 84.7912 50.0914 85.5727Z" fill="#B3C6FE"/>
<path d="M78.5849 21.2304C78.5849 21.2304 72.9253 21.8165 77.479 27.4823C77.479 27.4823 75.2021 36.5345 64.7285 32.3014C64.7285 32.3014 62.7769 30.3477 62.1914 25.2029C62.1914 25.2029 54.8403 11.5921 67.8511 6.51242C67.8511 6.51242 81.4473 2.53988 85.3505 10.485C89.3188 18.4301 80.2763 20.6443 78.5849 21.2304Z" fill="#0B1643"/>
<path d="M51.1323 86.0935C51.4575 83.0978 51.0022 82.9676 51.9129 80.1021C52.8887 77.1716 54.2548 73.4595 55.7511 71.4407L49.3758 139.495V120.935C49.3758 120.935 49.636 99.7695 51.1323 86.0935Z" fill="#96A9E3"/>
<path d="M109.29 85.6376C109.225 85.6376 109.095 85.5725 109.03 85.5725C104.802 84.1398 93.0269 70.0079 93.0269 70.0079C93.0269 70.0079 92.9618 92.2151 92.8968 123.54C92.8968 131.485 92.8317 132.917 92.6366 140.146L89.1887 62.9094C92.3764 67.6635 105.712 83.228 109.29 85.6376Z" fill="#96A9E3"/>
<path d="M74.9419 34.6459V38.9441C70.6484 37.6416 67.9812 34.5808 67.9812 34.5808C71.2989 35.753 73.9011 35.0367 74.9419 34.6459Z" fill="#ED6969"/>
</svg>
