<svg width="28" height="28" viewBox="0 0 28 28" fill="none" xmlns="http://www.w3.org/2000/svg">
<path fill-rule="evenodd" clip-rule="evenodd" d="M14 3C9.60238 3 6.02466 6.57423 6.02466 10.9675C6.02466 16.4197 13.1618 24.4239 13.4657 24.762C13.7511 25.0796 14.2494 25.079 14.5343 24.762C14.8382 24.4239 21.9754 16.4197 21.9754 10.9675C21.9753 6.57423 18.3976 3 14 3ZM14 14.9762C11.7875 14.9762 9.98745 13.1779 9.98745 10.9675C9.98745 8.75712 11.7875 6.95888 14 6.95888C16.2125 6.95888 18.0125 8.75717 18.0125 10.9676C18.0125 13.178 16.2125 14.9762 14 14.9762Z" fill="#5A5987"/>
</svg>
