<svg width="56" height="56" viewBox="0 0 56 56" fill="none" xmlns="http://www.w3.org/2000/svg">
<path fill-rule="evenodd" clip-rule="evenodd" d="M21.0931 27.5305H24.3117V50.0608H6.60931V27.5305H9.82793V25.9211H5V51.6701H25.921V25.9211H21.0931V27.5305Z" fill="white"/>
<path fill-rule="evenodd" clip-rule="evenodd" d="M37.9908 11.4372C40.2093 11.4372 42.0141 13.2421 42.0141 15.4605V18.6791C42.0141 20.01 43.0972 21.0931 44.4281 21.0931C44.8715 21.0931 45.2327 20.7318 45.2327 20.2884V12.2419C45.2327 8.2492 41.9835 5 37.9908 5H36.2439C35.2043 5 34.2162 5.33554 33.4043 5.95593C33.764 6.63184 33.9676 7.4019 33.9676 8.21862H32.3583C32.3583 6.44436 30.9147 5.0008 29.1404 5C29.1396 5 29.1396 5 29.1396 5C28.3028 5 27.5014 5.34117 26.8818 5.96076C26.2614 6.58034 25.921 7.38258 25.921 8.21943C25.9218 9.99369 27.3654 11.4372 29.1396 11.4372H37.9908Z" fill="white"/>
<path fill-rule="evenodd" clip-rule="evenodd" d="M8.21863 48.4514H22.7024V29.1396H8.21863V48.4514ZM13.0466 46.8421H11.4372V45.2328H13.0466V46.8421ZM16.2652 46.8421H14.6559V45.2328H16.2652V46.8421ZM19.4838 46.8421H17.8745V45.2328H19.4838V46.8421ZM17.8745 32.3583H21.0931V33.9676H17.8745V32.3583ZM17.8745 35.5769H21.0931V37.1862H17.8745V35.5769ZM17.8745 38.7955H21.0931V40.4048H17.8745V38.7955ZM10.6326 31.5536H15.4605V36.3815H10.6326V31.5536ZM9.82794 38.7955H16.2652V40.4048H9.82794V38.7955ZM9.82794 42.0141H21.0931V43.6234H9.82794V42.0141Z" fill="white"/>
<path fill-rule="evenodd" clip-rule="evenodd" d="M46.509 28.9949L45.3439 28.6457C44.3147 28.3367 43.6235 27.4073 43.6235 26.3331V22.6212C41.7897 22.2471 40.4049 20.6225 40.4049 18.6792V15.4606C40.4049 14.1297 39.3218 13.0466 37.9909 13.0466H30.749V17.3773L32.3583 18.1819V21.0932H32.4959C33.7488 21.0932 34.9268 20.6056 35.8127 19.7196L36.9505 20.8574C35.7636 22.0443 34.1857 22.6993 32.5064 22.7017C32.8395 23.6367 33.7246 24.3118 34.7723 24.3118H38.7956V25.9211H36.9618L36.6608 26.8231C36.3687 27.7002 35.5874 28.3407 34.6701 28.455L32.6271 28.71C30.7249 28.9474 28.9305 29.7971 27.5304 31.1015V34.5229C27.8893 33.8059 28.3576 33.1413 28.9345 32.5635L29.0415 32.4565C30.1351 31.363 31.6172 30.749 33.163 30.749C34.7087 30.749 36.1909 31.363 37.2836 32.4557L37.9909 33.163L38.6982 32.4557C39.7909 31.363 41.2731 30.749 42.8188 30.749C44.3646 30.749 45.8468 31.363 46.9395 32.4557L47.0465 32.5627C48.4611 33.9773 49.2561 35.8964 49.2561 37.8968C49.2561 38.4786 49.1788 39.0483 49.0461 39.6003H44.9729L42.9001 34.4191L38.8382 42.5437L35.6832 35.445L33.4269 39.206L32.1604 34.7723H27.5304V36.3816H30.947L32.8991 43.214L35.4707 38.9284L38.7529 46.3135L42.7376 38.345L43.8834 41.2096H48.4748C47.8785 42.4262 46.9676 43.4851 45.792 44.2407L37.9909 49.2561L30.1898 44.2407C29.0303 43.4948 28.1274 42.4552 27.5304 41.2595V51.6701H51.6701V35.931C51.6701 32.7084 49.5956 29.9211 46.509 28.9949Z" fill="white"/>
<path fill-rule="evenodd" clip-rule="evenodd" d="M19.4838 25.1164C19.4838 24.6731 19.1225 24.3118 18.6792 24.3118H12.2419C11.7985 24.3118 11.4373 24.6731 11.4373 25.1164V27.5304H19.4838V25.1164Z" fill="white"/>
</svg>
