<svg width="28" height="28" viewBox="0 0 28 28" fill="none" xmlns="http://www.w3.org/2000/svg">
<path fill-rule="evenodd" clip-rule="evenodd" d="M21.6058 5.71842C19.8528 3.96542 17.5221 3 15.043 3C12.5639 3 10.2332 3.96542 8.48016 5.71842C6.74641 7.45216 5.78306 9.75078 5.76209 12.1994L4.07926 15.565C3.99891 15.7257 4.05584 15.9211 4.20984 16.0135L5.7617 16.9446V21.9062C5.7617 22.0961 5.91561 22.25 6.10545 22.25H9.1992V24.6562C9.1992 24.8461 9.35311 25 9.54295 25H20.5429C20.7328 25 20.8867 24.8461 20.8867 24.6562V19.4919C23.0735 17.7191 24.3242 15.1007 24.3242 12.2812C24.3242 9.80212 23.3588 7.47141 21.6058 5.71842Z" fill="#E9EFFE"/>
<path fill-rule="evenodd" clip-rule="evenodd" d="M21.5743 13.3125C21.1261 13.3125 20.7441 13.6 20.6021 14H18.8243V12.0799L20.0987 10.8055C20.2333 10.87 20.384 10.9062 20.543 10.9062C21.1116 10.9062 21.5743 10.4436 21.5743 9.875C21.5743 9.30635 21.1116 8.84375 20.543 8.84375C19.9744 8.84375 19.5118 9.30635 19.5118 9.875C19.5118 10.034 19.548 10.1847 19.6125 10.3193L18.2374 11.6945C18.1729 11.7589 18.1367 11.8464 18.1367 11.9375V19.8438C18.1367 20.0336 18.2906 20.1875 18.4805 20.1875C18.6703 20.1875 18.8242 20.0336 18.8242 19.8438V14.6875H20.6021C20.744 15.0876 21.1261 15.375 21.5742 15.375C22.1428 15.375 22.6055 14.9124 22.6055 14.3438C22.6055 13.7751 22.1429 13.3125 21.5743 13.3125Z" fill="#EF716B"/>
<path fill-rule="evenodd" clip-rule="evenodd" d="M19.168 6.09375C18.5994 6.09375 18.1368 6.55635 18.1368 7.125C18.1368 7.28403 18.173 7.43472 18.2375 7.56934L15.4874 10.3195C15.4229 10.3839 15.3867 10.4714 15.3867 10.5625V18.4688C15.3867 18.6586 15.5406 18.8125 15.7305 18.8125C15.9203 18.8125 16.0742 18.6586 16.0742 18.4688V10.7049L18.7236 8.05545C18.8583 8.11998 19.0089 8.15621 19.168 8.15621C19.7366 8.15621 20.1992 7.69361 20.1992 7.12496C20.1992 6.55631 19.7366 6.09375 19.168 6.09375Z" fill="#EF716B"/>
<path fill-rule="evenodd" clip-rule="evenodd" d="M16.6611 6.88197L15.6297 5.85059C15.6943 5.71597 15.7304 5.56528 15.7304 5.40625C15.7304 4.8376 15.2678 4.375 14.6992 4.375C14.1306 4.375 13.6679 4.8376 13.6679 5.40625C13.6679 5.9749 14.1306 6.4375 14.6992 6.4375C14.8582 6.4375 15.0089 6.40128 15.1435 6.33674L15.9319 7.12504L12.7375 10.3195C12.673 10.3839 12.6368 10.4714 12.6368 10.5625V22.5938C12.6368 22.7836 12.7907 22.9375 12.9805 22.9375C13.1704 22.9375 13.3243 22.7836 13.3243 22.5938V10.7049L16.6611 7.36812C16.7953 7.23388 16.7953 7.0162 16.6611 6.88197Z" fill="#497DF9"/>
<path fill-rule="evenodd" clip-rule="evenodd" d="M15.7305 23.625C15.5407 23.625 15.3868 23.4711 15.3868 23.2812V20.0156C15.3868 19.8258 15.5407 19.6719 15.7305 19.6719C15.9204 19.6719 16.0743 19.8258 16.0743 20.0156V23.2812C16.0743 23.4711 15.9204 23.625 15.7305 23.625Z" fill="#EF716B"/>
<path fill-rule="evenodd" clip-rule="evenodd" d="M11.4818 13.7359L10.1662 12.6396C10.2077 12.5279 10.2305 12.4072 10.2305 12.2812C10.2305 11.7126 9.76787 11.25 9.19922 11.25C8.63057 11.25 8.16797 11.7126 8.16797 12.2812C8.16797 12.8499 8.63057 13.3125 9.19922 13.3125C9.39146 13.3125 9.5715 13.2595 9.72576 13.1675L10.918 14.161V20.875C10.918 21.0648 11.0719 21.2188 11.2617 21.2188C11.4516 21.2188 11.6055 21.0648 11.6055 20.875V14C11.6055 13.898 11.5602 13.8012 11.4818 13.7359Z" fill="#EF716B"/>
<path fill-rule="evenodd" clip-rule="evenodd" d="M14.3555 22.9375C14.1657 22.9375 14.0118 22.7836 14.0118 22.5938V14.6875C14.0118 14.4977 14.1657 14.3438 14.3555 14.3438C14.5454 14.3438 14.6993 14.4977 14.6993 14.6875V22.5938C14.6993 22.7836 14.5454 22.9375 14.3555 22.9375Z" fill="#EF716B"/>
<path fill-rule="evenodd" clip-rule="evenodd" d="M14.3555 12.9688C14.1657 12.9688 14.0118 12.8148 14.0118 12.625V11.5938C14.0118 11.4039 14.1657 11.25 14.3555 11.25C14.5454 11.25 14.6993 11.4039 14.6993 11.5938V12.625C14.6993 12.8148 14.5454 12.9688 14.3555 12.9688Z" fill="#EF716B"/>
<path fill-rule="evenodd" clip-rule="evenodd" d="M17.1055 22.5938C16.9157 22.5938 16.7618 22.4398 16.7618 22.25V14C16.7618 13.8102 16.9157 13.6562 17.1055 13.6562C17.2954 13.6562 17.4493 13.8102 17.4493 14V22.25C17.4493 22.4398 17.2954 22.5938 17.1055 22.5938Z" fill="#497DF9"/>
<path fill-rule="evenodd" clip-rule="evenodd" d="M17.1055 12.625C16.9157 12.625 16.7618 12.4711 16.7618 12.2812V10.9062C16.7618 10.7164 16.9157 10.5625 17.1055 10.5625C17.2954 10.5625 17.4493 10.7164 17.4493 10.9062V12.2812C17.4493 12.4711 17.2954 12.625 17.1055 12.625Z" fill="#497DF9"/>
<path fill-rule="evenodd" clip-rule="evenodd" d="M11.9493 12.2812C11.8613 12.2812 11.7733 12.2476 11.7062 12.1805L10.3312 10.8055C10.1969 10.6713 10.1969 10.4537 10.3312 10.3194L12.7374 7.91318C12.8717 7.77894 13.0893 7.77894 13.2235 7.91318C13.3578 8.04741 13.3578 8.26505 13.2235 8.39928L11.0604 10.5625L12.1923 11.6944C12.4039 11.906 12.2498 12.2812 11.9493 12.2812Z" fill="#497DF9"/>
<path d="M20.8868 9.875C20.8868 9.68546 20.7326 9.53125 20.543 9.53125C20.3535 9.53125 20.1993 9.68546 20.1993 9.875C20.1993 10.0645 20.3535 10.2188 20.543 10.2188C20.7326 10.2188 20.8868 10.0645 20.8868 9.875Z" fill="#CC8FC8"/>
<path d="M21.5743 14C21.3847 14 21.2305 14.1542 21.2305 14.3438C21.2305 14.5333 21.3847 14.6875 21.5743 14.6875C21.7638 14.6875 21.918 14.5333 21.918 14.3438C21.918 14.1542 21.7638 14 21.5743 14Z" fill="#CC8FC8"/>
<path d="M19.5118 7.125C19.5118 6.93546 19.3576 6.78125 19.168 6.78125C18.9785 6.78125 18.8243 6.93546 18.8243 7.125C18.8243 7.31454 18.9785 7.46875 19.168 7.46875C19.3576 7.46875 19.5118 7.31454 19.5118 7.125Z" fill="#CC8FC8"/>
<path d="M14.6993 5.75C14.5097 5.75 14.3555 5.59579 14.3555 5.40625C14.3555 5.21671 14.5097 5.0625 14.6993 5.0625C14.8888 5.0625 15.043 5.21671 15.043 5.40625C15.043 5.59579 14.8888 5.75 14.6993 5.75Z" fill="#CC8FC8"/>
<path d="M9.19928 11.9375C9.00974 11.9375 8.85553 12.0917 8.85553 12.2812C8.85553 12.4708 9.00974 12.625 9.19928 12.625C9.38881 12.625 9.54303 12.4708 9.54303 12.2812C9.54303 12.0917 9.38881 11.9375 9.19928 11.9375Z" fill="#CC8FC8"/>
</svg>
