<svg width="14" height="14" viewBox="0 0 14 14" fill="none" xmlns="http://www.w3.org/2000/svg">
<path fill-rule="evenodd" clip-rule="evenodd" d="M10.9375 4.375H7.4375V3.5H6.5625V4.375H3.0625C2.338 4.375 1.75 4.963 1.75 5.6875V7H12.25V5.6875C12.25 4.963 11.662 4.375 10.9375 4.375Z" fill="#497DF9"/>
<path fill-rule="evenodd" clip-rule="evenodd" d="M13.125 7.875H0.875C0.392 7.875 0 8.267 0 8.75V9.625C0 10.5919 0.783125 11.375 1.75 11.375C2.71688 11.375 3.5 10.5919 3.5 9.625C3.5 10.5919 4.28312 11.375 5.25 11.375C6.21688 11.375 7 10.5919 7 9.625C7 10.5919 7.78312 11.375 8.75 11.375C9.71688 11.375 10.5 10.5919 10.5 9.625C10.5 10.5919 11.2831 11.375 12.25 11.375C13.2169 11.375 14 10.5919 14 9.625V8.75C14 8.267 13.608 7.875 13.125 7.875Z" fill="#497DF9"/>
<path fill-rule="evenodd" clip-rule="evenodd" d="M12.25 12.25C11.578 12.25 10.9646 11.9963 10.5 11.5798C10.0354 11.9963 9.422 12.25 8.75 12.25C8.078 12.25 7.46462 11.9963 7 11.5798C6.53538 11.9963 5.922 12.25 5.25 12.25C4.578 12.25 3.96462 11.9963 3.5 11.5798C3.03538 11.9963 2.422 12.25 1.75 12.25C1.07538 12.25 0.4655 11.9866 0 11.5675V13.125C0 13.608 0.392 14 0.875 14H13.125C13.608 14 14 13.608 14 13.125V11.5675C13.5345 11.9875 12.9246 12.25 12.25 12.25Z" fill="#497DF9"/>
<path fill-rule="evenodd" clip-rule="evenodd" d="M7 0C7 0 6.125 1.267 6.125 1.75C6.125 2.233 6.517 2.625 7 2.625C7.483 2.625 7.875 2.233 7.875 1.75C7.875 1.267 7 0 7 0Z" fill="#497DF9"/>
</svg>
