<svg width="277" height="160" viewBox="0 0 277 160" fill="none" xmlns="http://www.w3.org/2000/svg">
<rect x="39" y="61" width="51" height="4" rx="2" fill="#BCD0FF"/>
<path d="M78.9265 86.6579C76.8152 84.5398 76.8152 81.0934 78.9265 78.9763L130.448 27.2867C131.269 26.4628 131.269 25.1268 130.448 24.3039C129.627 23.4789 128.295 23.48 127.475 24.3039L75.9523 75.9935C72.2028 79.7552 72.2028 85.8779 75.9523 89.6407L88.9298 102.66C89.3394 103.07 89.8781 103.277 90.4158 103.277C90.9546 103.277 91.4922 103.072 91.9029 102.66C92.7242 101.836 92.7242 100.5 91.9029 99.6767L78.9265 86.6579Z" fill="#6A96FF"/>
<path d="M120.258 50.0078L88.4425 81.9275C87.6212 82.7514 87.6212 84.0874 88.4425 84.9113C88.8532 85.3222 89.3908 85.5288 89.9296 85.5288C90.4673 85.5288 91.0049 85.3233 91.4156 84.9113L123.231 52.9917C124.053 52.1677 124.053 50.8318 123.231 50.0078C122.411 49.1849 121.08 49.1849 120.258 50.0078Z" fill="#6A96FF"/>
<path fill-rule="evenodd" clip-rule="evenodd" d="M145.516 44.1395C143.857 45.8039 141.678 46.6356 139.498 46.6356C137.319 46.6356 135.14 45.8039 133.481 44.1395C131.874 42.5267 130.989 40.3821 130.989 38.1025C130.989 35.8217 131.874 33.6783 133.481 32.0655L139.846 25.6802C143.164 22.3514 148.562 22.3514 151.88 25.6802C155.198 29.0091 155.198 34.4254 151.88 37.7542L145.516 44.1395ZM142.819 28.663L136.454 35.0483C135.642 35.8635 135.194 36.9489 135.194 38.1025C135.194 39.256 135.642 40.3404 136.454 41.1556C138.133 42.8398 140.864 42.8398 142.542 41.1556L148.906 34.7703C150.585 33.0872 150.585 30.3472 148.906 28.663C147.228 26.9788 144.497 26.9788 142.819 28.663Z" fill="#6A96FF"/>
<path fill-rule="evenodd" clip-rule="evenodd" d="M197.38 78.4674H177.141L192.735 62.8229C196.485 59.0601 196.485 52.9374 192.735 49.1746L154.511 10.8268C152.694 9.00415 150.278 8 147.709 8C145.14 8 142.725 9.00415 140.907 10.8268L133.417 18.3414C132.596 19.1654 132.596 20.5002 133.417 21.3242C134.238 22.1482 135.569 22.1482 136.39 21.3242L143.881 13.8096C144.903 12.7834 146.263 12.2188 147.709 12.2188C149.155 12.2188 150.515 12.7834 151.538 13.8096L189.761 52.1573C191.872 54.2755 191.872 57.7208 189.761 59.839L171.194 78.4663H118.061L133.343 63.1338C134.164 62.3109 134.164 60.975 133.343 60.151C132.522 59.327 131.19 59.327 130.37 60.151L112.114 78.4674H105.521C100.217 78.4674 95.902 82.796 95.902 88.1167V142.35C95.902 147.67 100.217 152 105.521 152H197.38C202.684 152 206.999 147.67 206.999 142.35V134.554C206.999 133.388 206.058 132.444 204.896 132.444C203.736 132.444 202.794 133.388 202.794 134.554V142.35C202.794 145.344 200.366 147.781 197.38 147.781H105.521C102.536 147.781 100.107 145.344 100.107 142.35V112.751H202.794V126.116C202.794 127.281 203.735 128.226 204.896 128.226C206.058 128.226 206.999 127.281 206.999 126.116V88.1178C206.999 82.796 202.684 78.4674 197.38 78.4674ZM105.521 82.6862H197.38C200.365 82.6862 202.794 85.1229 202.794 88.1178V95.505H100.107V88.1178C100.107 85.1229 102.536 82.6862 105.521 82.6862ZM100.107 99.7238V108.533H202.794V99.7238H100.107Z" fill="#6A96FF"/>
<path fill-rule="evenodd" clip-rule="evenodd" d="M176.522 131.461C176.522 129.678 177.969 128.227 179.746 128.227H192.486C194.263 128.227 195.71 129.678 195.71 131.461V139.496C195.71 141.281 194.263 142.731 192.486 142.731H179.746C177.969 142.731 176.522 141.281 176.522 139.496V131.461ZM180.727 138.512H191.505V132.445H180.727V138.512Z" fill="#6A96FF"/>
<path fill-rule="evenodd" clip-rule="evenodd" d="M138.111 131.461C138.111 129.678 139.558 128.227 141.335 128.227H168.281C170.058 128.227 171.505 129.678 171.505 131.461V139.496C171.505 141.281 170.058 142.731 168.281 142.731H141.335C139.558 142.731 138.111 141.281 138.111 139.496V131.461ZM142.316 138.512H167.3V132.445H142.316V138.512Z" fill="#6A96FF"/>
<path d="M115.805 138.512C114.644 138.512 113.702 139.457 113.702 140.621C113.702 141.787 114.644 142.73 115.805 142.73H129.23C130.391 142.73 131.333 141.787 131.333 140.621C131.333 139.457 130.391 138.512 129.23 138.512H115.805Z" fill="#6A96FF"/>
<rect y="129" width="64" height="4" rx="2" fill="#BCD0FF"/>
<rect x="212" y="116" width="35" height="4" rx="2" fill="#BCD0FF"/>
<rect x="229" y="65" width="48" height="4" rx="2" fill="#BCD0FF"/>
<circle cx="52" cy="32" r="5.1" stroke="#BCD0FF" stroke-width="1.8"/>
<circle cx="252" cy="84" r="3.4" stroke="#BCD0FF" stroke-width="1.2"/>
<circle cx="237" cy="55" r="1.5" stroke="#BCD0FF"/>
<rect x="178" y="8" width="3" height="1" fill="#BCD0FF"/>
<rect x="184" y="8" width="3" height="1" fill="#BCD0FF"/>
<rect x="182" y="10" width="1" height="3" fill="#BCD0FF"/>
<rect x="182" y="4" width="1" height="3" fill="#BCD0FF"/>
<rect x="123" y="12.666" width="2" height="0.666667" fill="#BCD0FF"/>
<rect x="127" y="12.666" width="2" height="0.666667" fill="#BCD0FF"/>
<rect x="125.667" y="14" width="0.666667" height="2" fill="#BCD0FF"/>
<rect x="125.667" y="10" width="0.666667" height="2" fill="#BCD0FF"/>
<rect x="92" y="5.77734" width="1.33333" height="0.444444" fill="#BCD0FF"/>
<rect x="94.6667" y="5.77734" width="1.33333" height="0.444444" fill="#BCD0FF"/>
<rect x="93.7778" y="6.66602" width="0.444444" height="1.33333" fill="#BCD0FF"/>
<rect x="93.7778" y="4" width="0.444444" height="1.33333" fill="#BCD0FF"/>
<rect x="241" y="26" width="4" height="1" fill="#BCD0FF"/>
<rect x="252" y="26" width="4" height="1" fill="#BCD0FF"/>
<rect x="248" y="30" width="1" height="4" fill="#BCD0FF"/>
<rect x="248" y="19" width="1" height="4" fill="#BCD0FF"/>
</svg>
