<svg width="40" height="40" viewBox="0 0 40 40" fill="none" xmlns="http://www.w3.org/2000/svg">
<path d="M30.8962 27.2491L25.0647 25.5825H14.9353L9.10375 27.2491C7.69089 27.653 6.7207 28.9129 6.7207 30.3438V35.0539C6.7207 35.9446 7.46389 36.6668 8.3806 36.6668H31.6194C32.5361 36.6668 33.2793 35.9446 33.2793 35.0539V30.3438C33.2793 28.9129 32.309 27.6529 30.8962 27.2491Z" fill="white"/>
<path d="M22.7664 36.6667H17.2334L16.1268 25.9141H23.873L22.7664 36.6667Z" fill="#6EADFD"/>
<path fill-rule="evenodd" clip-rule="evenodd" d="M16.1268 25.9141L16.2925 27.5234C17.2043 28.5133 18.5252 29.1399 20 29.1399C21.4748 29.1399 22.7957 28.5133 23.7075 27.5234L23.8732 25.9141H16.1268V25.9141Z" fill="#497DF9"/>
<path d="M20 28.0646C17.8609 28.0646 16.1268 26.3796 16.1268 24.3012V20.5377H23.8731V24.3012C23.8731 26.3796 22.1391 28.0646 20 28.0646Z" fill="#F7D291"/>
<path d="M16.1268 22.8125C17.2893 23.4158 18.6074 23.7636 19.9999 23.7636C21.3924 23.7636 22.7106 23.4158 23.873 22.8125V20.5377H16.1268V22.8125Z" fill="#F0C382"/>
<path d="M27.4696 13.5484H27.1929V8.17212H12.807V13.5485H12.5303C11.7695 13.5485 11.1471 14.1533 11.1471 14.8926C11.1471 15.6318 11.7695 16.2366 12.5303 16.2366H12.8349C13.1184 19.8446 16.2142 22.6883 20 22.6883C23.7858 22.6883 26.8816 19.8446 27.165 16.2366H27.4696C28.2304 16.2366 28.8528 15.6318 28.8528 14.8926C28.8528 14.1533 28.2304 13.5484 27.4696 13.5484Z" fill="#FFE1A0"/>
<path d="M16.6801 15.3635C16.3743 15.3635 16.1268 15.1001 16.1268 14.7754V14.1872C16.1268 13.8624 16.3743 13.599 16.6801 13.599C16.9859 13.599 17.2334 13.8624 17.2334 14.1872V14.7754C17.2334 15.1002 16.9859 15.3635 16.6801 15.3635Z" fill="#6E5A64"/>
<path d="M23.3198 15.3635C23.0139 15.3635 22.7665 15.1001 22.7665 14.7754V14.1872C22.7665 13.8624 23.014 13.599 23.3198 13.599C23.6256 13.599 23.8731 13.8624 23.8731 14.1872V14.7754C23.8731 15.1002 23.6256 15.3635 23.3198 15.3635Z" fill="#6E5A64"/>
<path d="M17.2335 13.7403H16.1269C15.821 13.7403 15.5736 13.3375 15.5736 12.8407C15.5736 12.344 15.8211 11.9412 16.1269 11.9412H17.2335C17.5394 11.9412 17.7868 12.344 17.7868 12.8407C17.7868 13.3375 17.5393 13.7403 17.2335 13.7403Z" fill="#A06E50"/>
<path d="M23.8732 13.7403H22.7666C22.4607 13.7403 22.2133 13.3375 22.2133 12.8407C22.2133 12.344 22.4608 11.9412 22.7666 11.9412H23.8732C24.179 11.9412 24.4265 12.344 24.4265 12.8407C24.4265 13.3375 24.179 13.7403 23.8732 13.7403Z" fill="#A06E50"/>
<path d="M12.807 8.17212V13.5485H12.5789C11.949 13.5485 11.3606 13.9364 11.1973 14.5277C10.9506 15.4217 11.6473 16.2367 12.5303 16.2367H12.8349C13.1184 19.8447 16.2142 22.6883 20 22.6883C20.3785 22.6883 20.7475 22.6525 21.11 22.5978C17.6625 22.0807 15.0202 19.1937 15.0202 15.6991V12.4319C15.0202 11.1697 16.1173 10.1422 17.4119 10.2459C17.7742 10.2749 18.1547 10.2904 18.5545 10.2904C20.159 10.2904 21.9504 10.0416 23.8792 9.5509C24.722 9.33651 25.4469 8.83742 25.9421 8.17212L12.807 8.17212Z" fill="#F7D291"/>
<path d="M15.5043 6.02156L15.5735 8.17208C15.5735 8.17208 13.9136 9.78497 13.9136 11.9355V12.5992C13.9136 13.1414 13.498 13.5988 12.9442 13.6662L11.7003 13.8173V9.24741C11.7004 7.46583 13.4294 5.93198 15.5043 6.02156Z" fill="#A06E50"/>
<path d="M26.629 28.5918L25.5331 27.5269L26.7059 26.0074C26.9595 25.6788 26.845 25.2073 26.4669 25.0236L23.8732 23.7634L20 36.6667H23.3198L26.8362 29.833C27.0492 29.419 26.9658 28.919 26.629 28.5918Z" fill="#DBD9DC"/>
<path d="M30.5127 33.1721H29.6827V32.3656C29.6827 32.0684 29.4352 31.828 29.1294 31.828C28.8236 31.828 28.5761 32.0684 28.5761 32.3656V33.172H27.7462C27.4403 33.172 27.1929 33.4125 27.1929 33.7096C27.1929 34.0068 27.4404 34.2473 27.7462 34.2473H28.5761V35.0537C28.5761 35.3509 28.8236 35.5913 29.1294 35.5913C29.4352 35.5913 29.6827 35.3509 29.6827 35.0537V34.2473H30.5127C30.8185 34.2473 31.066 34.0068 31.066 33.7096C31.066 33.4125 30.8185 33.1721 30.5127 33.1721Z" fill="#6EADFD"/>
<path d="M24.4955 4.40864L24.4264 8.17206C24.4264 8.17206 26.0863 9.78495 26.0863 11.9355V12.5991C26.0863 13.1414 26.5018 13.5988 27.0557 13.6661L28.2996 13.8172V7.63449C28.2996 5.85291 26.5705 4.31906 24.4955 4.40864Z" fill="#CD916E"/>
<path d="M20 18.9248C19.1695 18.9248 18.4038 18.6659 17.9516 18.2323C17.7338 18.0233 17.7317 17.6831 17.9461 17.4721C18.1617 17.2605 18.5119 17.2584 18.7285 17.4668C18.9128 17.6432 19.3558 17.8495 19.9999 17.8495C20.644 17.8495 21.0871 17.6432 21.2714 17.4668C21.488 17.2583 21.8382 17.2605 22.0537 17.4721C22.2683 17.6831 22.2661 18.0234 22.0483 18.2323C21.5962 18.6659 20.8305 18.9248 20 18.9248Z" fill="#E3AA75"/>
<path d="M13.371 28.5918L14.467 27.5269L13.2941 26.0074C13.0405 25.6788 13.155 25.2073 13.5331 25.0236L16.1269 23.7634L20 36.6667H16.6802L13.1637 29.833C12.9507 29.419 13.0342 28.919 13.371 28.5918Z" fill="#DBD9DC"/>
<path d="M21.072 3.33337C16.4557 3.33337 15.571 4.69698 12.0164 5.79711C11.7721 5.8727 11.6622 6.14763 11.8002 6.35746C12.5716 7.52986 15.4425 10.5857 23.599 8.51065C24.5541 8.26768 25.2886 7.51938 25.4822 6.57862C25.7065 5.48871 25.0248 4.40929 23.9999 3.9158C23.1858 3.52387 22.1182 3.33337 21.072 3.33337Z" fill="#B67F5F"/>
<path d="M14.4669 36.6667H10.0405C9.73489 36.6667 9.48718 36.426 9.48718 36.1291V33.9785C9.48718 33.6816 9.73489 33.4409 10.0405 33.4409H14.4669C14.7725 33.4409 15.0202 33.6816 15.0202 33.9785V36.1291C15.0202 36.426 14.7725 36.6667 14.4669 36.6667Z" fill="#6EADFD"/>
<path d="M12.2537 34.5162C11.9479 34.5162 11.7004 34.2757 11.7004 33.9785V32.3656C11.7004 32.0684 11.9479 31.828 12.2537 31.828C12.5595 31.828 12.807 32.0685 12.807 32.3656V33.9785C12.807 34.2757 12.5596 34.5162 12.2537 34.5162Z" fill="white"/>
<path fill-rule="evenodd" clip-rule="evenodd" d="M14.4669 35.5915H10.0405C9.73489 35.5915 9.48718 35.3507 9.48718 35.0538V36.1291C9.48718 36.426 9.73489 36.6667 10.0405 36.6667H14.4669C14.7725 36.6667 15.0202 36.426 15.0202 36.1291V35.0538C15.0202 35.3507 14.7725 35.5915 14.4669 35.5915Z" fill="#497DF9"/>
</svg>
