<svg width="56" height="56" viewBox="0 0 56 56" fill="none" xmlns="http://www.w3.org/2000/svg">
<path fill-rule="evenodd" clip-rule="evenodd" d="M17.897 25.7852C18.7089 30.5397 22.849 34.159 27.835 34.159C32.8209 34.159 36.9611 30.5397 37.773 25.7852H37.9896C39.6219 25.7852 40.9453 24.4619 40.9453 22.8295C40.9453 21.1971 39.6219 19.8738 37.9896 19.8738H37.918V18.7791C33.9372 17.8393 31.4926 15.7279 30.2364 14.3064C28.4183 15.9309 24.4679 18.6945 17.7522 19.8402L17.4086 19.8867C15.9038 20.0241 14.7248 21.2888 14.7248 22.8295C14.7248 24.4619 16.0482 25.7852 17.6805 25.7852H17.897Z" fill="white"/>
<path fill-rule="evenodd" clip-rule="evenodd" d="M17.7521 17.0639C25.9664 15.5345 29.2613 11.4235 29.2945 11.3809L30.5502 9.77307L31.5601 11.5456C31.6352 11.6737 33.439 14.6728 37.9179 15.9538V14.5828C37.9179 9.01423 33.4037 4.5 27.835 4.5C22.2664 4.5 17.7521 9.01423 17.7521 14.5829L17.7521 17.0639Z" fill="white"/>
<path fill-rule="evenodd" clip-rule="evenodd" d="M41.1582 42.9663H40.7321C39.4887 42.9663 38.4772 43.9779 38.4772 45.2212V48.4354H43.4132V45.2212C43.4132 43.9779 42.4016 42.9663 41.1582 42.9663Z" fill="white"/>
<circle cx="14.7248" cy="46.6124" r="1.82305" fill="white"/>
<path fill-rule="evenodd" clip-rule="evenodd" d="M31.116 36.4656C30.0526 36.7472 28.9502 36.8936 27.835 36.8936C26.7199 36.8936 25.6174 36.7473 24.5541 36.4656L27.835 41.0669L31.116 36.4656Z" fill="white"/>
<path fill-rule="evenodd" clip-rule="evenodd" d="M10.1672 46.6123C10.1672 44.5755 11.5104 42.8467 13.3575 42.2646V34.1636L9.62623 35.9142C6.51219 37.3751 4.5 40.5416 4.5 43.9813V51.17H14.7248C12.2118 51.17 10.1672 49.1254 10.1672 46.6123Z" fill="white"/>
<path fill-rule="evenodd" clip-rule="evenodd" d="M46.0438 35.9142L42.3125 34.1636V40.3679C44.5088 40.8903 46.1478 42.8673 46.1478 45.2213V51.17H51.17V43.9814C51.17 40.5417 49.1578 37.3751 46.0438 35.9142Z" fill="white"/>
<path fill-rule="evenodd" clip-rule="evenodd" d="M39.5779 40.368V32.8808L37.8506 32.0704C37.5051 32.5034 27.835 45.7772 27.835 45.7772C27.835 45.7772 18.165 32.5035 17.8194 32.0704L16.0921 32.8808V42.2646C17.9392 42.8467 19.2824 44.5755 19.2824 46.6124C19.2824 49.1255 17.2379 51.17 14.7248 51.17H35.7426V45.2213C35.7426 42.8674 37.3816 40.8903 39.5779 40.368Z" fill="white"/>
</svg>
