<svg width="14" height="18" viewBox="0 0 14 18" fill="none" xmlns="http://www.w3.org/2000/svg">
<path fill-rule="evenodd" clip-rule="evenodd" d="M13.2369 14.6462L9.39068 7.91533V7.55427H7.8869C7.61004 7.55427 7.38565 7.33611 7.38565 7.06693C7.38565 6.79776 7.61004 6.5796 7.8869 6.5796H9.39068V5.60494H6.88439C6.60752 5.60494 6.38313 5.38678 6.38313 5.1176C6.38313 4.84843 6.60752 4.63027 6.88439 4.63027H9.39068V3.6556H7.8869C7.61004 3.6556 7.38565 3.43744 7.38565 3.16827C7.38565 2.89909 7.61004 2.68094 7.8869 2.68094H9.39068V1.64129H9.89193C10.1687 1.64129 10.3932 1.42313 10.3932 1.15396C10.3932 0.884784 10.1687 0.666626 9.89193 0.666626H3.87685C3.59998 0.666626 3.37559 0.884784 3.37559 1.15396C3.37559 1.42313 3.59998 1.64129 3.87685 1.64129H4.37811V7.91672L0.578865 14.6551C-0.0920882 15.8453 0.792552 17.3009 2.19059 17.3009H11.6303C13.0309 17.3009 13.918 15.8383 13.2369 14.6462Z" fill="#EF716B"/>
</svg>
