<svg width="17" height="18" viewBox="0 0 17 18" fill="none" xmlns="http://www.w3.org/2000/svg">
<mask id="path-1-outside-1" maskUnits="userSpaceOnUse" x="-0.494202" y="-0.333374" width="17" height="18" fill="black">
<rect fill="white" x="-0.494202" y="-0.333374" width="17" height="18"/>
<path fill-rule="evenodd" clip-rule="evenodd" d="M13.1276 0.666626V1.68704H14.2787L12.0331 3.81624C11.2382 3.00276 10.1297 2.4969 8.90515 2.4969C7.25791 2.4969 5.82054 3.412 5.07419 4.76041C5.01026 4.75761 4.946 4.75592 4.88135 4.75592C2.46866 4.75592 0.505798 6.71877 0.505798 9.1315C0.505798 11.3716 2.19799 13.2236 4.37113 13.4771V14.8332H2.84356V15.8536H4.3712V17.3333H5.39161V15.8535H6.98591V14.8331H5.39161V13.4771C6.8222 13.3102 8.04421 12.4506 8.71234 11.2435C8.77627 11.2463 8.8405 11.248 8.90512 11.248C11.3178 11.248 13.2807 9.28515 13.2807 6.87245C13.2807 6.05256 13.0538 5.28476 12.6599 4.62818L15.0987 2.31575V3.5831H16.1191V0.666626H13.1276ZM4.88142 12.4866C3.03138 12.4866 1.52627 10.9815 1.52627 9.13144C1.52627 7.35347 2.91641 5.89439 4.6668 5.78336C4.57725 6.13166 4.52959 6.49657 4.52959 6.87245C4.52959 8.84068 5.83597 10.5094 7.62715 11.0574C7.01954 11.9211 6.01534 12.4866 4.88142 12.4866ZM8.08604 10.1263C6.63067 9.75973 5.55004 8.44 5.55004 6.87245C5.55004 6.52623 5.60277 6.19208 5.70059 5.87763C7.15596 6.24417 8.23659 7.56392 8.23659 9.13147C8.23659 9.47769 8.18383 9.81181 8.08604 10.1263ZM9.1198 10.2205C9.20935 9.87219 9.257 9.50732 9.257 9.13144C9.257 7.16321 7.95062 5.49452 6.15948 4.94644C6.76709 4.08277 7.77133 3.51724 8.90521 3.51724C10.7553 3.51724 12.2604 5.02236 12.2604 6.87242C12.2603 8.65038 10.8702 10.1095 9.1198 10.2205Z"/>
</mask>
<path fill-rule="evenodd" clip-rule="evenodd" d="M13.1276 0.666626V1.68704H14.2787L12.0331 3.81624C11.2382 3.00276 10.1297 2.4969 8.90515 2.4969C7.25791 2.4969 5.82054 3.412 5.07419 4.76041C5.01026 4.75761 4.946 4.75592 4.88135 4.75592C2.46866 4.75592 0.505798 6.71877 0.505798 9.1315C0.505798 11.3716 2.19799 13.2236 4.37113 13.4771V14.8332H2.84356V15.8536H4.3712V17.3333H5.39161V15.8535H6.98591V14.8331H5.39161V13.4771C6.8222 13.3102 8.04421 12.4506 8.71234 11.2435C8.77627 11.2463 8.8405 11.248 8.90512 11.248C11.3178 11.248 13.2807 9.28515 13.2807 6.87245C13.2807 6.05256 13.0538 5.28476 12.6599 4.62818L15.0987 2.31575V3.5831H16.1191V0.666626H13.1276ZM4.88142 12.4866C3.03138 12.4866 1.52627 10.9815 1.52627 9.13144C1.52627 7.35347 2.91641 5.89439 4.6668 5.78336C4.57725 6.13166 4.52959 6.49657 4.52959 6.87245C4.52959 8.84068 5.83597 10.5094 7.62715 11.0574C7.01954 11.9211 6.01534 12.4866 4.88142 12.4866ZM8.08604 10.1263C6.63067 9.75973 5.55004 8.44 5.55004 6.87245C5.55004 6.52623 5.60277 6.19208 5.70059 5.87763C7.15596 6.24417 8.23659 7.56392 8.23659 9.13147C8.23659 9.47769 8.18383 9.81181 8.08604 10.1263ZM9.1198 10.2205C9.20935 9.87219 9.257 9.50732 9.257 9.13144C9.257 7.16321 7.95062 5.49452 6.15948 4.94644C6.76709 4.08277 7.77133 3.51724 8.90521 3.51724C10.7553 3.51724 12.2604 5.02236 12.2604 6.87242C12.2603 8.65038 10.8702 10.1095 9.1198 10.2205Z" fill="#FFB167"/>
<path d="M13.1276 0.666626V0.566626H13.0276V0.666626H13.1276ZM13.1276 1.68704H13.0276V1.78704H13.1276V1.68704ZM14.2787 1.68704L14.3475 1.7596L14.5294 1.58704H14.2787V1.68704ZM12.0331 3.81624L11.9616 3.88613L12.0305 3.95658L12.1019 3.8888L12.0331 3.81624ZM5.07419 4.76041L5.06982 4.86031L5.13169 4.86302L5.16168 4.80884L5.07419 4.76041ZM4.37113 13.4771H4.47113V13.3881L4.38272 13.3778L4.37113 13.4771ZM4.37113 14.8332V14.9332H4.47113V14.8332H4.37113ZM2.84356 14.8332V14.7332H2.74356V14.8332H2.84356ZM2.84356 15.8536H2.74356V15.9536H2.84356V15.8536ZM4.3712 15.8536H4.4712V15.7536H4.3712V15.8536ZM4.3712 17.3333H4.2712V17.4333H4.3712V17.3333ZM5.39161 17.3333V17.4333H5.49161V17.3333H5.39161ZM5.39161 15.8535V15.7535H5.29161V15.8535H5.39161ZM6.98591 15.8535V15.9535H7.08591V15.8535H6.98591ZM6.98591 14.8331H7.08591V14.7331H6.98591V14.8331ZM5.39161 14.8331H5.29161V14.9331H5.39161V14.8331ZM5.39161 13.4771L5.38002 13.3778L5.29161 13.3881V13.4771H5.39161ZM8.71234 11.2435L8.71672 11.1436L8.65484 11.1409L8.62485 11.1951L8.71234 11.2435ZM12.6599 4.62818L12.5911 4.55562L12.5329 4.61083L12.5742 4.67963L12.6599 4.62818ZM15.0987 2.31575H15.1987V2.08312L15.0299 2.24318L15.0987 2.31575ZM15.0987 3.5831H14.9987V3.6831H15.0987V3.5831ZM16.1191 3.5831V3.6831H16.2191V3.5831H16.1191ZM16.1191 0.666626H16.2191V0.566626H16.1191V0.666626ZM4.6668 5.78336L4.76365 5.80826L4.79795 5.67484L4.66047 5.68356L4.6668 5.78336ZM7.62715 11.0574L7.70894 11.115L7.7883 11.0021L7.65641 10.9618L7.62715 11.0574ZM8.08604 10.1263L8.06162 10.2232L8.15342 10.2464L8.18153 10.156L8.08604 10.1263ZM5.70059 5.87763L5.72501 5.78066L5.63322 5.75754L5.6051 5.84793L5.70059 5.87763ZM9.1198 10.2205L9.02295 10.1956L8.98864 10.329L9.12612 10.3203L9.1198 10.2205ZM6.15948 4.94644L6.07769 4.8889L5.99833 5.00171L6.13022 5.04207L6.15948 4.94644ZM12.2604 6.87242L12.3604 6.87242V6.87242H12.2604ZM13.0276 0.666626V1.68704H13.2276V0.666626H13.0276ZM13.1276 1.78704H14.2787V1.58704H13.1276V1.78704ZM14.2098 1.61447L11.9643 3.74367L12.1019 3.8888L14.3475 1.7596L14.2098 1.61447ZM12.1047 3.74634C11.2917 2.91448 10.1578 2.3969 8.90515 2.3969V2.5969C10.1016 2.5969 11.1846 3.09103 11.9616 3.88613L12.1047 3.74634ZM8.90515 2.3969C7.21997 2.3969 5.74989 3.33315 4.9867 4.71198L5.16168 4.80884C5.8912 3.49085 7.29586 2.5969 8.90515 2.5969V2.3969ZM5.07856 4.6605C5.01348 4.65765 4.94773 4.65592 4.88135 4.65592V4.85592C4.94427 4.85592 5.00704 4.85756 5.06982 4.86031L5.07856 4.6605ZM4.88135 4.65592C2.41343 4.65592 0.405798 6.66355 0.405798 9.1315H0.605798C0.605798 6.774 2.52389 4.85592 4.88135 4.85592V4.65592ZM0.405798 9.1315C0.405798 11.423 2.13665 13.3171 4.35954 13.5765L4.38272 13.3778C2.25933 13.1301 0.605798 11.3202 0.605798 9.1315H0.405798ZM4.27113 13.4771V14.8332H4.47113V13.4771H4.27113ZM4.37113 14.7332H2.84356V14.9332H4.37113V14.7332ZM2.74356 14.8332V15.8536H2.94356V14.8332H2.74356ZM2.84356 15.9536H4.3712V15.7536H2.84356V15.9536ZM4.2712 15.8536V17.3333H4.4712V15.8536H4.2712ZM4.3712 17.4333H5.39161V17.2333H4.3712V17.4333ZM5.49161 17.3333V15.8535H5.29161V17.3333H5.49161ZM5.39161 15.9535H6.98591V15.7535H5.39161V15.9535ZM7.08591 15.8535V14.8331H6.88591V15.8535H7.08591ZM6.98591 14.7331H5.39161V14.9331H6.98591V14.7331ZM5.49161 14.8331V13.4771H5.29161V14.8331H5.49161ZM5.40319 13.5764C6.86687 13.4057 8.1166 12.5263 8.79983 11.2919L8.62485 11.1951C7.97181 12.3749 6.77754 13.2147 5.38002 13.3778L5.40319 13.5764ZM8.70797 11.3434C8.77305 11.3463 8.83876 11.348 8.90512 11.348V11.148C8.84223 11.148 8.7795 11.1464 8.71672 11.1436L8.70797 11.3434ZM8.90512 11.348C11.3731 11.348 13.3807 9.34038 13.3807 6.87245H13.1807C13.1807 9.22992 11.2626 11.148 8.90512 11.148V11.348ZM13.3807 6.87245C13.3807 6.03387 13.1486 5.24836 12.7456 4.57673L12.5742 4.67963C12.9591 5.32116 13.1807 6.07125 13.1807 6.87245H13.3807ZM12.7287 4.70075L15.1675 2.38831L15.0299 2.24318L12.5911 4.55562L12.7287 4.70075ZM14.9987 2.31575V3.5831H15.1987V2.31575H14.9987ZM15.0987 3.6831H16.1191V3.4831H15.0987V3.6831ZM16.2191 3.5831V0.666626H16.0191V3.5831H16.2191ZM16.1191 0.566626H13.1276V0.766626H16.1191V0.566626ZM4.88142 12.3866C3.08661 12.3866 1.62627 10.9263 1.62627 9.13144H1.42627C1.42627 11.0367 2.97616 12.5866 4.88142 12.5866V12.3866ZM1.62627 9.13144C1.62627 7.40662 2.97503 5.99088 4.67313 5.88316L4.66047 5.68356C2.85779 5.79791 1.42627 7.30033 1.42627 9.13144H1.62627ZM4.56995 5.75846C4.47833 6.11482 4.42959 6.48809 4.42959 6.87245H4.62959C4.62959 6.50506 4.67617 6.14851 4.76365 5.80826L4.56995 5.75846ZM4.42959 6.87245C4.42959 8.88597 5.76597 10.5925 7.59789 11.153L7.65641 10.9618C5.90598 10.4262 4.62959 8.79539 4.62959 6.87245H4.42959ZM7.54536 10.9999C6.9556 11.8382 5.9813 12.3866 4.88142 12.3866V12.5866C6.04937 12.5866 7.08347 12.004 7.70894 11.115L7.54536 10.9999ZM8.11046 10.0293C6.69836 9.67365 5.65004 8.39299 5.65004 6.87245H5.45004C5.45004 8.48701 6.56297 9.8458 8.06162 10.2232L8.11046 10.0293ZM5.65004 6.87245C5.65004 6.53644 5.70121 6.2123 5.79608 5.90733L5.6051 5.84793C5.50433 6.17187 5.45004 6.51602 5.45004 6.87245H5.65004ZM5.67617 5.9746C7.08826 6.33024 8.13659 7.61093 8.13659 9.13147H8.33659C8.33659 7.51692 7.22366 6.15809 5.72501 5.78066L5.67617 5.9746ZM8.13659 9.13147C8.13659 9.46748 8.08539 9.79159 7.99055 10.0966L8.18153 10.156C8.28226 9.83203 8.33659 9.48791 8.33659 9.13147H8.13659ZM9.21665 10.2454C9.30827 9.88904 9.357 9.5158 9.357 9.13144H9.157C9.157 9.49883 9.11043 9.85534 9.02295 10.1956L9.21665 10.2454ZM9.357 9.13144C9.357 7.11792 8.02063 5.41137 6.18874 4.85082L6.13022 5.04207C7.88061 5.57768 9.157 7.2085 9.157 9.13144H9.357ZM6.24126 5.00398C6.83103 4.16569 7.80536 3.61724 8.90521 3.61724V3.41724C7.73729 3.41724 6.70316 3.99985 6.07769 4.8889L6.24126 5.00398ZM8.90521 3.61724C10.7 3.61724 12.1604 5.07758 12.1604 6.87242H12.3604C12.3604 4.96713 10.8105 3.41724 8.90521 3.41724V3.61724ZM12.1604 6.87242C12.1603 8.59723 10.8116 10.013 9.11347 10.1207L9.12612 10.3203C10.9288 10.206 12.3603 8.70353 12.3604 6.87242L12.1604 6.87242Z" fill="#FFB167" mask="url(#path-1-outside-1)"/>
</svg>
