<svg width="28" height="28" viewBox="0 0 28 28" fill="none" xmlns="http://www.w3.org/2000/svg">
<path fill-rule="evenodd" clip-rule="evenodd" d="M16.8224 5.6153C16.8943 5.4596 16.8408 5.27478 16.6969 5.18149C16.5531 5.0882 16.3625 5.1148 16.2497 5.24392C15.1721 6.49288 13.9231 8.61426 13.3248 12.0405C13.1425 12.9747 12.685 13.8331 12.011 14.5053C11.0095 15.5484 10.9835 17.1879 11.9514 18.2623C12.9193 19.3367 14.5526 19.4813 15.6942 18.5937C16.8358 17.706 17.0982 16.0875 16.2955 14.8846C15.5426 13.8104 15.2063 12.4989 15.3493 11.195C15.5543 9.27107 16.051 7.38961 16.8224 5.6153Z" fill="#0C0B52"/>
<path fill-rule="evenodd" clip-rule="evenodd" d="M23.3103 14.3447H17.9759C18.9582 16.2308 18.4801 18.5475 16.8314 19.8907C15.1828 21.2339 12.8172 21.2339 11.1686 19.8907C9.51989 18.5475 9.04184 16.2308 10.0241 14.3447H4.68966C4.30877 14.3447 4 14.6535 4 15.0344V23.3102C4 23.6911 4.30877 23.9999 4.68966 23.9999H23.3103C23.6912 23.9999 24 23.6911 24 23.3102V15.0344C24 14.6535 23.6912 14.3447 23.3103 14.3447ZM5.72414 22.2758C5.53369 22.2758 5.37931 22.1214 5.37931 21.9309C5.37931 21.7405 5.53369 21.5861 5.72414 21.5861C5.91458 21.5861 6.06897 21.7405 6.06897 21.9309C6.06897 22.1214 5.91458 22.2758 5.72414 22.2758ZM5.72414 19.5171C5.53369 19.5171 5.37931 19.3628 5.37931 19.1723C5.37931 18.9819 5.53369 18.8275 5.72414 18.8275C5.91458 18.8275 6.06897 18.9819 6.06897 19.1723C6.06897 19.3628 5.91458 19.5171 5.72414 19.5171ZM5.72414 16.7585C5.53369 16.7585 5.37931 16.6041 5.37931 16.4137C5.37931 16.2232 5.53369 16.0689 5.72414 16.0689C5.91458 16.0689 6.06897 16.2232 6.06897 16.4137C6.06897 16.6041 5.91458 16.7585 5.72414 16.7585ZM6.75862 20.8965C6.56818 20.8965 6.41379 20.7421 6.41379 20.5516C6.41379 20.3612 6.56818 20.2068 6.75862 20.2068C6.94906 20.2068 7.10345 20.3612 7.10345 20.5516C7.10345 20.7421 6.94906 20.8965 6.75862 20.8965ZM6.75862 18.1378C6.56818 18.1378 6.41379 17.9834 6.41379 17.793C6.41379 17.6026 6.56818 17.4482 6.75862 17.4482C6.94906 17.4482 7.10345 17.6026 7.10345 17.793C7.10345 17.9834 6.94906 18.1378 6.75862 18.1378ZM7.7931 22.2758C7.60266 22.2758 7.44828 22.1214 7.44828 21.9309C7.44828 21.7405 7.60266 21.5861 7.7931 21.5861C7.98355 21.5861 8.13793 21.7405 8.13793 21.9309C8.13793 22.1214 7.98355 22.2758 7.7931 22.2758ZM7.7931 19.5171C7.60266 19.5171 7.44828 19.3628 7.44828 19.1723C7.44828 18.9819 7.60266 18.8275 7.7931 18.8275C7.98355 18.8275 8.13793 18.9819 8.13793 19.1723C8.13793 19.3628 7.98355 19.5171 7.7931 19.5171ZM7.7931 16.7585C7.60266 16.7585 7.44828 16.6041 7.44828 16.4137C7.44828 16.2232 7.60266 16.0689 7.7931 16.0689C7.98355 16.0689 8.13793 16.2232 8.13793 16.4137C8.13793 16.6041 7.98355 16.7585 7.7931 16.7585ZM8.82759 20.8965C8.63714 20.8965 8.48276 20.7421 8.48276 20.5516C8.48276 20.3612 8.63714 20.2068 8.82759 20.2068C9.01803 20.2068 9.17241 20.3612 9.17241 20.5516C9.17241 20.7421 9.01803 20.8965 8.82759 20.8965ZM9.86207 22.2758C9.67163 22.2758 9.51724 22.1214 9.51724 21.9309C9.51724 21.7405 9.67163 21.5861 9.86207 21.5861C10.0525 21.5861 10.2069 21.7405 10.2069 21.9309C10.2069 22.1214 10.0525 22.2758 9.86207 22.2758ZM11.931 22.2758C11.7406 22.2758 11.5862 22.1214 11.5862 21.9309C11.5862 21.7405 11.7406 21.5861 11.931 21.5861C12.1215 21.5861 12.2759 21.7405 12.2759 21.9309C12.2759 22.1214 12.1215 22.2758 11.931 22.2758ZM14 22.2758C13.8096 22.2758 13.6552 22.1214 13.6552 21.9309C13.6552 21.7405 13.8096 21.5861 14 21.5861C14.1904 21.5861 14.3448 21.7405 14.3448 21.9309C14.3448 22.1214 14.1904 22.2758 14 22.2758ZM16.069 22.2758C15.8785 22.2758 15.7241 22.1214 15.7241 21.9309C15.7241 21.7405 15.8785 21.5861 16.069 21.5861C16.2594 21.5861 16.4138 21.7405 16.4138 21.9309C16.4138 22.1214 16.2594 22.2758 16.069 22.2758ZM18.1379 22.2758C17.9475 22.2758 17.7931 22.1214 17.7931 21.9309C17.7931 21.7405 17.9475 21.5861 18.1379 21.5861C18.3284 21.5861 18.4828 21.7405 18.4828 21.9309C18.4828 22.1214 18.3284 22.2758 18.1379 22.2758ZM19.1724 20.8965C18.982 20.8965 18.8276 20.7421 18.8276 20.5516C18.8276 20.3612 18.982 20.2068 19.1724 20.2068C19.3629 20.2068 19.5172 20.3612 19.5172 20.5516C19.5172 20.7421 19.3629 20.8965 19.1724 20.8965ZM20.2069 22.2758C20.0165 22.2758 19.8621 22.1214 19.8621 21.9309C19.8621 21.7405 20.0165 21.5861 20.2069 21.5861C20.3973 21.5861 20.5517 21.7405 20.5517 21.9309C20.5517 22.1214 20.3973 22.2758 20.2069 22.2758ZM20.2069 19.5171C20.0165 19.5171 19.8621 19.3628 19.8621 19.1723C19.8621 18.9819 20.0165 18.8275 20.2069 18.8275C20.3973 18.8275 20.5517 18.9819 20.5517 19.1723C20.5517 19.3628 20.3973 19.5171 20.2069 19.5171ZM20.2069 16.7585C20.0165 16.7585 19.8621 16.6041 19.8621 16.4137C19.8621 16.2232 20.0165 16.0689 20.2069 16.0689C20.3973 16.0689 20.5517 16.2232 20.5517 16.4137C20.5517 16.6041 20.3973 16.7585 20.2069 16.7585ZM21.2414 20.8965C21.0509 20.8965 20.8966 20.7421 20.8966 20.5516C20.8966 20.3612 21.0509 20.2068 21.2414 20.2068C21.4318 20.2068 21.5862 20.3612 21.5862 20.5516C21.5862 20.7421 21.4318 20.8965 21.2414 20.8965ZM21.2414 18.1378C21.0509 18.1378 20.8966 17.9834 20.8966 17.793C20.8966 17.6026 21.0509 17.4482 21.2414 17.4482C21.4318 17.4482 21.5862 17.6026 21.5862 17.793C21.5862 17.9834 21.4318 18.1378 21.2414 18.1378ZM22.2759 22.2758C22.0854 22.2758 21.931 22.1214 21.931 21.9309C21.931 21.7405 22.0854 21.5861 22.2759 21.5861C22.4663 21.5861 22.6207 21.7405 22.6207 21.9309C22.6207 22.1214 22.4663 22.2758 22.2759 22.2758ZM22.2759 19.5171C22.0854 19.5171 21.931 19.3628 21.931 19.1723C21.931 18.9819 22.0854 18.8275 22.2759 18.8275C22.4663 18.8275 22.6207 18.9819 22.6207 19.1723C22.6207 19.3628 22.4663 19.5171 22.2759 19.5171ZM22.2759 16.7585C22.0854 16.7585 21.931 16.6041 21.931 16.4137C21.931 16.2232 22.0854 16.0689 22.2759 16.0689C22.4663 16.0689 22.6207 16.2232 22.6207 16.4137C22.6207 16.6041 22.4663 16.7585 22.2759 16.7585Z" fill="#EF716B"/>
<path fill-rule="evenodd" clip-rule="evenodd" d="M8.00621 4.32677C7.14415 5.44677 5.74242 7.84401 5.74242 8.97401C5.731 10.0255 6.2854 11.002 7.19413 11.531C8.10286 12.0601 9.22577 12.0601 10.1345 11.531C11.0432 11.002 11.5976 10.0255 11.5862 8.97401C11.5862 7.84228 10.1841 5.44849 9.32242 4.32677C9.16588 4.12146 8.92249 4.00098 8.66432 4.00098C8.40614 4.00098 8.16276 4.12146 8.00621 4.32677ZM8.58104 10.3716C8.5586 10.4603 8.50185 10.5364 8.42327 10.5832C8.3447 10.63 8.25074 10.6437 8.16208 10.6213C7.65966 10.5294 7.22943 10.2072 7.00001 9.75091C6.64208 8.97435 7.08484 8.06125 7.10346 8.02194C7.18744 7.85054 7.39447 7.77968 7.56587 7.86366C7.73727 7.94765 7.80813 8.15468 7.72415 8.32608C7.5472 8.679 7.513 9.08652 7.62863 9.46401C7.77501 9.72753 8.03562 9.90799 8.3338 9.95228C8.51764 10.0001 8.62819 10.1876 8.58104 10.3716Z" fill="#497DF9"/>
<path fill-rule="evenodd" clip-rule="evenodd" d="M19.761 8.9286C19.6264 8.79398 19.4081 8.79398 19.2734 8.9286L18.9286 9.27343C18.83 9.37204 18.8005 9.52033 18.8539 9.64917C18.9073 9.778 19.033 9.86202 19.1724 9.86205C19.3552 9.86205 19.4052 9.77205 19.761 9.41618C19.8956 9.28153 19.8956 9.06325 19.761 8.9286Z" fill="#497DF9"/>
<path fill-rule="evenodd" clip-rule="evenodd" d="M17.5493 10.6529L17.2045 10.9978C17.0738 11.1331 17.0757 11.3482 17.2087 11.4812C17.3417 11.6142 17.5567 11.616 17.692 11.4854L18.0369 11.1405C18.1676 11.0052 18.1657 10.7902 18.0327 10.6572C17.8997 10.5241 17.6846 10.5223 17.5493 10.6529Z" fill="#497DF9"/>
<path fill-rule="evenodd" clip-rule="evenodd" d="M19.4162 10.6529C19.2809 10.5223 19.0659 10.5241 18.9328 10.6572C18.7998 10.7902 18.798 11.0052 18.9286 11.1405C19.2942 11.5064 19.338 11.5864 19.5173 11.5864C19.6567 11.5864 19.7824 11.5024 19.8358 11.3735C19.8891 11.2447 19.8596 11.0964 19.7611 10.9978L19.4162 10.6529Z" fill="#497DF9"/>
<path fill-rule="evenodd" clip-rule="evenodd" d="M18.0369 9.27366L17.692 8.92883C17.5567 8.79815 17.3417 8.80002 17.2087 8.93303C17.0757 9.06604 17.0738 9.28111 17.2045 9.41641L17.5493 9.76124C17.6846 9.89192 17.8997 9.89005 18.0327 9.75704C18.1657 9.62403 18.1676 9.40896 18.0369 9.27366Z" fill="#497DF9"/>
<path fill-rule="evenodd" clip-rule="evenodd" d="M21.83 5.13563C21.6953 5.00101 21.4771 5.00101 21.3424 5.13563L20.9976 5.48046C20.899 5.57908 20.8695 5.72737 20.9229 5.8562C20.9762 5.98503 21.1019 6.06905 21.2414 6.06908C21.4241 6.06908 21.4741 5.97908 21.83 5.62322C21.9646 5.48856 21.9646 5.27028 21.83 5.13563Z" fill="#EF716B"/>
<path fill-rule="evenodd" clip-rule="evenodd" d="M20.1059 6.85975C19.9712 6.72514 19.7529 6.72514 19.6183 6.85975L19.2735 7.20458C19.1749 7.3032 19.1454 7.45149 19.1987 7.58032C19.2521 7.70915 19.3778 7.79317 19.5172 7.7932C19.7 7.7932 19.75 7.7032 20.1059 7.34734C20.2405 7.21268 20.2405 6.99441 20.1059 6.85975Z" fill="#EF716B"/>
<path fill-rule="evenodd" clip-rule="evenodd" d="M21.4852 6.85949C21.3499 6.72881 21.1348 6.73068 21.0018 6.86369C20.8688 6.9967 20.8669 7.21178 20.9976 7.34708C21.3631 7.71294 21.4069 7.79294 21.5862 7.79294C21.7257 7.79291 21.8514 7.7089 21.9047 7.58006C21.9581 7.45123 21.9286 7.30294 21.83 7.20432L21.4852 6.85949Z" fill="#EF716B"/>
<path fill-rule="evenodd" clip-rule="evenodd" d="M20.1058 5.4802L19.761 5.13537C19.6257 5.00469 19.4106 5.00656 19.2776 5.13957C19.1446 5.27258 19.1428 5.48765 19.2734 5.62296L19.6183 5.96779C19.7536 6.09847 19.9686 6.0966 20.1016 5.96358C20.2347 5.83057 20.2365 5.6155 20.1058 5.4802Z" fill="#EF716B"/>
</svg>
