<svg width="28" height="28" viewBox="0 0 28 28" fill="none" xmlns="http://www.w3.org/2000/svg">
<path fill-rule="evenodd" clip-rule="evenodd" d="M23.8849 14.8672H21.0099L19.452 12.4562L16.6085 19.2069L11.1896 10.5576L8.85997 14.8672H4.11523C4.29824 15.2605 4.50324 15.6514 4.73085 16.0392C5.66237 17.6266 6.96604 19.1692 8.60555 20.6241C10.9034 22.6632 13.2164 23.9516 13.9998 24.3615C14.7864 23.9494 17.1179 22.6497 19.4182 20.6031C21.0518 19.1497 22.3504 17.6092 23.278 16.0244C23.5021 15.6414 23.7042 15.2555 23.8849 14.8672Z" fill="#497DF9"/>
<path fill-rule="evenodd" clip-rule="evenodd" d="M3.59847 13.5781H8.09141L11.1074 7.99867L16.3836 16.42L19.2108 9.70784L21.7116 13.5781H24.4015C24.7992 12.3986 25 11.201 25 9.99663C25 6.69307 22.3123 4.00537 19.0087 4.00537C17.2742 4.00537 15.6259 4.75681 14.4863 6.06697L14 6.62612L13.5137 6.06697C12.3741 4.75681 10.7258 4.00537 8.99122 4.00537C5.68765 4.00537 3 6.69302 3 9.99663C3 11.201 3.20079 12.3986 3.59847 13.5781Z" fill="#EF716B"/>
</svg>
