<svg width="29" height="28" viewBox="0 0 29 28" fill="none" xmlns="http://www.w3.org/2000/svg">
<rect opacity="0.01" width="28" height="28" fill="#D8D8D8" stroke="#979797"/>
<path fill-rule="evenodd" clip-rule="evenodd" d="M13.8724 5.30273C11.3866 5.30273 9.36407 7.32485 9.36407 9.81105V12.0012C9.36407 14.487 11.3866 16.5096 13.8724 16.5096C15.5958 16.5096 17.097 15.5372 17.8549 14.1121C17.2975 14.3302 16.6974 14.4464 16.0837 14.4464H14.7735C14.4 14.4464 14.0976 14.1437 14.0976 13.7706C14.0976 13.397 14.4 13.0947 14.7735 13.0947H16.0837C16.9313 13.0947 17.7427 12.7874 18.3739 12.2472C18.3784 12.1657 18.3807 12.0836 18.3807 12.0012V9.81101C18.3807 7.32485 16.3581 5.30273 13.8724 5.30273Z" fill="#5A5987"/>
<path fill-rule="evenodd" clip-rule="evenodd" d="M20.222 9.09966H20.1427C19.7883 5.95343 17.1117 3.5 13.8724 3.5C10.6331 3.5 7.95646 5.95343 7.60204 9.09962H7.5228C6.53662 9.09962 5.73431 9.90196 5.73431 10.8881C5.73431 11.8742 6.53662 12.6766 7.5228 12.6766H8.23762C8.61086 12.6766 8.91348 12.374 8.91348 12.0007V9.81054C8.91348 7.07619 11.1381 4.85163 13.8724 4.85163C16.6068 4.85163 18.8314 7.07619 18.8314 9.81058V11.7749C18.6931 11.9474 18.5396 12.1053 18.374 12.2468C18.3379 12.9177 18.1541 13.5499 17.8549 14.1117C18.6211 13.8124 19.3075 13.3213 19.8402 12.6766H20.222C21.2082 12.6766 22.0105 11.8742 22.0105 10.8881C22.0105 9.90196 21.2081 9.09966 20.222 9.09966Z" fill="#5A5987"/>
<path fill-rule="evenodd" clip-rule="evenodd" d="M24.1984 23.6163L22.1722 17.3329C22.1193 17.1691 22.0061 17.0316 21.8554 16.9485L18.7511 15.2363C17.8184 16.6393 16.2978 17.6189 14.5438 17.8213V24.4996H23.5551C24.0144 24.4996 24.3385 24.0511 24.1984 23.6163Z" fill="#5A5987"/>
<path fill-rule="evenodd" clip-rule="evenodd" d="M8.99392 15.2363L5.8897 16.9485C5.73905 17.0316 5.62572 17.1691 5.57285 17.3328L3.54672 23.6163C3.40604 24.0527 3.73219 24.4996 4.18993 24.4996H13.201V17.8213C11.4471 17.6188 9.92666 16.6392 8.99392 15.2363Z" fill="#5A5987"/>
</svg>
