<svg width="28" height="28" viewBox="0 0 28 28" fill="none" xmlns="http://www.w3.org/2000/svg">
<path fill-rule="evenodd" clip-rule="evenodd" d="M14 4C8.50745 4 4 8.50745 4 14C4 19.4926 8.50745 24 14 24C15.7499 24 17.4727 23.5377 18.9815 22.6627L18.3933 21.6488C17.063 22.4201 15.5437 22.8281 14 22.8281C9.1535 22.8281 5.17188 18.8465 5.17188 14C5.17188 9.1535 9.1535 5.17188 14 5.17188C18.8465 5.17188 22.8281 9.1535 22.8281 14C22.8281 15.5587 22.4203 17.0807 21.6562 18.4031V16.9688H20.4844V20.4844H24V19.3125H22.4756C23.4598 17.7372 24 15.8663 24 14C24 8.50745 19.4926 4 14 4Z" fill="#5A5987"/>
<path fill-rule="evenodd" clip-rule="evenodd" d="M14 7.51562C10.4461 7.51562 7.51562 10.4461 7.51562 14C7.51562 17.5539 10.4461 20.4844 14 20.4844C17.5539 20.4844 20.4844 17.5539 20.4844 14C20.4844 10.4461 17.5539 7.51562 14 7.51562ZM18.1016 14.5859H13.4141V9.85938H14.5859V13.4141H18.1016V14.5859Z" fill="#5A5987"/>
</svg>
