<svg width="40" height="40" viewBox="0 0 40 40" fill="none" xmlns="http://www.w3.org/2000/svg">
<rect x="26.8965" y="6.5376" width="3.44831" height="4.54635" fill="#5B5D6E"/>
<path fill-rule="evenodd" clip-rule="evenodd" d="M35.5173 14.4938L20 6.5376L4.48279 14.4938V34.3843H35.5173V14.4938Z" fill="#497DF9"/>
<path d="M35.5173 14.4939L34.3679 13.9044V34.3843H35.5173V14.4939Z" fill="white"/>
<path d="M4.48279 14.4939V34.3843H5.6322V13.9044L4.48279 14.4939Z" fill="white"/>
<rect x="10.2299" y="18.4717" width="6.89648" height="9.0927" fill="#B4E1FA"/>
<rect x="10.2299" y="18.4717" width="6.89648" height="1.70491" fill="#A0D2F0"/>
<path d="M10.8047 18.472H10.23V22.5132L13.1035 27.5648H15.9771L10.8047 18.472Z" fill="#A0D2F0"/>
<path d="M17.1265 23.5236L14.253 18.472H12.5288L17.1265 26.5545V23.5236Z" fill="#DAF0FD"/>
<path d="M15.2228 20.1769L14.253 18.472H12.5288L13.4987 20.1769H15.2228Z" fill="#B4E1FA"/>
<path fill-rule="evenodd" clip-rule="evenodd" d="M17.7012 26.9965V18.472C17.7012 18.1582 17.4442 17.9037 17.1265 17.9037H10.2299C9.91228 17.9037 9.65518 18.1582 9.65518 18.472V26.9965C9.3378 26.9965 9.08044 27.251 9.08044 27.5648C9.08044 27.8787 9.3378 28.1332 9.65518 28.1332H17.7012C18.0186 28.1332 18.276 27.8787 18.276 27.5648C18.276 27.251 18.0186 26.9965 17.7012 26.9965ZM13.6782 19.0403H16.5518V22.45H10.8047V19.0402L13.6782 19.0403ZM10.8047 26.9965V23.5866H16.5518V26.9965H10.8047Z" fill="white"/>
<path d="M4.48279 14.4938V16.5328L5.6322 15.9403L20 8.5917L34.3679 15.945L35.5173 16.5328V14.4938L20 6.5376L4.48279 14.4938Z" fill="#C7CFE2"/>
<path d="M19.2079 5.23794L3.78324 13.1272C3.50688 13.2685 3.33337 13.5504 3.33337 13.8581V14.7365C3.33337 15.1442 3.77016 15.4071 4.13637 15.2198L20 7.10598L35.8637 15.2198C36.2299 15.4071 36.6667 15.1442 36.6667 14.7365V13.8581C36.6667 13.5504 36.4932 13.2685 36.2168 13.1272L20.7922 5.23794C20.2954 4.98384 19.7047 4.98384 19.2079 5.23794Z" fill="#707487"/>
<rect x="4.48279" y="30.9745" width="31.0345" height="2.84163" fill="#5A5987"/>
<rect x="21.724" y="18.4717" width="9.19531" height="15.9122" fill="#E4EAF6"/>
<rect x="24.0228" y="20.7449" width="4.59766" height="6.81953" fill="#B4E1FA"/>
<rect x="24.0228" y="20.7449" width="4.59766" height="1.70491" fill="#A0D2F0"/>
<path d="M24.0231 27.5648H27.9024L24.0231 20.7452V27.5648Z" fill="#A0D2F0"/>
<path d="M28.6208 20.7451H25.7472L28.6208 25.7966V20.7451Z" fill="#DAF0FD"/>
<path d="M26.717 22.45H28.6208V20.7451H25.7472L26.717 22.45Z" fill="#B4E1FA"/>
<path fill-rule="evenodd" clip-rule="evenodd" d="M30.9195 34.9527H21.7242C21.4068 34.9527 21.1494 34.6982 21.1494 34.3844V18.472C21.1494 18.1582 21.4068 17.9037 21.7242 17.9037H30.9195C31.2369 17.9037 31.4943 18.1582 31.4943 18.472V34.3844C31.4943 34.6982 31.2369 34.9527 30.9195 34.9527ZM22.2988 33.8161H30.3448V19.0403H22.2988V33.8161Z" fill="white"/>
<path fill-rule="evenodd" clip-rule="evenodd" d="M24.023 28.1331H28.6207C28.9383 28.1331 29.1954 27.8786 29.1954 27.5648V20.7452C29.1954 20.4314 28.9383 20.1769 28.6207 20.1769H24.023C23.7053 20.1769 23.4482 20.4314 23.4482 20.7452V27.5648C23.4482 27.8786 23.7053 28.1331 24.023 28.1331ZM28.046 26.9965H24.5977V21.3135H28.046V26.9965Z" fill="white"/>
<path d="M35.9698 34.9527H4.03019C3.87543 34.9527 3.75 34.8255 3.75 34.6685V34.1002C3.75 33.9433 3.87543 33.816 4.03019 33.816H35.9698C36.1246 33.816 36.25 33.9433 36.25 34.1002V34.6685C36.25 34.8254 36.1246 34.9527 35.9698 34.9527Z" fill="#8F96AC"/>
<path d="M30.6323 7.10601H26.6093C26.4505 7.10601 26.3219 6.9788 26.3219 6.82185V6.25352C26.3219 6.09657 26.4505 5.96936 26.6093 5.96936H30.6323C30.791 5.96936 30.9196 6.09657 30.9196 6.25352V6.82185C30.9196 6.9788 30.791 7.10601 30.6323 7.10601Z" fill="#6F7589"/>
</svg>
