<svg width="28" height="28" viewBox="0 0 28 28" fill="none" xmlns="http://www.w3.org/2000/svg">
<path d="M13.7921 1.49805H26.428V26.9888H1.57214V1.49805H4.99503" fill="#F9F9F9"/>
<path d="M13.7921 1.49805H26.428V4.11884H1.57214V1.49805H4.99503" fill="#DDDDDE"/>
<path d="M10.4045 2.49041H26.428H27.5441C27.7959 2.49041 28 2.28637 28 2.03459V0.96168C28 0.709953 27.7959 0.505859 27.5441 0.505859H11.5795H7.20695H0.455942C0.204216 0.505859 0.00012207 0.709898 0.00012207 0.96168V2.03465C0.00012207 2.28638 0.204161 2.49047 0.455942 2.49047H1.57211H7.60021" fill="#525C66"/>
<circle cx="9.39372" cy="5.74052" r="5.1497" fill="#C6CAD5"/>
<circle cx="9.39372" cy="5.16826" r="5.1497" fill="white"/>
<path d="M12.4008 4.1579H10.6324C10.5066 4.1579 10.4045 4.05585 10.4045 3.92991V2.16159C10.4045 2.0357 10.3024 1.93359 10.1765 1.93359H8.61038C8.48449 1.93359 8.38239 2.03564 8.38239 2.16159V3.92996C8.38239 4.05585 8.28034 4.15795 8.15439 4.15795H6.38607C6.26018 4.15795 6.15808 4.26 6.15808 4.38595V5.95203C6.15808 6.07792 6.26013 6.18002 6.38607 6.18002H8.15439C8.28028 6.18002 8.38239 6.28207 8.38239 6.40802V8.17634C8.38239 8.30223 8.48443 8.40433 8.61038 8.40433H10.1765C10.3024 8.40433 10.4045 8.30228 10.4045 8.17634V6.40802C10.4045 6.28212 10.5065 6.18002 10.6324 6.18002H12.4008C12.5267 6.18002 12.6288 6.07798 12.6288 5.95203V4.38595C12.6288 4.26 12.5267 4.1579 12.4008 4.1579Z" fill="#D81616"/>
<rect x="17.2004" y="12.0469" width="2.78491" height="5.08539" fill="#497DF9"/>
<rect x="8.01477" y="12.0469" width="2.78491" height="5.08539" fill="#497DF9"/>
<rect x="21.793" y="12.0469" width="2.78491" height="5.08539" fill="#497DF9"/>
<rect x="12.6073" y="12.0469" width="2.78491" height="5.08539" fill="#497DF9"/>
<rect x="3.42236" y="12.0469" width="2.78491" height="5.08539" fill="#497DF9"/>
<rect x="8.01477" y="18.8604" width="2.78491" height="5.08539" fill="#497DF9"/>
<rect x="12.6073" y="18.8604" width="2.78491" height="5.08539" fill="#497DF9"/>
<rect x="3.42236" y="18.8604" width="2.78491" height="5.08539" fill="#497DF9"/>
<rect x="17.2004" y="5.23242" width="2.78491" height="5.08539" fill="#497DF9"/>
<rect x="21.793" y="5.23242" width="2.78491" height="5.08539" fill="#497DF9"/>
<path fill-rule="evenodd" clip-rule="evenodd" d="M17.2003 17.4752H19.9852C20.1744 17.4752 20.328 17.3217 20.328 17.1323V12.0469C20.328 11.8577 20.1745 11.7041 19.9852 11.7041H17.2003C17.011 11.7041 16.8574 11.8576 16.8574 12.0469V17.1323C16.8574 17.3216 17.0109 17.4752 17.2003 17.4752ZM19.6423 16.7894H17.5431V12.3898H19.6423V16.7894Z" fill="white"/>
<path fill-rule="evenodd" clip-rule="evenodd" d="M8.01508 17.4752H10.8C10.9893 17.4752 11.1428 17.3217 11.1428 17.1323V12.0469C11.1428 11.8577 10.9893 11.7041 10.8 11.7041H8.01508C7.8258 11.7041 7.67224 11.8576 7.67224 12.0469V17.1323C7.67224 17.3216 7.82575 17.4752 8.01508 17.4752ZM10.4571 16.7894H8.35791V12.3898H10.4571V16.7894Z" fill="white"/>
<path fill-rule="evenodd" clip-rule="evenodd" d="M21.7929 17.4752H24.5778C24.7671 17.4752 24.9207 17.3217 24.9207 17.1323V12.0469C24.9207 11.8577 24.7671 11.7041 24.5778 11.7041H21.7929C21.6036 11.7041 21.4501 11.8576 21.4501 12.0469V17.1323C21.4501 17.3216 21.6036 17.4752 21.7929 17.4752ZM24.2349 16.7894H22.1357V12.3898H24.2349V16.7894Z" fill="white"/>
<path fill-rule="evenodd" clip-rule="evenodd" d="M12.6076 17.4752H15.3925C15.5818 17.4752 15.7353 17.3217 15.7353 17.1323V12.0469C15.7353 11.8577 15.5818 11.7041 15.3925 11.7041H12.6076C12.4183 11.7041 12.2648 11.8576 12.2648 12.0469V17.1323C12.2648 17.3216 12.4183 17.4752 12.6076 17.4752ZM15.0496 16.7894H12.9504V12.3898H15.0496V16.7894Z" fill="white"/>
<path fill-rule="evenodd" clip-rule="evenodd" d="M3.42243 17.4752H6.20728C6.39666 17.4752 6.55017 17.3217 6.55017 17.1323V12.0469C6.55017 11.8577 6.39666 11.7041 6.20733 11.7041H3.42243C3.23315 11.7041 3.07959 11.8576 3.07959 12.0469V17.1323C3.07959 17.3216 3.2331 17.4752 3.42243 17.4752ZM5.86444 16.7894H3.76526V12.3898H5.86444V16.7894Z" fill="white"/>
<path fill-rule="evenodd" clip-rule="evenodd" d="M24.5778 18.8604H17.2003V25.996L24.5778 26.5675V18.8604Z" fill="#497DF9"/>
<path d="M24.9207 26.2818H24.2349V19.2032H17.5431V26.2818H16.8574V18.8604C16.8574 18.6711 17.011 18.5176 17.2003 18.5176H24.5778C24.7671 18.5176 24.9206 18.6711 24.9206 18.8604L24.9207 26.2818Z" fill="white"/>
<path fill-rule="evenodd" clip-rule="evenodd" d="M8.01508 24.2886H10.8C10.9893 24.2886 11.1428 24.1351 11.1428 23.9458V18.8604C11.1428 18.6711 10.9893 18.5176 10.8 18.5176H8.01508C7.8258 18.5176 7.67224 18.6711 7.67224 18.8604V23.9458C7.67224 24.1351 7.82575 24.2886 8.01508 24.2886ZM10.4571 23.6029H8.35791V19.2032H10.4571V23.6029Z" fill="white"/>
<path fill-rule="evenodd" clip-rule="evenodd" d="M12.6076 24.2886H15.3925C15.5818 24.2886 15.7353 24.1351 15.7353 23.9458V18.8604C15.7353 18.6711 15.5818 18.5176 15.3925 18.5176H12.6076C12.4183 18.5176 12.2648 18.6711 12.2648 18.8604V23.9458C12.2648 24.1351 12.4183 24.2886 12.6076 24.2886ZM15.0496 23.6029H12.9504V19.2032H15.0496V23.6029Z" fill="white"/>
<path fill-rule="evenodd" clip-rule="evenodd" d="M3.42243 24.2886H6.20728C6.39666 24.2886 6.55017 24.1351 6.55017 23.9458V18.8604C6.55017 18.6711 6.39666 18.5176 6.20733 18.5176H3.42243C3.23315 18.5176 3.07959 18.6711 3.07959 18.8604V23.9458C3.07959 24.1351 3.2331 24.2886 3.42243 24.2886ZM5.86444 23.6029H3.76526V19.2032H5.86444V23.6029Z" fill="white"/>
<path fill-rule="evenodd" clip-rule="evenodd" d="M17.2003 10.6608H19.9852C20.1744 10.6608 20.328 10.5073 20.328 10.3179V5.23248C20.328 5.04321 20.1745 4.88965 19.9852 4.88965H17.2003C17.011 4.88965 16.8574 5.04316 16.8574 5.23248V10.318C16.8574 10.5073 17.0109 10.6608 17.2003 10.6608ZM19.6423 9.97509H17.5431V5.57538H19.6423V9.97509Z" fill="white"/>
<path fill-rule="evenodd" clip-rule="evenodd" d="M21.7929 10.6608H24.5778C24.7671 10.6608 24.9207 10.5073 24.9207 10.3179V5.23248C24.9207 5.04321 24.7671 4.88965 24.5778 4.88965H21.7929C21.6036 4.88965 21.4501 5.04316 21.4501 5.23248V10.318C21.4501 10.5073 21.6036 10.6608 21.7929 10.6608ZM24.2349 9.97509H22.1357V5.57538H24.2349V9.97509Z" fill="white"/>
<rect x="17.2004" y="20.2607" width="7.37767" height="0.685727" fill="white"/>
<rect x="20.5461" y="20.6035" width="0.685727" height="5.96395" fill="white"/>
<rect x="8.01477" y="20.1465" width="2.78513" height="0.685727" fill="white"/>
<path d="M15.3927 20.8322H12.6075V20.1465H15.0498V18.8613H15.7356V20.4893C15.7355 20.6787 15.582 20.8322 15.3927 20.8322Z" fill="white"/>
<rect x="3.42249" y="20.1465" width="2.78458" height="0.685727" fill="white"/>
<path d="M24.5777 14.0183H21.7931V13.3326H24.2348V12.0469H24.9205V13.6754C24.9206 13.8647 24.7671 14.0183 24.5777 14.0183Z" fill="white"/>
<rect x="12.6073" y="13.333" width="2.78513" height="0.685727" fill="white"/>
<rect x="3.42249" y="13.333" width="2.78458" height="0.685727" fill="white"/>
<rect x="8.01477" y="13.333" width="2.78513" height="0.685727" fill="white"/>
<rect x="17.1998" y="13.333" width="2.78513" height="0.685727" fill="white"/>
<path d="M24.5777 7.20483H21.7931V6.5191H24.2348V5.2334H24.9205V6.86194C24.9206 7.05132 24.7671 7.20483 24.5777 7.20483Z" fill="white"/>
<rect x="17.1998" y="6.51855" width="2.78513" height="0.685727" fill="white"/>
<path d="M27.1616 25.9961H0.83825C0.37532 25.9961 0 26.3714 0 26.8343V27.9806H27.9998V26.8343C27.9998 26.3714 27.6245 25.9961 27.1616 25.9961Z" fill="#423E3E"/>
</svg>
