<svg width="28" height="28" viewBox="0 0 28 28" fill="none" xmlns="http://www.w3.org/2000/svg">
<path fill-rule="evenodd" clip-rule="evenodd" d="M22.3474 17.1277C21.1261 17.1277 19.927 16.9362 18.7906 16.5597C18.2338 16.3693 17.5492 16.544 17.2094 16.8939L14.9664 18.5915C12.3652 17.1994 10.763 15.5934 9.3934 13.0051L11.0368 10.8148C11.4637 10.3873 11.6169 9.76286 11.4334 9.17693C11.0563 8.03161 10.8647 6.8299 10.8647 5.6049C10.8647 4.71995 10.1466 4 9.26405 4H5.60068C4.71808 4 4 4.71995 4 5.60484C4 15.7481 12.2305 24 22.3474 24C23.23 24 23.9481 23.2801 23.9481 22.3952V18.7325C23.9481 17.8477 23.23 17.1277 22.3474 17.1277Z" fill="#5A5987"/>
</svg>
