<svg width="29" height="28" viewBox="0 0 29 28" fill="none" xmlns="http://www.w3.org/2000/svg">
<rect opacity="0.01" width="28" height="28" fill="#D8D8D8" stroke="#979797"/>
<path fill-rule="evenodd" clip-rule="evenodd" d="M14.1925 3.5C8.29642 3.5 3.5 8.29642 3.5 14.1925C3.5 20.0886 8.29642 24.885 14.1925 24.885C20.0886 24.885 24.885 20.0886 24.885 14.1925C24.885 8.29642 20.0886 3.5 14.1925 3.5ZM14.1925 7.95526C14.6844 7.95526 15.0835 8.35434 15.0835 8.84625C15.0835 9.33816 14.6844 9.73724 14.1925 9.73724C13.7006 9.73724 13.3015 9.33816 13.3015 8.84625C13.3015 8.35434 13.7006 7.95526 14.1925 7.95526ZM16.1973 20.4297H12.1877C11.6949 20.4297 11.2967 20.0307 11.2967 19.5387C11.2967 19.0468 11.6949 18.6478 12.1877 18.6478H13.3015V13.3015H12.6332C12.1405 13.3015 11.7421 12.9023 11.7421 12.4104C11.7421 11.9186 12.1405 11.5194 12.6332 11.5194H14.1925C14.6852 11.5194 15.0835 11.9186 15.0835 12.4104V18.6478H16.1973C16.6901 18.6478 17.0883 19.0468 17.0883 19.5387C17.0883 20.0307 16.6901 20.4297 16.1973 20.4297Z" fill="#5A5987"/>
</svg>
