<svg width="24" height="20" viewBox="0 0 24 20" fill="none" xmlns="http://www.w3.org/2000/svg">
<path fill-rule="evenodd" clip-rule="evenodd" d="M9.17373 7.98648C10.0273 7.67585 10.6506 6.72554 10.6506 5.60398V5.12984C10.6506 4.92858 10.4929 4.76562 10.2985 4.76562C10.1039 4.76562 9.94633 4.92858 9.94633 5.12984V5.60398C9.94633 6.57528 9.32861 7.36558 8.56936 7.36558H7.84767C7.65309 7.36558 7.49554 7.52854 7.49554 7.72961C7.49554 7.85335 7.55536 7.96254 7.6465 8.02846C7.57815 8.09475 7.53524 8.18884 7.53524 8.29361C7.53524 8.49469 7.69297 8.65783 7.88736 8.65783H8.61333C9.81175 8.65783 10.7868 9.66614 10.7868 10.9057V18.9291C10.7868 19.1304 10.9445 19.2934 11.1389 19.2934C11.3333 19.2934 11.491 19.1302 11.491 18.9291V10.9059C11.4908 9.46304 10.493 8.25697 9.17373 7.98648Z" fill="#EF716B"/>
<path fill-rule="evenodd" clip-rule="evenodd" d="M3.47891 1.02337C4.5132 0.497118 5.78248 0.537812 6.8109 1.24617C8.34845 2.30475 8.76501 4.4523 7.7414 6.04247C7.72111 6.07395 7.70135 6.10526 7.68177 6.13656C7.46743 6.48126 7.47829 6.92078 7.6864 7.26953C7.82739 7.50596 7.90999 7.79192 7.90999 8.09997C7.90999 8.40802 7.82757 8.6938 7.68657 8.93023C7.47722 9.28155 7.46904 9.7231 7.68568 10.0698C7.69548 10.0853 7.70527 10.1009 7.71506 10.1166C8.73511 11.7213 8.34026 13.9212 6.78562 14.9713C6.22237 15.3517 5.58808 15.5342 4.96074 15.5342C3.87999 15.5342 2.81953 14.9934 2.1751 13.9935C0.952464 12.0968 0.332779 10.1136 0.333313 8.09923C0.333847 6.08721 0.952998 4.1052 2.17385 2.20845C2.23118 2.11951 2.29224 2.03463 2.35597 1.95287C2.35597 1.95287 2.74298 1.41042 3.47891 1.02337Z" fill="#EF716B"/>
<path fill-rule="evenodd" clip-rule="evenodd" d="M3.6256 13.9934C2.40314 12.0967 1.78328 10.1136 1.78381 8.09917C1.78435 6.08714 2.40368 4.10514 3.62435 2.20857C3.68168 2.11945 3.74292 2.03456 3.80647 1.95281L4.92941 1.0233C5.17116 0.900302 5.42591 0.808788 5.68724 0.748945C4.93956 0.576596 4.15859 0.677501 3.47891 1.0233C3.05452 1.238 2.68459 1.55618 2.35597 1.95281C2.29224 2.03456 2.23118 2.11945 2.17385 2.20838C0.952998 4.10514 0.333847 6.08714 0.333313 8.09917C0.332779 10.1136 0.952464 12.0967 2.1751 13.9934C2.81971 14.9933 3.87999 15.5341 4.96074 15.5341C5.20249 15.5341 5.44549 15.5067 5.68493 15.4514C4.87173 15.2653 4.12423 14.7668 3.6256 13.9934Z" fill="#EF716B"/>
<path fill-rule="evenodd" clip-rule="evenodd" d="M14.8116 7.98648C13.958 7.67585 13.3348 6.72554 13.3348 5.60398V5.12984C13.3348 4.92858 13.4925 4.76562 13.6869 4.76562C13.8813 4.76562 14.039 4.92858 14.039 5.12984V5.60398C14.039 6.57528 14.6567 7.36558 15.416 7.36558H16.1377C16.3322 7.36558 16.4898 7.52854 16.4898 7.72961C16.4898 7.85335 16.43 7.96254 16.3388 8.02846C16.4072 8.09475 16.4501 8.18884 16.4501 8.29361C16.4501 8.49469 16.2924 8.65783 16.098 8.65783H15.372C14.1736 8.65783 13.1986 9.66614 13.1986 10.9057V18.9291C13.1986 19.1304 13.0408 19.2934 12.8464 19.2934C12.652 19.2934 12.4943 19.1302 12.4943 18.9291V10.9059C12.4945 9.46304 13.4923 8.25697 14.8116 7.98648Z" fill="#497DF9"/>
<path fill-rule="evenodd" clip-rule="evenodd" d="M21.644 1.95287C21.7022 2.03886 21.7688 2.11951 21.8261 2.20845C23.0468 4.1052 23.6661 6.08721 23.6667 8.09923C23.6672 10.1136 23.0473 12.0968 21.8249 13.9935C21.1803 14.9934 20.12 15.5342 19.0392 15.5342C18.4119 15.5342 17.7776 15.3517 17.2142 14.9713C15.6595 13.9212 15.2647 11.7213 16.2848 10.1166C16.2947 10.1009 16.3045 10.0853 16.3141 10.0698C16.5308 9.7231 16.5228 9.28155 16.3134 8.93023C16.1724 8.6938 16.09 8.40802 16.09 8.09997C16.09 7.79192 16.1724 7.50614 16.3136 7.26953C16.5215 6.92078 16.5324 6.48126 16.318 6.13656C16.2986 6.10526 16.2787 6.07395 16.2584 6.04247C15.235 4.4523 15.6515 2.30475 17.1889 1.24617C18.2175 0.537812 19.4868 0.497118 20.5211 1.02337C20.5211 1.02337 21.34 1.50414 21.644 1.95287Z" fill="#497DF9"/>
<path fill-rule="evenodd" clip-rule="evenodd" d="M21.8261 2.20834C21.7688 2.1194 21.7077 2.03452 21.644 1.95276C21.3068 1.56388 20.934 1.25067 20.521 1.02326C19.8091 0.661071 18.9856 0.567532 18.2062 0.775418C18.4298 0.834524 18.6481 0.9172 18.8565 1.02326L19.9795 1.95276C20.0432 2.03452 20.1043 2.1194 20.1616 2.20834C21.3825 4.10509 22.0016 6.0871 22.0021 8.09912C22.0027 10.1135 21.3828 12.0967 20.1604 13.9934C19.6836 14.7327 18.9796 15.2208 18.208 15.425C18.482 15.498 18.7613 15.534 19.0392 15.534C20.1199 15.534 21.1804 14.9932 21.8248 13.9934C23.0473 12.0967 23.6672 10.1135 23.6666 8.09912C23.6661 6.0871 23.0469 4.10509 21.8261 2.20834Z" fill="#497DF9"/>
</svg>
