<svg width="28" height="28" viewBox="0 0 28 28" fill="none" xmlns="http://www.w3.org/2000/svg">
<path fill-rule="evenodd" clip-rule="evenodd" d="M17.4756 15.8122C17.0157 15.8122 16.644 16.1848 16.644 16.6438V19.9708C16.644 20.429 16.2713 20.8024 15.8122 20.8024H13.317V8.32678C13.317 7.6165 12.8646 6.98191 12.1843 6.74571L11.938 6.66332H15.8122C16.2713 6.66332 16.644 7.03673 16.644 7.49513V9.99025C16.644 10.4493 17.0157 10.8219 17.4756 10.8219C17.9356 10.8219 18.3073 10.4493 18.3073 9.99025V7.49513C18.3073 6.11949 17.1878 5 15.8122 5H6.87135C6.83967 5 6.81317 5.01416 6.78241 5.01827C6.74235 5.01492 6.70413 5 6.66347 5C5.74607 5 5 5.74592 5 6.66332V21.6341C5 22.3444 5.45245 22.979 6.13274 23.2152L11.1381 24.8836C11.3077 24.936 11.4765 24.961 11.6537 24.961C12.5711 24.961 13.317 24.2149 13.317 23.2975V22.4659H15.8122C17.1878 22.4659 18.3073 21.3464 18.3073 19.9708V16.6438C18.3073 16.1848 17.9356 15.8122 17.4756 15.8122Z" fill="#EF716B"/>
<path fill-rule="evenodd" clip-rule="evenodd" d="M24.7174 12.7289L21.3904 9.40212C21.1527 9.16424 20.795 9.09267 20.484 9.2215C20.1738 9.35049 19.9708 9.65401 19.9708 9.99011V12.4852H16.644C16.1848 12.4852 15.8122 12.8577 15.8122 13.3169C15.8122 13.7761 16.1848 14.1486 16.644 14.1486H19.9708V16.6437C19.9708 16.9798 20.1738 17.2833 20.484 17.4123C20.795 17.5411 21.1527 17.4696 21.3904 17.2318L24.7174 13.9049C25.0425 13.5798 25.0425 13.054 24.7174 12.7289Z" fill="#EF716B"/>
</svg>
