<svg width="28" height="28" viewBox="0 0 28 28" fill="none" xmlns="http://www.w3.org/2000/svg">
<path fill-rule="evenodd" clip-rule="evenodd" d="M18.5245 15.5717C16.2211 14.8194 15.2637 13.8838 15.2637 13.8838L15.1866 13.9573C14.5026 14.6011 13.746 14.9796 13.0569 14.9796H12.9918C12.3027 14.9796 11.5462 14.6011 10.8622 13.9573L10.785 13.8838C10.785 13.8838 9.82765 14.8193 7.52429 15.5717C4.12412 16.8419 5.14507 22.011 5.14408 22.051C5.25117 22.6267 5.31359 22.8246 5.36798 22.8468C8.78248 24.3669 17.2663 24.3669 20.6808 22.8468C20.7352 22.8246 20.7976 22.6267 20.9047 22.051C20.9038 22.011 21.9383 16.8624 18.5245 15.5717Z" fill="#497DF9"/>
<rect x="12" y="16" width="2" height="2" rx="1" fill="#EF716B"/>
<rect x="14" y="16" width="1" height="1" rx="0.5" fill="#EF716B"/>
<rect x="11" y="16" width="1" height="1" rx="0.5" fill="#EF716B"/>
<rect x="14" y="17" width="1" height="1" rx="0.5" fill="#EF716B"/>
<rect x="11" y="17" width="1" height="1" rx="0.5" fill="#EF716B"/>
<path fill-rule="evenodd" clip-rule="evenodd" d="M16.5953 8.97708L16.5667 8.94614C16.3754 8.77097 16.3904 8.78101 16.3904 8.78101C16.3904 8.78101 16.7241 7.09728 16.4565 6.30105C16.0364 5.02946 13.5272 4.1772 13.0239 4.07814C13.024 4.0772 12.7178 4.01593 12.6983 4.01581C12.6983 4.01581 12.3024 3.93577 11.8436 4.13589C11.5448 4.25085 9.9826 4.95925 9.5392 6.30105C9.27166 7.09728 9.60535 8.78101 9.60535 8.78101C9.60535 8.78101 9.62031 8.77097 9.42895 8.94614L9.40047 8.97708C9.27104 9.12405 9.30301 9.58388 9.44449 10.0623C9.57268 10.5416 9.73977 10.6704 9.77981 10.7827C10.1857 12.6883 11.5969 14.3153 13.0351 14.3153C14.4733 14.3153 15.81 12.6883 16.2158 10.7827C16.2559 10.6704 16.423 10.5416 16.5512 10.0623C16.6927 9.58384 16.7284 9.09245 16.5953 8.97708Z" fill="#497DF9"/>
</svg>
