<svg width="277" height="160" viewBox="0 0 277 160" fill="none" xmlns="http://www.w3.org/2000/svg">
<rect x="39" y="61" width="51" height="4" rx="2" fill="#BCD0FF"/>
<mask id="path-2-inside-1" fill="white">
<path fill-rule="evenodd" clip-rule="evenodd" d="M204.062 69.2087C202.624 69.2087 201.458 70.3802 201.458 71.823V81.14C201.458 86.4864 197.125 90.8369 191.799 90.8369H176.956C176.265 90.8369 175.603 91.1114 175.114 91.6016L157.118 109.669V93.4513C157.118 92.0069 155.952 90.8369 154.514 90.8369H117.229C111.903 90.8369 107.57 86.4873 107.57 81.14V41.5918C107.57 36.2454 111.903 31.8958 117.229 31.8958H191.799C197.125 31.8958 201.458 36.2454 201.458 41.5918V50.908C201.458 52.3524 202.624 53.5224 204.062 53.5224C205.5 53.5224 206.667 52.3524 206.667 50.908V41.5918C206.667 33.3623 199.998 26.667 191.799 26.667H117.229C109.031 26.667 102.362 33.3623 102.362 41.5918V75.1792H83.4074C77.8532 75.1792 73.3333 79.7152 73.3333 85.2928V109.384C73.3333 114.962 77.8532 119.498 83.4074 119.498H91.372L104.279 132.456C104.778 132.957 105.444 133.223 106.121 133.223C106.457 133.223 106.796 133.157 107.117 133.023C108.091 132.619 108.726 131.666 108.726 130.608V119.498H128.835C134.39 119.498 138.909 114.962 138.909 109.384V96.0657H151.91V115.98C151.91 117.038 152.545 117.991 153.518 118.395C153.839 118.529 154.178 118.594 154.514 118.594C155.192 118.594 155.858 118.329 156.356 117.828L178.034 96.0657H191.799C199.998 96.0657 206.667 89.3704 206.667 81.14V71.823C206.667 70.3802 205.5 69.2087 204.062 69.2087ZM133.701 109.384C133.701 112.079 131.519 114.269 128.835 114.269H106.121C104.683 114.269 103.517 115.441 103.517 116.883V124.297L94.292 115.035C93.8037 114.545 93.1413 114.269 92.4503 114.269H83.4074C80.7243 114.269 78.5416 112.079 78.5416 109.384V85.2928C78.5416 82.5992 80.7243 80.408 83.4074 80.408H102.362V81.14C102.362 89.3704 109.031 96.0657 117.229 96.0657H133.701V109.384Z"/>
</mask>
<path fill-rule="evenodd" clip-rule="evenodd" d="M204.062 69.2087C202.624 69.2087 201.458 70.3802 201.458 71.823V81.14C201.458 86.4864 197.125 90.8369 191.799 90.8369H176.956C176.265 90.8369 175.603 91.1114 175.114 91.6016L157.118 109.669V93.4513C157.118 92.0069 155.952 90.8369 154.514 90.8369H117.229C111.903 90.8369 107.57 86.4873 107.57 81.14V41.5918C107.57 36.2454 111.903 31.8958 117.229 31.8958H191.799C197.125 31.8958 201.458 36.2454 201.458 41.5918V50.908C201.458 52.3524 202.624 53.5224 204.062 53.5224C205.5 53.5224 206.667 52.3524 206.667 50.908V41.5918C206.667 33.3623 199.998 26.667 191.799 26.667H117.229C109.031 26.667 102.362 33.3623 102.362 41.5918V75.1792H83.4074C77.8532 75.1792 73.3333 79.7152 73.3333 85.2928V109.384C73.3333 114.962 77.8532 119.498 83.4074 119.498H91.372L104.279 132.456C104.778 132.957 105.444 133.223 106.121 133.223C106.457 133.223 106.796 133.157 107.117 133.023C108.091 132.619 108.726 131.666 108.726 130.608V119.498H128.835C134.39 119.498 138.909 114.962 138.909 109.384V96.0657H151.91V115.98C151.91 117.038 152.545 117.991 153.518 118.395C153.839 118.529 154.178 118.594 154.514 118.594C155.192 118.594 155.858 118.329 156.356 117.828L178.034 96.0657H191.799C199.998 96.0657 206.667 89.3704 206.667 81.14V71.823C206.667 70.3802 205.5 69.2087 204.062 69.2087ZM133.701 109.384C133.701 112.079 131.519 114.269 128.835 114.269H106.121C104.683 114.269 103.517 115.441 103.517 116.883V124.297L94.292 115.035C93.8037 114.545 93.1413 114.269 92.4503 114.269H83.4074C80.7243 114.269 78.5416 112.079 78.5416 109.384V85.2928C78.5416 82.5992 80.7243 80.408 83.4074 80.408H102.362V81.14C102.362 89.3704 109.031 96.0657 117.229 96.0657H133.701V109.384Z" fill="#6A96FF"/>
<path d="M204.062 69.2087V69.7087V69.2087ZM175.114 91.6016L174.76 91.2485L174.76 91.2488L175.114 91.6016ZM157.118 109.669H156.618V110.879L157.473 110.021L157.118 109.669ZM102.362 75.1792V75.6792H102.862V75.1792H102.362ZM91.372 119.498L91.7263 119.145L91.5797 118.998H91.372V119.498ZM104.279 132.456L103.925 132.809L103.925 132.809L104.279 132.456ZM107.117 133.023L106.926 132.561L106.925 132.562L107.117 133.023ZM108.726 119.498V118.998H108.226V119.498H108.726ZM138.909 96.0657V95.5657H138.409V96.0657H138.909ZM151.91 96.0657H152.41V95.5657H151.91V96.0657ZM153.518 118.395L153.71 117.933L153.71 117.933L153.518 118.395ZM156.356 117.828L156.002 117.475L156.001 117.475L156.356 117.828ZM178.034 96.0657V95.5657H177.826L177.68 95.7128L178.034 96.0657ZM103.517 124.297L103.163 124.65L104.017 125.507V124.297H103.517ZM94.292 115.035L93.9377 115.388L94.292 115.035ZM102.362 80.408H102.862V79.908H102.362V80.408ZM133.701 96.0657H134.201V95.5657H133.701V96.0657ZM204.062 68.7087C202.345 68.7087 200.958 70.1061 200.958 71.823H201.958C201.958 70.6543 202.902 69.7087 204.062 69.7087V68.7087ZM200.958 71.823V81.14H201.958V71.823H200.958ZM200.958 81.14C200.958 86.2121 196.847 90.3369 191.799 90.3369V91.3369C197.403 91.3369 201.958 86.7607 201.958 81.14H200.958ZM191.799 90.3369H176.956V91.3369H191.799V90.3369ZM176.956 90.3369C176.132 90.3369 175.343 90.6644 174.76 91.2485L175.468 91.9548C175.863 91.5585 176.398 91.3369 176.956 91.3369V90.3369ZM174.76 91.2488L156.764 109.316L157.473 110.021L175.468 91.9545L174.76 91.2488ZM157.618 109.669V93.4513H156.618V109.669H157.618ZM157.618 93.4513C157.618 91.7325 156.23 90.3369 154.514 90.3369V91.3369C155.674 91.3369 156.618 92.2813 156.618 93.4513H157.618ZM154.514 90.3369H117.229V91.3369H154.514V90.3369ZM117.229 90.3369C112.181 90.3369 108.07 86.2129 108.07 81.14H107.07C107.07 86.7616 111.626 91.3369 117.229 91.3369V90.3369ZM108.07 81.14V41.5918H107.07V81.14H108.07ZM108.07 41.5918C108.07 36.5198 112.181 32.3958 117.229 32.3958V31.3958C111.626 31.3958 107.07 35.9711 107.07 41.5918H108.07ZM117.229 32.3958H191.799V31.3958H117.229V32.3958ZM191.799 32.3958C196.847 32.3958 200.958 36.5198 200.958 41.5918H201.958C201.958 35.9711 197.403 31.3958 191.799 31.3958V32.3958ZM200.958 41.5918V50.908H201.958V41.5918H200.958ZM200.958 50.908C200.958 52.6267 202.346 54.0224 204.062 54.0224V53.0224C202.902 53.0224 201.958 52.0782 201.958 50.908H200.958ZM204.062 54.0224C205.777 54.0224 207.167 52.6269 207.167 50.908H206.167C206.167 52.078 205.222 53.0224 204.062 53.0224V54.0224ZM207.167 50.908V41.5918H206.167V50.908H207.167ZM207.167 41.5918C207.167 33.0879 200.276 26.167 191.799 26.167V27.167C199.72 27.167 206.167 33.6366 206.167 41.5918H207.167ZM191.799 26.167H117.229V27.167H191.799V26.167ZM117.229 26.167C108.753 26.167 101.862 33.0879 101.862 41.5918H102.862C102.862 33.6366 109.309 27.167 117.229 27.167V26.167ZM101.862 41.5918V75.1792H102.862V41.5918H101.862ZM102.362 74.6792H83.4074V75.6792H102.362V74.6792ZM83.4074 74.6792C77.5752 74.6792 72.8333 79.4408 72.8333 85.2928H73.8333C73.8333 79.9895 78.1311 75.6792 83.4074 75.6792V74.6792ZM72.8333 85.2928V109.384H73.8333V85.2928H72.8333ZM72.8333 109.384C72.8333 115.236 77.5752 119.998 83.4074 119.998V118.998C78.1311 118.998 73.8333 114.688 73.8333 109.384H72.8333ZM83.4074 119.998H91.372V118.998H83.4074V119.998ZM91.0178 119.851L103.925 132.809L104.633 132.103L91.7263 119.145L91.0178 119.851ZM103.925 132.809C104.519 133.406 105.314 133.723 106.121 133.723V132.723C105.575 132.723 105.036 132.508 104.633 132.103L103.925 132.809ZM106.121 133.723C106.522 133.723 106.926 133.645 107.31 133.485L106.925 132.562C106.666 132.67 106.392 132.723 106.121 132.723V133.723ZM107.309 133.485C108.47 133.003 109.226 131.867 109.226 130.608H108.226C108.226 131.465 107.712 132.235 106.926 132.561L107.309 133.485ZM109.226 130.608V119.498H108.226V130.608H109.226ZM108.726 119.998H128.835V118.998H108.726V119.998ZM128.835 119.998C134.668 119.998 139.409 115.236 139.409 109.384H138.409C138.409 114.688 134.112 118.998 128.835 118.998V119.998ZM139.409 109.384V96.0657H138.409V109.384H139.409ZM138.909 96.5657H151.91V95.5657H138.909V96.5657ZM151.41 96.0657V115.98H152.41V96.0657H151.41ZM151.41 115.98C151.41 117.239 152.166 118.374 153.326 118.857L153.71 117.933C152.924 117.607 152.41 116.837 152.41 115.98H151.41ZM153.326 118.856C153.709 119.016 154.113 119.094 154.514 119.094V118.094C154.243 118.094 153.97 118.042 153.71 117.933L153.326 118.856ZM154.514 119.094C155.322 119.094 156.117 118.778 156.71 118.181L156.001 117.475C155.599 117.88 155.062 118.094 154.514 118.094V119.094ZM156.71 118.181L178.388 96.4185L177.68 95.7128L156.002 117.475L156.71 118.181ZM178.034 96.5657H191.799V95.5657H178.034V96.5657ZM191.799 96.5657C200.276 96.5657 207.167 89.6447 207.167 81.14H206.167C206.167 89.0961 199.72 95.5657 191.799 95.5657V96.5657ZM207.167 81.14V71.823H206.167V81.14H207.167ZM207.167 71.823C207.167 70.1059 205.778 68.7087 204.062 68.7087V69.7087C205.222 69.7087 206.167 70.6545 206.167 71.823H207.167ZM133.201 109.384C133.201 111.804 131.241 113.769 128.835 113.769V114.769C131.796 114.769 134.201 112.353 134.201 109.384H133.201ZM128.835 113.769H106.121V114.769H128.835V113.769ZM106.121 113.769C104.404 113.769 103.017 115.167 103.017 116.883H104.017C104.017 115.715 104.961 114.769 106.121 114.769V113.769ZM103.017 116.883V124.297H104.017V116.883H103.017ZM103.871 123.944L94.6462 114.683L93.9377 115.388L103.163 124.65L103.871 123.944ZM94.6462 114.683C94.0645 114.099 93.2748 113.769 92.4503 113.769V114.769C93.0077 114.769 93.5429 114.992 93.9377 115.388L94.6462 114.683ZM92.4503 113.769H83.4074V114.769H92.4503V113.769ZM83.4074 113.769C81.0022 113.769 79.0416 111.804 79.0416 109.384H78.0416C78.0416 112.353 80.4463 114.769 83.4074 114.769V113.769ZM79.0416 109.384V85.2928H78.0416V109.384H79.0416ZM79.0416 85.2928C79.0416 82.8735 81.0022 80.908 83.4074 80.908V79.908C80.4463 79.908 78.0416 82.3249 78.0416 85.2928H79.0416ZM83.4074 80.908H102.362V79.908H83.4074V80.908ZM101.862 80.408V81.14H102.862V80.408H101.862ZM101.862 81.14C101.862 89.6447 108.753 96.5657 117.229 96.5657V95.5657C109.309 95.5657 102.862 89.0961 102.862 81.14H101.862ZM117.229 96.5657H133.701V95.5657H117.229V96.5657ZM133.201 96.0657V109.384H134.201V96.0657H133.201Z" fill="white" mask="url(#path-2-inside-1)"/>
<path d="M129.124 44.0498H179.905C181.204 44.0498 182.259 45.1077 182.259 46.4142C182.259 47.7214 181.204 48.7786 179.905 48.7786H129.124C127.824 48.7786 126.769 47.7214 126.769 46.4142C126.769 45.1077 127.825 44.0498 129.124 44.0498Z" fill="#6A96FF" stroke="white" stroke-width="0.5"/>
<path d="M179.905 58.168C181.204 58.168 182.259 59.2259 182.259 60.5323C182.259 61.8396 181.204 62.8967 179.905 62.8967H129.124C127.824 62.8967 126.769 61.8396 126.769 60.5323C126.769 59.2259 127.825 58.168 129.124 58.168H179.905Z" fill="#6A96FF" stroke="white" stroke-width="0.5"/>
<path d="M126.769 74.6495C126.769 73.3431 127.825 72.2852 129.124 72.2852H158.42C159.719 72.2852 160.775 73.3431 160.775 74.6495C160.775 75.9568 159.719 77.0139 158.42 77.0139H129.124C127.824 77.0139 126.769 75.9568 126.769 74.6495Z" fill="#6A96FF" stroke="white" stroke-width="0.5"/>
<path d="M201.708 61.3654C201.708 60.063 202.768 59.001 204.062 59.001C205.357 59.001 206.417 60.063 206.417 61.3654C206.417 62.6685 205.357 63.7297 204.062 63.7297C202.768 63.7297 201.708 62.6685 201.708 61.3654Z" fill="#6A96FF" stroke="white" stroke-width="0.5"/>
<rect y="129" width="64" height="4" rx="2" fill="#BCD0FF"/>
<rect x="212" y="116" width="35" height="4" rx="2" fill="#BCD0FF"/>
<rect x="229" y="65" width="48" height="4" rx="2" fill="#BCD0FF"/>
<circle cx="52" cy="32" r="5.1" stroke="#BCD0FF" stroke-width="1.8"/>
<circle cx="252" cy="84" r="3.4" stroke="#BCD0FF" stroke-width="1.2"/>
<circle cx="237" cy="55" r="1.5" stroke="#BCD0FF"/>
<rect x="178" y="8" width="3" height="1" fill="#BCD0FF"/>
<rect x="184" y="8" width="3" height="1" fill="#BCD0FF"/>
<rect x="182" y="10" width="1" height="3" fill="#BCD0FF"/>
<rect x="182" y="4" width="1" height="3" fill="#BCD0FF"/>
<rect x="123" y="12.667" width="2" height="0.666667" fill="#BCD0FF"/>
<rect x="127" y="12.667" width="2" height="0.666667" fill="#BCD0FF"/>
<rect x="125.667" y="14" width="0.666667" height="2" fill="#BCD0FF"/>
<rect x="125.667" y="10" width="0.666667" height="2" fill="#BCD0FF"/>
<rect x="92" y="5.77734" width="1.33333" height="0.444444" fill="#BCD0FF"/>
<rect x="94.6667" y="5.77734" width="1.33333" height="0.444444" fill="#BCD0FF"/>
<rect x="93.7778" y="6.66699" width="0.444444" height="1.33333" fill="#BCD0FF"/>
<rect x="93.7778" y="4" width="0.444444" height="1.33333" fill="#BCD0FF"/>
<rect x="241" y="26" width="4" height="1" fill="#BCD0FF"/>
<rect x="252" y="26" width="4" height="1" fill="#BCD0FF"/>
<rect x="248" y="30" width="1" height="4" fill="#BCD0FF"/>
<rect x="248" y="19" width="1" height="4" fill="#BCD0FF"/>
</svg>
