<svg width="20" height="20" viewBox="0 0 20 20" fill="none" xmlns="http://www.w3.org/2000/svg">
<path d="M13.7281 5.68094C13.7281 6.78403 13.3495 7.73885 12.6027 8.51933C11.8559 9.29969 10.942 9.69528 9.88631 9.69528H9.88449C8.83016 9.6949 7.91688 9.29931 7.17007 8.51933C6.42313 7.73885 6.04468 6.78403 6.04468 5.68094C6.04468 4.57824 6.42313 3.6233 7.17007 2.84294C7.91651 2.06283 8.8298 1.66737 9.88449 1.66699H9.88631C10.9416 1.66699 11.8555 2.06258 12.6027 2.84294C13.3495 3.6233 13.7281 4.57824 13.7281 5.68094Z" fill="#FFBB85"/>
<path d="M16.6407 15.4673C16.6407 16.3375 16.3758 17.0421 15.854 17.561C15.3383 18.0739 14.6562 18.3336 13.8269 18.3336H6.14679C5.31747 18.3336 4.6354 18.0739 4.12004 17.561C3.59787 17.0417 3.33331 16.3373 3.33331 15.4673C3.33331 15.1326 3.3439 14.8015 3.36507 14.4831C3.38661 14.1576 3.43018 13.8033 3.49443 13.4296C3.55917 13.0528 3.64241 12.6967 3.74207 12.3711C3.84551 12.0342 3.98545 11.7018 4.15861 11.3834C4.33847 11.0529 4.54973 10.765 4.78654 10.528C5.03478 10.2799 5.33828 10.0807 5.68911 9.93547C6.03873 9.79102 6.42631 9.71777 6.84103 9.71777C7.00373 9.71777 7.16132 9.78733 7.46505 9.99408C7.65513 10.1237 7.87418 10.2712 8.11597 10.4326C8.32479 10.5718 8.6076 10.7022 8.95722 10.8201C9.26448 10.924 9.57638 10.982 9.8845 10.992C9.91845 10.9933 9.9524 10.9939 9.98635 10.9939C10.3285 10.9939 10.6746 10.9353 11.0158 10.8201C11.3655 10.7022 11.6486 10.5718 11.8573 10.4326C12.1017 10.2695 12.3207 10.1221 12.508 9.99447C12.812 9.78733 12.9693 9.71777 13.1324 9.71777C13.5468 9.71777 13.9343 9.79102 14.2842 9.93547C14.635 10.0807 14.9385 10.2803 15.1865 10.528C15.4237 10.765 15.635 11.0529 15.8147 11.3834C15.988 11.7021 16.1282 12.0342 16.2312 12.3708C16.331 12.6967 16.4145 13.0528 16.4792 13.4299C16.5431 13.8039 16.5868 14.1582 16.6082 14.4828C16.6298 14.8002 16.6404 15.1313 16.6407 15.4673Z" fill="#6AA9FF"/>
<path d="M9.88635 9.69528H9.88452V1.66699H9.88635C10.9416 1.66699 11.8555 2.06258 12.6027 2.84294C13.3495 3.6233 13.7281 4.57824 13.7281 5.68094C13.7281 6.78403 13.3495 7.73885 12.6027 8.51933C11.8559 9.29969 10.942 9.69528 9.88635 9.69528Z" fill="#FFBB85"/>
<path fill-rule="evenodd" clip-rule="evenodd" d="M16.6408 15.4673C16.6408 16.3375 16.3758 17.0421 15.854 17.561C15.3383 18.0739 14.6562 18.3336 13.8269 18.3336H9.88452V10.992C9.91847 10.9933 9.95242 10.9939 9.98638 10.9939C10.3286 10.9939 10.6747 10.9353 11.0159 10.8201C11.3655 10.7022 11.6487 10.5718 11.8574 10.4326C12.1017 10.2695 12.3208 10.1221 12.508 9.99447C12.812 9.78733 12.9694 9.71777 13.1324 9.71777C13.5468 9.71777 13.9344 9.79102 14.2842 9.93547C14.6351 10.0807 14.9386 10.2803 15.1866 10.528C15.4237 10.765 15.635 11.0529 15.8147 11.3834C15.988 11.7021 16.1282 12.0342 16.2313 12.3708C16.3311 12.6967 16.4145 13.0528 16.4793 13.4299C16.5432 13.8039 16.5868 14.1582 16.6083 14.4828C16.6298 14.8002 16.6404 15.1313 16.6408 15.4673Z" fill="#497DF9"/>
</svg>
