<svg width="51" height="56" viewBox="0 0 51 56" fill="none" xmlns="http://www.w3.org/2000/svg">
<path fill-rule="evenodd" clip-rule="evenodd" d="M45.3263 47.0972V15.2345V9.16357H20.5649C21.1634 10.3937 21.4994 11.774 21.4994 13.2313C21.4994 13.3853 21.4954 13.5384 21.488 13.6907H32.9424C33.5388 13.6907 34.0221 14.174 34.0221 14.7704C34.0221 15.3667 33.5388 15.8501 32.9424 15.8501H21.1609C21.149 15.8501 21.1373 15.8487 21.1254 15.8482C20.6938 17.3227 19.9072 18.6468 18.8649 19.7217H41.213C41.8093 19.7217 42.2927 20.205 42.2927 20.8014C42.2927 21.3977 41.8093 21.8811 41.213 21.8811H15.6645C14.5846 22.3189 13.4051 22.5607 12.1701 22.5607C10.9737 22.5607 9.8293 22.3341 8.77722 21.9219V45.9238C8.77722 47.1972 9.81326 48.2332 11.0867 48.2332H45.5282V48.2331C45.3977 47.8789 45.3263 47.4962 45.3263 47.0972ZM23.3229 40.0685H12.8906C12.2942 40.0685 11.8109 39.5851 11.8109 38.9888C11.8109 38.3925 12.2942 37.9091 12.8906 37.9091H23.3229C23.9193 37.9091 24.4026 38.3925 24.4026 38.9888C24.4026 39.5851 23.9193 40.0685 23.3229 40.0685ZM23.3229 34.4376H12.8906C12.2942 34.4376 11.8109 33.9542 11.8109 33.3579C11.8109 32.7615 12.2942 32.2782 12.8906 32.2782H23.3229C23.9193 32.2782 24.4026 32.7615 24.4026 33.3579C24.4026 33.9542 23.9193 34.4376 23.3229 34.4376ZM23.3229 28.8065H12.8906C12.2942 28.8065 11.8109 28.3232 11.8109 27.7268C11.8109 27.1305 12.2942 26.6471 12.8906 26.6471H23.3229C23.9193 26.6471 24.4026 27.1305 24.4026 27.7268C24.4026 28.3232 23.9193 28.8065 23.3229 28.8065ZM42.2927 38.9888C42.2927 39.5851 41.8093 40.0685 41.213 40.0685H29.4539C28.8576 40.0685 28.3742 39.5851 28.3742 38.9888V27.7268C28.3742 27.1305 28.8576 26.6471 29.4539 26.6471H41.213C41.8093 26.6471 42.2927 27.1305 42.2927 27.7268V38.9888Z" fill="white"/>
<path fill-rule="evenodd" clip-rule="evenodd" d="M47.4857 16.3142V47.0972C47.4857 47.7236 47.9954 48.2332 48.6218 48.2332H49.0787H49.3604C50.6338 48.2332 51.6699 47.1973 51.6699 45.9237V16.3142H47.4857Z" fill="white"/>
<path fill-rule="evenodd" clip-rule="evenodd" d="M12.17 6.06128C8.21649 6.06128 5 9.27768 5 13.2312C5 17.1848 8.21658 20.4013 12.17 20.4013C16.1235 20.4013 19.3401 17.1848 19.3401 13.2312C19.3401 9.27768 16.1236 6.06128 12.17 6.06128ZM14.636 12.8679L13.0689 15.2231C12.8687 15.5239 12.5313 15.7047 12.17 15.7047C11.8085 15.7047 11.4713 15.5239 11.2711 15.2231L9.70392 12.8678C9.31734 12.2869 9.38662 11.5313 9.87246 11.0303C10.3582 10.5293 11.1114 10.4367 11.704 10.8052L12.17 11.095L12.6359 10.8052C13.2286 10.4367 13.9817 10.5291 14.4675 11.0303C14.9535 11.5312 15.0227 12.2869 14.636 12.8679Z" fill="white"/>
</svg>
