<svg width="28" height="28" viewBox="0 0 28 28" fill="none" xmlns="http://www.w3.org/2000/svg">
<path fill-rule="evenodd" clip-rule="evenodd" d="M5.3913 14.4604C6.95091 13.4061 8.95991 13.3048 10.6162 14.1965C12.2724 15.0883 13.306 16.8282 13.3043 18.7212C13.3043 18.8616 13.2999 19.0018 13.287 19.1376H22.6956C23.4151 19.1356 23.998 18.5481 24 17.8226V12.8691H5.3913V14.4604ZM17.5 14.5568C18.1393 14.5568 18.7257 14.915 19.0217 15.4863C19.3881 14.7798 20.1855 14.4167 20.9533 14.6068C21.7213 14.7971 22.261 15.4912 22.261 16.2883C22.261 17.0856 21.7213 17.7798 20.9533 17.97C20.1855 18.1601 19.3881 17.7971 19.0217 17.0905C18.6314 17.8435 17.7571 18.1994 16.9575 17.9313C16.1581 17.6631 15.6697 16.85 15.8045 16.0114C15.9392 15.1729 16.6574 14.5568 17.5 14.5568Z" fill="#5A5987"/>
<path fill-rule="evenodd" clip-rule="evenodd" d="M18.3478 16.2933C18.3478 16.7654 17.9682 17.1481 17.5 17.1481C17.0317 17.1481 16.6522 16.7654 16.6522 16.2933C16.6522 15.8212 17.0317 15.4385 17.5 15.4385C17.9682 15.4385 18.3478 15.8212 18.3478 16.2933Z" fill="#5A5987"/>
<path fill-rule="evenodd" clip-rule="evenodd" d="M22.6956 7H6.69564C5.97621 7.00205 5.39333 7.58973 5.3913 8.31507V9.19178H24V8.31507C23.9995 7.58904 23.4158 7.00051 22.6956 7Z" fill="#5A5987"/>
<path fill-rule="evenodd" clip-rule="evenodd" d="M8.21739 14.4697C5.88825 14.4697 4 16.3735 4 18.7218C4 21.0702 5.88825 22.9738 8.21739 22.9738C10.5465 22.9738 12.4348 21.0702 12.4348 18.7218C12.4326 16.3743 10.5457 14.472 8.21739 14.4697ZM8.21739 18.2396C9.01376 18.2396 9.68818 18.8315 9.79772 19.6269C9.90727 20.4221 9.41848 21.1771 8.65217 21.3958V21.7509C8.65217 21.993 8.45754 22.1892 8.21739 22.1892C7.97724 22.1892 7.78261 21.993 7.78261 21.7509V21.3958C7.0963 21.1992 6.62262 20.5677 6.62177 19.8485C6.62177 19.6064 6.81641 19.4101 7.05656 19.4101C7.29671 19.4101 7.49134 19.6064 7.49134 19.8485C7.49134 20.2528 7.81641 20.5805 8.21739 20.5805C8.61838 20.5805 8.94344 20.2528 8.94344 19.8485C8.94344 19.444 8.61838 19.1163 8.21739 19.1163C7.42103 19.1165 6.7466 18.5243 6.63706 17.7291C6.52751 16.9339 7.0163 16.179 7.78261 15.9601V15.6971C7.78261 15.4552 7.97724 15.2588 8.21739 15.2588C8.45754 15.2588 8.65217 15.4552 8.65217 15.6971V15.9601C9.33849 16.1569 9.81216 16.7884 9.81301 17.5076C9.81301 17.7497 9.61838 17.9459 9.37823 17.9459C9.13808 17.9459 8.94344 17.7497 8.94344 17.5076C8.94344 17.1033 8.61838 16.7755 8.21739 16.7755C7.81641 16.7755 7.49134 17.1033 7.49134 17.5076C7.49134 17.9118 7.81641 18.2396 8.21739 18.2396Z" fill="#5A5987"/>
<path fill-rule="evenodd" clip-rule="evenodd" d="M21.3913 16.2933C21.3913 16.7654 21.0117 17.1481 20.5435 17.1481C20.0753 17.1481 19.6957 16.7654 19.6957 16.2933C19.6957 15.8212 20.0753 15.4385 20.5435 15.4385C21.0117 15.4385 21.3913 15.8212 21.3913 16.2933Z" fill="#5A5987"/>
<path fill-rule="evenodd" clip-rule="evenodd" d="M5.3913 10.0684H24V11.9971H5.3913V10.0684Z" fill="#5A5987"/>
</svg>
