<svg width="96" height="96" viewBox="0 0 96 96" fill="none" xmlns="http://www.w3.org/2000/svg">
<path d="M85.8907 34.8134C87.01 36.7212 86.3685 39.1752 84.4587 40.2912L32.0929 70.89C30.1879 72.0031 27.7413 71.3635 26.6248 69.4605L13.0079 46.2515C11.8886 44.3437 12.5301 41.8896 14.4399 40.7737L66.8057 10.1749C68.7107 9.06172 71.1573 9.70131 72.2738 11.6043L85.8907 34.8134Z" fill="#31978C"/>
<path d="M65.6954 14.7441L18.9712 42.047C19.9875 43.7791 19.3636 46.029 17.5782 47.0723L28.1398 65.0736C29.9253 64.0303 32.1967 64.5884 33.2128 66.3204L79.9372 39.0176C78.921 37.2855 79.5445 35.0357 81.3304 33.9923L70.7684 15.991C68.9827 17.0346 66.7117 16.4762 65.6954 14.7441Z" fill="#44C4A1"/>
<ellipse cx="49.4542" cy="40.5308" rx="11.9076" ry="9.4164" transform="rotate(-120.35 49.4542 40.5308)" fill="#31978C"/>
<ellipse cx="72.4789" cy="27.0781" rx="2.13122" ry="2.1269" fill="#31978C"/>
<ellipse cx="26.426" cy="53.9921" rx="2.13122" ry="2.1269" fill="#3EA69B"/>
<path fill-rule="evenodd" clip-rule="evenodd" d="M53.8673 49.0586L53.0127 47.6019C51.0763 48.4837 49.0106 48.7172 46.8179 48.3019L47.259 45.7131C48.9483 46.03 50.4395 45.9349 51.7369 45.4275L49.4655 41.5561C47.7481 42.0777 46.3676 42.2499 45.3246 42.0733C44.2815 41.8968 43.4223 41.2332 42.7473 40.0827C42.0724 38.9322 41.9221 37.7562 42.2995 36.5523C42.6774 35.3491 43.493 34.3372 44.7476 33.5148L44.1621 32.517L45.4411 31.7695L46.038 32.787C47.567 32.0374 49.2459 31.7259 51.0756 31.8539L50.8525 34.4495C49.6054 34.3386 48.4272 34.5092 47.3141 34.9622L49.515 38.7135L49.5751 38.6783C51.319 38.1423 52.7299 37.9698 53.8078 38.1609C54.8878 38.3519 55.7686 39.0301 56.4512 40.1935C57.1343 41.3578 57.2774 42.5478 56.8795 43.7616C56.4826 44.977 55.6247 46.0136 54.3034 46.8751L55.1462 48.3114L53.8673 49.0586ZM44.8997 37.003C44.735 37.5005 44.7844 37.972 45.0459 38.4178C45.3073 38.8636 45.6476 39.138 46.0663 39.241C46.4841 39.3458 47.1379 39.2985 48.0254 39.1016L45.9998 35.6493C45.4309 36.0537 45.0641 36.5046 44.8997 37.003ZM54.1237 41.8086C54.3971 42.2747 54.4363 42.7698 54.2428 43.2928C54.0481 43.8176 53.6517 44.3 53.0507 44.7394L50.9437 41.1482C51.8832 40.9208 52.58 40.8571 53.0346 40.9578C53.4876 41.0596 53.8507 41.3434 54.1237 41.8086Z" fill="#44C4A1"/>
<path d="M64.0383 52.2227L52.5286 58.9481L34.8634 28.839L46.3731 22.1135L64.0383 52.2227Z" fill="#F6C358"/>
<path d="M54.262 57.9395L53.3819 58.4537L35.7167 28.3446L36.5968 27.8303L54.262 57.9395Z" fill="white"/>
<path d="M63.1862 52.7188L62.306 53.233L44.6408 23.1239L45.521 22.6096L63.1862 52.7188Z" fill="white"/>
<path d="M85.956 59.1572C86.3741 61.3276 84.9527 63.4257 82.782 63.8422L23.1923 75.2757C21.0239 75.6917 18.9285 74.2721 18.5108 72.104L13.4238 45.6987C13.0057 43.5283 14.4271 41.4301 16.5978 41.0136L76.1875 29.5801C78.3559 29.1641 80.4513 30.5837 80.869 32.7518L85.956 59.1572Z" fill="#3EA69B"/>
<path d="M20.7769 70.6619L16.0639 46.1913C17.4185 45.9315 18.3055 44.6251 18.0452 43.2732L75.6859 32.2168C75.9462 33.5687 77.2554 34.4539 78.6099 34.1941L83.3229 58.6647C81.9683 58.9245 81.0813 60.2309 81.3416 61.5828L23.701 72.6392C23.4407 71.2873 22.1315 70.4019 20.7769 70.6619Z" fill="#44C4A1"/>
<ellipse cx="49.69" cy="52.4266" rx="11.9015" ry="9.41999" transform="rotate(-100.883 49.69 52.4266)" fill="#3EA69B"/>
<ellipse cx="75.8928" cy="47.4023" rx="2.13122" ry="2.1269" fill="#3EA69B"/>
<ellipse cx="23.4904" cy="57.4531" rx="2.13122" ry="2.1269" fill="#3EA69B"/>
<path fill-rule="evenodd" clip-rule="evenodd" d="M51.0062 61.9355L50.687 60.2779C48.5668 60.4651 46.5413 59.9981 44.6127 58.8771L45.8932 56.5831C47.38 57.4438 48.8177 57.8503 50.2104 57.8034L49.3619 53.3979C47.5686 53.3184 46.2096 53.0214 45.285 52.508C44.3605 51.9945 43.7722 51.0832 43.52 49.7739C43.2678 48.4646 43.519 47.306 44.2769 46.2964C45.035 45.2877 46.1419 44.6049 47.5995 44.2467L47.3808 43.1111L48.8363 42.832L49.0592 43.9898C50.7511 43.7917 52.438 44.0565 54.1203 44.7858L53.0431 47.1587C51.9042 46.6394 50.7364 46.4083 49.5359 46.4651L50.358 50.7339L50.4265 50.7207C52.2496 50.7955 53.6374 51.1022 54.5899 51.641C55.5444 52.1803 56.1483 53.1126 56.4033 54.4367C56.6584 55.7617 56.3959 56.9312 55.6154 57.9431C54.8353 58.957 53.6802 59.6489 52.1467 60.0216L52.4615 61.6562L51.0062 61.9355ZM46.5779 47.5864C46.2564 48.0007 46.1455 48.4617 46.2431 48.969C46.3408 49.4763 46.5699 49.8482 46.9302 50.0846C47.2889 50.3223 47.9215 50.4952 48.8239 50.6049L48.0672 46.6761C47.3958 46.8681 46.8992 47.1712 46.5779 47.5864ZM53.6693 55.1855C53.7714 55.7158 53.6429 56.1956 53.2859 56.6243C52.9272 57.0543 52.3922 57.3773 51.6789 57.5918L50.8917 53.505C51.8533 53.6031 52.5315 53.7748 52.9265 54.021C53.3197 54.2676 53.5673 54.656 53.6693 55.1855Z" fill="#44C4A1"/>
<path d="M35.8948 82.0684C35.8948 85.3004 29.6505 87.9206 21.9478 87.9206C14.245 87.9206 8.00079 85.3004 8.00079 82.0684V77.2812H35.8948V82.0684Z" fill="#F6C358"/>
<ellipse cx="21.9481" cy="77.2768" rx="13.9472" ry="5.84909" fill="#FCD462"/>
<path fill-rule="evenodd" clip-rule="evenodd" d="M9.77563 77.2812C9.77563 74.6805 15.2254 72.5723 21.9478 72.5723C28.6703 72.5723 34.12 74.6805 34.12 77.2812C34.12 79.882 28.6703 81.9902 21.9478 81.9902C15.2254 81.9902 9.77563 79.882 9.77563 77.2812ZM11.1282 77.2811C11.1282 79.5928 15.9724 81.4669 21.9478 81.4669C27.9233 81.4669 32.7675 79.593 32.7675 77.2811C32.7675 74.9693 27.9233 73.0953 21.9478 73.0953C15.9724 73.0953 11.1282 74.9693 11.1282 77.2811Z" fill="#DC8744"/>
<path fill-rule="evenodd" clip-rule="evenodd" d="M21.5021 80.5335V79.9605C19.6482 79.8873 17.9839 79.6022 16.5114 79.1053L17.9922 78.4226C19.128 78.8046 20.2969 79.032 21.5021 79.1053V77.5827C19.9734 77.4415 18.854 77.2557 18.1441 77.0255C17.4342 76.7952 17.0792 76.4538 17.0792 76.0014C17.0792 75.5488 17.487 75.1788 18.3059 74.8906C19.1247 74.6029 20.1896 74.4462 21.5021 74.4199V74.0273H22.7997V74.4275C24.2872 74.4697 25.6939 74.6657 27.0195 75.0164L25.7005 75.7385C24.8073 75.4927 23.8415 75.3409 22.7999 75.2832V76.7585H22.861C24.4161 76.9 25.5586 77.091 26.2883 77.3314C27.0197 77.5722 27.3846 77.9215 27.3846 78.3791C27.3846 78.8371 26.9652 79.2101 26.1265 79.4975C25.2878 79.7856 24.18 79.9423 22.7999 79.9686V80.5335H21.5021ZM20.0708 75.4678C19.7257 75.5853 19.554 75.732 19.554 75.9073C19.554 76.0825 19.6895 76.2213 19.9602 76.323C20.2293 76.4252 20.7444 76.5232 21.5021 76.6174V75.2595C20.8929 75.2806 20.4158 75.35 20.0708 75.4678ZM24.9096 78.454C24.9096 78.6372 24.7197 78.7889 24.3417 78.909C23.962 79.0294 23.4485 79.1029 22.7999 79.1287V77.7163C23.6104 77.8105 24.1651 77.9112 24.4639 78.0184C24.761 78.1257 24.9096 78.2709 24.9096 78.454Z" fill="#DC8744"/>
<path d="M35.8948 76.254C35.8948 79.4859 29.6505 82.1061 21.9478 82.1061C14.245 82.1061 8.00079 79.4861 8.00079 76.254V71.4668H35.8948V76.254Z" fill="#F6C358"/>
<ellipse cx="21.9481" cy="71.4702" rx="13.9472" ry="5.84909" fill="#FCD462"/>
<path fill-rule="evenodd" clip-rule="evenodd" d="M9.77563 71.4668C9.77563 68.866 15.2254 66.7578 21.9478 66.7578C28.6703 66.7578 34.12 68.866 34.12 71.4668C34.12 74.0675 28.6703 76.1757 21.9478 76.1757C15.2254 76.1757 9.77563 74.0675 9.77563 71.4668ZM11.1282 71.4666C11.1282 73.7783 15.9724 75.6524 21.9478 75.6524C27.9233 75.6524 32.7675 73.7785 32.7675 71.4666C32.7675 69.1549 27.9233 67.2808 21.9478 67.2808C15.9724 67.2808 11.1282 69.1549 11.1282 71.4666Z" fill="#DC8744"/>
<path fill-rule="evenodd" clip-rule="evenodd" d="M21.5021 74.719V74.146C19.6482 74.0729 17.9839 73.7877 16.5114 73.2909L17.9922 72.6082C19.128 72.9902 20.2969 73.2175 21.5021 73.2909V71.7683C19.9734 71.6271 18.854 71.4413 18.1441 71.211C17.4342 70.9808 17.0792 70.6393 17.0792 70.1869C17.0792 69.7344 17.487 69.3644 18.3059 69.0762C19.1247 68.7885 20.1896 68.6317 21.5021 68.6054V68.2129H22.7997V68.6131C24.2872 68.6552 25.6939 68.8513 27.0195 69.2019L25.7005 69.924C24.8073 69.6782 23.8415 69.5265 22.7999 69.4687V70.9441H22.861C24.4161 71.0856 25.5586 71.2766 26.2883 71.5171C27.0197 71.7579 27.3846 72.1073 27.3846 72.5649C27.3846 73.0228 26.9652 73.3959 26.1265 73.6832C25.2878 73.9713 24.18 74.128 22.7999 74.1543V74.7192H21.5021V74.719ZM20.0708 69.6534C19.7257 69.7709 19.554 69.9176 19.554 70.0928C19.554 70.2681 19.6895 70.4068 19.9602 70.5085C20.2293 70.6108 20.7444 70.7088 21.5021 70.8029V69.445C20.8929 69.4663 20.4158 69.5356 20.0708 69.6534ZM24.9096 72.6395C24.9096 72.8227 24.7197 72.9744 24.3417 73.0945C23.962 73.2149 23.4485 73.2884 22.7999 73.3142V71.9018C23.6104 71.9961 24.1651 72.0967 24.4639 72.204C24.761 72.3112 24.9096 72.4565 24.9096 72.6395Z" fill="#DC8744"/>
<path d="M35.8948 70.4395C35.8948 73.6715 29.6505 76.2917 21.9478 76.2917C14.245 76.2917 8.00079 73.6717 8.00079 70.4395V65.6523H35.8948V70.4395Z" fill="#F6C358"/>
<ellipse cx="21.9481" cy="65.6538" rx="13.9472" ry="5.84909" fill="#FCD462"/>
<path fill-rule="evenodd" clip-rule="evenodd" d="M9.77563 65.6523C9.77563 63.0516 15.2254 60.9434 21.9478 60.9434C28.6703 60.9434 34.12 63.0516 34.12 65.6523C34.12 68.2531 28.6703 70.3613 21.9478 70.3613C15.2254 70.3613 9.77563 68.2531 9.77563 65.6523ZM11.1282 65.6523C11.1282 67.964 15.9724 69.8381 21.9478 69.8381C27.9233 69.8381 32.7675 67.964 32.7675 65.6523C32.7675 63.3406 27.9233 61.4665 21.9478 61.4665C15.9724 61.4665 11.1282 63.3406 11.1282 65.6523Z" fill="#DC8744"/>
<path fill-rule="evenodd" clip-rule="evenodd" d="M21.5021 68.9065V68.3335C19.6482 68.2604 17.9839 67.9752 16.5114 67.4784L17.9922 66.7957C19.128 67.1777 20.2969 67.405 21.5021 67.4784V65.9558C19.9734 65.8146 18.854 65.6288 18.1441 65.3985C17.4342 65.1683 17.0792 64.8268 17.0792 64.3744C17.0792 63.922 17.487 63.5519 18.3059 63.2637C19.1247 62.976 20.1896 62.8192 21.5021 62.7929V62.4004H22.7997V62.8006C24.2872 62.8427 25.6939 63.0388 27.0195 63.3894L25.7005 64.1115C24.8073 63.8657 23.8415 63.714 22.7999 63.6562V65.1316H22.861C24.4161 65.2731 25.5586 65.4641 26.2883 65.7046C27.0197 65.9454 27.3846 66.2948 27.3846 66.7524C27.3846 67.2103 26.9652 67.5834 26.1265 67.8707C25.2878 68.1588 24.18 68.3155 22.7999 68.3418V68.9067H21.5021V68.9065ZM20.0708 63.8407C19.7257 63.9582 19.554 64.1049 19.554 64.2801C19.554 64.4554 19.6895 64.594 19.9602 64.6959C20.2293 64.7981 20.7444 64.8961 21.5021 64.9902V63.6324C20.8929 63.6536 20.4158 63.7229 20.0708 63.8407ZM24.9096 66.827C24.9096 67.0102 24.7197 67.1619 24.3417 67.282C23.962 67.4023 23.4485 67.4758 22.7999 67.5017V66.0893C23.6104 66.1836 24.1651 66.2842 24.4639 66.3915C24.761 66.4987 24.9096 66.644 24.9096 66.827Z" fill="#DC8744"/>
<path d="M35.8948 64.6251C35.8948 67.857 29.6505 70.4772 21.9478 70.4772C14.245 70.4772 8.00079 67.8572 8.00079 64.6251V59.8379H35.8948V64.6251Z" fill="#F6C358"/>
<ellipse cx="21.9481" cy="59.8374" rx="13.9472" ry="5.84909" fill="#FCD462"/>
<path fill-rule="evenodd" clip-rule="evenodd" d="M9.77563 59.8379C9.77563 57.2371 15.2254 55.1289 21.9478 55.1289C28.6703 55.1289 34.12 57.2371 34.12 59.8379C34.12 62.4386 28.6703 64.5468 21.9478 64.5468C15.2254 64.5468 9.77563 62.4386 9.77563 59.8379ZM11.1282 59.8379C11.1282 62.1496 15.9724 64.0237 21.9478 64.0237C27.9233 64.0237 32.7675 62.1496 32.7675 59.8379C32.7675 57.5261 27.9233 55.6521 21.9478 55.6521C15.9724 55.6521 11.1282 57.5261 11.1282 59.8379Z" fill="#DC8744"/>
<path fill-rule="evenodd" clip-rule="evenodd" d="M21.5021 63.0921V62.5191C19.6482 62.4459 17.9839 62.1608 16.5114 61.6639L17.9922 60.9811C19.128 61.3631 20.2969 61.5904 21.5021 61.6639V60.1413C19.9734 60.0001 18.854 59.8143 18.1441 59.5841C17.4342 59.3538 17.0792 59.0124 17.0792 58.56C17.0792 58.1076 17.487 57.7374 18.3059 57.4492C19.1247 57.1615 20.1896 57.0048 21.5021 56.9785V56.5859H22.7997V56.9861C24.2872 57.0283 25.6939 57.2243 27.0195 57.575L25.7005 58.2971C24.8073 58.0513 23.8415 57.8995 22.7999 57.8418V59.3171H22.861C24.4161 59.4586 25.5586 59.6496 26.2883 59.8901C27.0197 60.1309 27.3846 60.4803 27.3846 60.9379C27.3846 61.3958 26.9652 61.7689 26.1265 62.0563C25.2878 62.3443 24.18 62.5011 22.7999 62.5274V63.0922H21.5021V63.0921ZM20.0708 58.0263C19.7257 58.1437 19.554 58.2904 19.554 58.4657C19.554 58.6409 19.6895 58.7795 19.9602 58.8814C20.2293 58.9837 20.7444 59.0817 21.5021 59.1758V57.8179C20.8929 57.8392 20.4158 57.9085 20.0708 58.0263ZM24.9096 61.0126C24.9096 61.1958 24.7197 61.3475 24.3417 61.4676C23.962 61.588 23.4485 61.6613 22.7999 61.6873V60.2749C23.6104 60.3691 24.1651 60.4698 24.4639 60.577C24.761 60.6843 24.9096 60.8295 24.9096 61.0126Z" fill="#DC8744"/>
<path d="M65.3066 82.0684C65.3066 85.3004 59.0624 87.9206 51.3597 87.9206C43.6569 87.9206 37.4127 85.3006 37.4127 82.0684V77.2812H65.3066V82.0684Z" fill="#F6C358"/>
<ellipse cx="51.3585" cy="77.2768" rx="13.9472" ry="5.84909" fill="#FCD462"/>
<path fill-rule="evenodd" clip-rule="evenodd" d="M39.1874 77.2812C39.1874 74.6805 44.6372 72.5723 51.3596 72.5723C58.0822 72.5723 63.5318 74.6805 63.5318 77.2812C63.5318 79.882 58.0821 81.9902 51.3596 81.9902C44.6372 81.9902 39.1874 79.882 39.1874 77.2812ZM40.54 77.2811C40.54 79.5928 45.3842 81.4669 51.3596 81.4669C57.3351 81.4669 62.1793 79.593 62.1793 77.2811C62.1793 74.9693 57.3351 73.0953 51.3596 73.0953C45.3842 73.0953 40.54 74.9693 40.54 77.2811Z" fill="#DC8744"/>
<path fill-rule="evenodd" clip-rule="evenodd" d="M50.9139 80.5335V79.9605C49.06 79.8873 47.3957 79.6022 45.9232 79.1053L47.404 78.4226C48.5398 78.8046 49.7087 79.032 50.9139 79.1053V77.5827C49.3852 77.4415 48.2658 77.2557 47.5559 77.0255C46.846 76.7952 46.491 76.4538 46.491 76.0014C46.491 75.5488 46.8988 75.1788 47.7177 74.8906C48.5366 74.6029 49.6014 74.4462 50.9139 74.4199V74.0273H52.2115V74.4275C53.699 74.4697 55.1057 74.6657 56.4313 75.0164L55.1123 75.7385C54.2192 75.4927 53.2533 75.3409 52.2117 75.2832V76.7585H52.2728C53.8279 76.9 54.9704 77.091 55.7001 77.3314C56.4315 77.5722 56.7964 77.9215 56.7964 78.3791C56.7964 78.8371 56.377 79.2101 55.5383 79.4975C54.6996 79.7856 53.5918 79.9423 52.2117 79.9686V80.5335H50.9139ZM49.4826 75.4678C49.1375 75.5853 48.9658 75.732 48.9658 75.9073C48.9658 76.0825 49.1013 76.2213 49.372 76.323C49.6411 76.4252 50.1562 76.5232 50.9139 76.6174V75.2595C50.3047 75.2806 49.8276 75.35 49.4826 75.4678ZM54.3216 78.454C54.3216 78.6372 54.1317 78.7889 53.7536 78.909C53.3738 79.0294 52.8605 79.1029 52.2118 79.1287V77.7163C53.0224 77.8105 53.577 77.9112 53.8759 78.0184C54.173 78.1257 54.3216 78.2709 54.3216 78.454Z" fill="#DC8744"/>
<path d="M65.3066 76.254C65.3066 79.4859 59.0624 82.1061 51.3597 82.1061C43.6569 82.1061 37.4127 79.4861 37.4127 76.254V71.4668H65.3066V76.254Z" fill="#F6C358"/>
<ellipse cx="51.3585" cy="71.4702" rx="13.9472" ry="5.84909" fill="#FCD462"/>
<path fill-rule="evenodd" clip-rule="evenodd" d="M39.1874 71.4668C39.1874 68.866 44.6372 66.7578 51.3596 66.7578C58.0822 66.7578 63.5318 68.866 63.5318 71.4668C63.5318 74.0675 58.0821 76.1757 51.3596 76.1757C44.6372 76.1757 39.1874 74.0675 39.1874 71.4668ZM40.54 71.4666C40.54 73.7783 45.3842 75.6524 51.3596 75.6524C57.3351 75.6524 62.1793 73.7785 62.1793 71.4666C62.1793 69.1549 57.3351 67.2808 51.3596 67.2808C45.3842 67.2808 40.54 69.1549 40.54 71.4666Z" fill="#DC8744"/>
<path fill-rule="evenodd" clip-rule="evenodd" d="M50.9139 74.719V74.146C49.06 74.0729 47.3957 73.7877 45.9232 73.2909L47.404 72.6082C48.5398 72.9902 49.7087 73.2175 50.9139 73.2909V71.7683C49.3852 71.6271 48.2658 71.4413 47.5559 71.211C46.846 70.9808 46.491 70.6393 46.491 70.1869C46.491 69.7344 46.8988 69.3644 47.7177 69.0762C48.5366 68.7885 49.6014 68.6317 50.9139 68.6054V68.2129H52.2115V68.6131C53.699 68.6552 55.1057 68.8513 56.4313 69.2019L55.1123 69.924C54.2192 69.6782 53.2533 69.5265 52.2117 69.4687V70.9441H52.2728C53.8279 71.0856 54.9704 71.2766 55.7001 71.5171C56.4315 71.7579 56.7964 72.1073 56.7964 72.5649C56.7964 73.0228 56.377 73.3959 55.5383 73.6832C54.6996 73.9713 53.5918 74.128 52.2117 74.1543V74.7192H50.9139V74.719ZM49.4826 69.6534C49.1375 69.7709 48.9658 69.9176 48.9658 70.0928C48.9658 70.2681 49.1013 70.4068 49.372 70.5085C49.6411 70.6108 50.1562 70.7088 50.9139 70.8029V69.445C50.3047 69.4663 49.8276 69.5356 49.4826 69.6534ZM54.3216 72.6395C54.3216 72.8227 54.1317 72.9744 53.7536 73.0945C53.3738 73.2149 52.8605 73.2884 52.2118 73.3142V71.9018C53.0224 71.9961 53.577 72.0967 53.8759 72.204C54.173 72.3112 54.3216 72.4565 54.3216 72.6395Z" fill="#DC8744"/>
</svg>
