<svg width="40" height="40" viewBox="0 0 40 40" fill="none" xmlns="http://www.w3.org/2000/svg">
<rect x="12.1554" y="4.00537" width="15.6403" height="32.2581" rx="2" fill="#7CA3FF"/>
<path d="M23.3968 6.69354H16.5542L16.0654 4.00537H23.8856L23.3968 6.69354Z" fill="#787680"/>
<path fill-rule="evenodd" clip-rule="evenodd" d="M25.8406 3.33337H14.1104C12.7614 3.33504 11.6681 4.5376 11.6666 6.02155V33.9785C11.6681 35.4625 12.7614 36.665 14.1104 36.6667H25.8406C27.1897 36.665 28.2829 35.4625 28.2844 33.9785V6.02155C28.2829 4.5376 27.1897 3.33504 25.8406 3.33337ZM23.2894 4.40864L22.9962 6.02155H16.9549L16.6617 4.40864H23.2894ZM25.8406 35.5914C26.65 35.5904 27.306 34.8689 27.3069 33.9785V6.02155C27.306 5.13118 26.65 4.40964 25.8406 4.40864H24.2863L23.8761 6.66462C23.8304 6.91593 23.6298 7.09683 23.3968 7.09682H16.5542C16.3212 7.09683 16.1206 6.91593 16.0749 6.66462L15.6647 4.40864H14.1104C13.301 4.40964 12.6451 5.13118 12.6441 6.02155V33.9785C12.6451 34.8689 13.301 35.5904 14.1104 35.5914H25.8406Z" fill="black"/>
<path d="M17.043 33.4409H14.1105C13.8405 33.4409 13.6217 33.6816 13.6217 33.9786C13.6217 34.2755 13.8405 34.5162 14.1105 34.5162H17.043C17.3129 34.5162 17.5318 34.2755 17.5318 33.9786C17.5318 33.6816 17.3129 33.4409 17.043 33.4409Z" fill="black"/>
<path d="M18.998 33.4409H18.5093C18.2393 33.4409 18.0205 33.6816 18.0205 33.9786C18.0205 34.2755 18.2393 34.5162 18.5093 34.5162H18.998C19.268 34.5162 19.4868 34.2755 19.4868 33.9786C19.4868 33.6816 19.268 33.4409 18.998 33.4409Z" fill="black"/>
</svg>
