<svg width="12" height="16" viewBox="0 0 12 16" fill="none" xmlns="http://www.w3.org/2000/svg">
<path fill-rule="evenodd" clip-rule="evenodd" d="M11.4769 3.43059L8.26336 0.0980625C8.20517 0.0375312 8.12474 0 8.03572 0H1.28572C0.576944 0 0 0.597969 0 1.33334V14.6667C0 15.402 0.576944 16 1.28572 16H10.2857C10.9945 16 11.5714 15.402 11.5714 14.6667V3.66666C11.5714 3.57434 11.5352 3.49094 11.4769 3.43059ZM2.89286 14C2.36111 14 1.92857 13.5514 1.92857 13C1.92857 12.4486 2.36111 12 2.89286 12C3.4246 12 3.85714 12.4486 3.85714 13C3.85714 13.5514 3.4246 14 2.89286 14ZM2.89286 10.6667C2.36111 10.6667 1.92857 10.2181 1.92857 9.66666C1.92857 9.11522 2.36111 8.66666 2.89286 8.66666C3.4246 8.66666 3.85714 9.11522 3.85714 9.66666C3.85714 10.2181 3.4246 10.6667 2.89286 10.6667ZM4.82143 7.33334H3.5357C3.35803 7.33334 3.21427 7.18425 3.21427 7V6H2.24998C2.07231 6 1.92854 5.85091 1.92854 5.66666V4.33331C1.92854 4.14906 2.07231 3.99997 2.24998 3.99997H3.21427V3C3.21427 2.81575 3.35803 2.66666 3.5357 2.66666H4.82143C4.9991 2.66666 5.14287 2.81575 5.14287 3V4H6.10715C6.28482 4 6.42859 4.14909 6.42859 4.33334V5.66669C6.42859 5.85094 6.28482 6.00003 6.10715 6.00003H5.14287V7.00003C5.14287 7.18425 4.9991 7.33334 4.82143 7.33334ZM9.32142 13.3333H5.46428C5.28661 13.3333 5.14284 13.1842 5.14284 13C5.14284 12.8158 5.28661 12.6667 5.46428 12.6667H9.32142C9.49909 12.6667 9.64286 12.8158 9.64286 13C9.64286 13.1842 9.49909 13.3333 9.32142 13.3333ZM9.32142 10H5.46428C5.28661 10 5.14284 9.85091 5.14284 9.66666C5.14284 9.48241 5.28661 9.33331 5.46428 9.33331H9.32142C9.49909 9.33331 9.64286 9.48241 9.64286 9.66666C9.64286 9.85091 9.49909 10 9.32142 10ZM9.00001 3.33334C8.6453 3.33334 8.35716 3.03419 8.35716 2.66669V1.13803L10.4741 3.33334H9.00001Z" fill="#52D16B"/>
</svg>
