<svg width="56" height="56" viewBox="0 0 56 56" fill="none" xmlns="http://www.w3.org/2000/svg">
<path fill-rule="evenodd" clip-rule="evenodd" d="M51.67 36.5843C51.67 30.7929 48.3476 25.6243 43.3716 23.1101C43.217 34.2143 34.2143 43.217 23.1101 43.3716C25.6243 48.3476 30.7929 51.67 36.5843 51.67C39.2996 51.67 41.9402 50.9468 44.2603 49.5728L51.6041 51.6041L49.5728 44.2603C50.9468 41.9402 51.67 39.2996 51.67 36.5843Z" fill="white"/>
<path fill-rule="evenodd" clip-rule="evenodd" d="M40.6406 22.8203C40.6406 12.994 32.6466 5 22.8203 5C12.994 5 5 12.994 5 22.8203C5 26.0227 5.85242 29.1408 7.47108 31.8782L5.06552 40.5747L13.7624 38.1695C16.4998 39.7882 19.6178 40.6406 22.8203 40.6406C32.6466 40.6406 40.6406 32.6466 40.6406 22.8203ZM20.0857 18.6729H17.3511C17.3511 15.657 19.8044 13.2037 22.8203 13.2037C25.8361 13.2037 28.2894 15.657 28.2894 18.6729C28.2894 20.2036 27.6414 21.6748 26.5109 22.7088L24.1876 24.8352V26.9677H21.453V23.631L24.6647 20.6914C25.2387 20.1662 25.5549 19.4494 25.5549 18.6729C25.5549 17.1649 24.3282 15.9383 22.8203 15.9383C21.3124 15.9383 20.0857 17.1649 20.0857 18.6729ZM21.453 29.7023H24.1876V32.4369H21.453V29.7023Z" fill="white"/>
</svg>
