<svg width="28" height="28" viewBox="0 0 28 28" fill="none" xmlns="http://www.w3.org/2000/svg">
<path fill-rule="evenodd" clip-rule="evenodd" d="M12.6667 8C12.6667 5.79067 11.1747 4 9.33333 4C7.492 4 6 5.79067 6 8C6 9.908 7.11467 11.4973 8.604 11.8973L7.34667 23.108C7.33733 23.1813 7.33333 23.2573 7.33333 23.3333C7.33333 24.4373 8.22933 25.3333 9.33333 25.3333C10.4373 25.3333 11.3333 24.4373 11.3333 23.3333C11.3333 23.2693 11.3307 23.2053 11.324 23.1427L10.2547 11.8253C11.644 11.344 12.6667 9.82267 12.6667 8Z" fill="#497DF9"/>
<path fill-rule="evenodd" clip-rule="evenodd" d="M21.3333 4C20.9653 4 20.6666 4.29867 20.6666 4.66667V8C20.6666 8.368 20.368 8.66667 20 8.66667C19.632 8.66667 19.3333 8.368 19.3333 8V4.66667C19.3333 4.29867 19.0346 4 18.6666 4C18.2986 4 18 4.29867 18 4.66667V8C18 8.368 17.7013 8.66667 17.3333 8.66667C16.9653 8.66667 16.6666 8.368 16.6666 8V4.66667C16.6666 4.29867 16.368 4 16 4C15.632 4 15.3333 4.29867 15.3333 4.66667V8.66667C15.3333 10.252 16.448 11.5787 17.9346 11.9133L16.6786 23.108C16.6706 23.1813 16.6666 23.2573 16.6666 23.3333C16.6666 24.4373 17.5626 25.3333 18.6666 25.3333C19.7706 25.3333 20.6666 24.4373 20.6666 23.3333C20.6666 23.2693 20.664 23.2053 20.6573 23.1427L19.5906 11.8533C20.9773 11.4493 22 10.1813 22 8.66667V4.66667C22 4.29867 21.7013 4 21.3333 4Z" fill="#EF716B"/>
</svg>
