<svg width="14" height="14" viewBox="0 0 14 14" fill="none" xmlns="http://www.w3.org/2000/svg">
<path fill-rule="evenodd" clip-rule="evenodd" d="M8.75331 0.233398C7.00265 0.233398 6.00228 1.16635 6.00228 1.16635C6.00228 1.16635 5.0019 0.233398 3.25125 0.233398C3.25125 0.233398 0.250122 0.233398 0.250122 2.33255V2.92521C0.250122 4.04615 0.569492 5.1552 1.22399 6.09539C1.268 6.15859 1.31352 6.2218 1.36129 6.28478C1.72643 6.76851 1.84622 7.3796 1.67266 7.9487C1.47058 8.6097 1.2505 9.50463 1.2505 10.2627C1.2505 10.2627 1.14146 12.5825 2.25087 13.674C2.41243 13.8331 2.70079 13.7638 2.76431 13.5527C3.12395 12.3574 4.36692 8.86323 6.00228 8.86323C6.53398 8.86323 7.02366 9.23361 7.45557 9.77333L11.1317 5.50646C11.5471 4.70645 11.7544 3.82038 11.7544 2.92521V2.33255C11.7544 0.233398 8.75331 0.233398 8.75331 0.233398Z" fill="#EF716B"/>
<path fill-rule="evenodd" clip-rule="evenodd" d="M11.8624 5.41699C10.7612 5.41699 10.1323 5.99193 10.1323 5.99193C10.1323 5.99193 9.50302 5.41699 8.40211 5.41699C8.40211 5.41699 6.51465 5.41699 6.51465 6.71077V7.07602C6.51465 7.76687 6.71547 8.45049 7.12713 9.02986C7.15489 9.06881 7.1834 9.10776 7.21341 9.14648C7.44325 9.44456 7.51852 9.82124 7.40923 10.1718C7.28244 10.5793 7.14388 11.1306 7.14388 11.5978C7.14388 11.5978 7.07536 13.0276 7.77312 13.7002C7.87491 13.7982 8.05598 13.7555 8.09599 13.6254C8.32233 12.8886 9.10412 10.7353 10.1325 10.7353C11.1609 10.7353 11.9427 12.8888 12.169 13.6254C12.209 13.7555 12.3901 13.7982 12.4919 13.7002C13.1897 13.0276 13.1211 11.5978 13.1211 11.5978C13.1211 11.1306 12.9826 10.579 12.8558 10.1718C12.7465 9.82124 12.8218 9.44456 13.0516 9.14648C13.0816 9.10753 13.1104 9.06858 13.1379 9.02986C13.5495 8.45049 13.7504 7.76687 13.7504 7.07602V6.71077C13.7499 5.41699 11.8624 5.41699 11.8624 5.41699V5.41699Z" fill="#497DF9"/>
<path fill-rule="evenodd" clip-rule="evenodd" d="M3.75144 2.79858C3.61338 2.79858 3.50134 2.69432 3.50134 2.56534C3.50134 2.43636 3.61338 2.3321 3.75144 2.3321C4.47446 2.3321 5.48259 1.38259 5.81021 1.0164C5.89874 0.917278 6.0563 0.90445 6.16234 0.986783C6.26838 1.06912 6.28264 1.21606 6.19435 1.31518C6.0588 1.46702 4.83759 2.79858 3.75144 2.79858Z" fill="#C5423C"/>
<path fill-rule="evenodd" clip-rule="evenodd" d="M8.75327 6.99736C8.61522 6.99736 8.50317 6.8931 8.50317 6.76412C8.50317 6.63514 8.61522 6.53088 8.75327 6.53088C9.15842 6.53088 9.70287 6.02195 9.86168 5.84376C9.94997 5.7451 10.1075 5.73134 10.2138 5.8132C10.3201 5.89554 10.3349 6.04201 10.2471 6.14137C10.1693 6.22883 9.46704 6.99736 8.75327 6.99736Z" fill="#1C49B6"/>
</svg>
