<svg width="24" height="24" viewBox="0 0 24 24" fill="none" xmlns="http://www.w3.org/2000/svg">
<path fill-rule="evenodd" clip-rule="evenodd" d="M21.4281 4.73409C21.1339 4.43936 20.6565 4.43885 20.3623 4.73284L11.3196 13.7517L8.05703 10.2082C7.77512 9.90217 7.29848 9.88233 6.99195 10.1642C6.68566 10.4461 6.66606 10.923 6.94797 11.2293L10.742 15.3496C10.8809 15.5006 11.0754 15.5883 11.2804 15.5926C11.2859 15.5928 11.2912 15.5928 11.2965 15.5928C11.4957 15.5928 11.6874 15.5137 11.8286 15.373L21.4266 5.80014C21.7216 5.5062 21.7221 5.02881 21.4281 4.73409Z" fill="#0C0B52" stroke="#0C0B52" stroke-width="0.4"/>
<path fill-rule="evenodd" clip-rule="evenodd" d="M21.2462 11.2462C20.8299 11.2462 20.4925 11.5836 20.4925 12C20.4925 16.6829 16.6829 20.4925 12 20.4925C7.31734 20.4925 3.50754 16.6829 3.50754 12C3.50754 7.31734 7.31734 3.50754 12 3.50754C12.4163 3.50754 12.7538 3.17012 12.7538 2.75379C12.7538 2.33742 12.4163 2 12 2C6.48594 2 2 6.48594 2 12C2 17.5138 6.48594 22 12 22C17.5138 22 22 17.5138 22 12C22 11.5837 21.6626 11.2462 21.2462 11.2462Z" fill="#0C0B52" stroke="#0C0B52" stroke-width="0.4"/>
</svg>
