<svg width="28" height="28" viewBox="0 0 28 28" fill="none" xmlns="http://www.w3.org/2000/svg">
<path fill-rule="evenodd" clip-rule="evenodd" d="M13.9965 2.33301C10.6493 2.33301 7.91309 5.05668 7.91309 8.38859C7.91309 11.7205 10.6493 14.4442 13.9965 14.4442C17.3438 14.4442 20.08 11.7205 20.08 8.38859C20.08 5.05668 17.3438 2.33301 13.9965 2.33301Z" fill="#5A5987"/>
<path fill-rule="evenodd" clip-rule="evenodd" d="M24.4367 19.2829C24.2773 18.8863 24.0648 18.5161 23.8257 18.1723C22.6037 16.3741 20.7176 15.1842 18.5924 14.8933C18.3267 14.8669 18.0345 14.9197 17.822 15.0784C16.7062 15.8981 15.378 16.3212 13.9966 16.3212C12.6152 16.3212 11.2869 15.8981 10.1712 15.0784C9.95863 14.9197 9.66641 14.8404 9.40078 14.8933C7.27556 15.1842 5.36288 16.3741 4.16746 18.1723C3.92838 18.5161 3.71583 18.9127 3.55648 19.2829C3.4768 19.4416 3.50334 19.6267 3.58302 19.7854C3.79556 20.1556 4.06119 20.5258 4.30027 20.8431C4.67217 21.3456 5.07066 21.7951 5.52229 22.2182C5.89419 22.5884 6.31922 22.9321 6.74431 23.2759C8.84294 24.8361 11.3666 25.6558 13.97 25.6558C16.5734 25.6558 19.0971 24.8361 21.1958 23.2759C21.6208 22.9586 22.0458 22.5884 22.4178 22.2182C22.8428 21.7951 23.2679 21.3455 23.6398 20.8431C23.9054 20.4993 24.1446 20.1556 24.3571 19.7854C24.4898 19.6267 24.5164 19.4416 24.4367 19.2829Z" fill="#5A5987"/>
</svg>
